<svg xmlns="http://www.w3.org/2000/svg">
<defs>
<font id="GTSectra-Book" horiz-adv-x="620" >
  <font-face 
    font-family="GT Sectra Book"
    font-weight="300"
    font-stretch="normal"
    units-per-em="1000"
    panose-1="0 0 4 0 0 0 0 0 0 0"
    ascent="750"
    descent="-250"
    x-height="467"
    cap-height="701"
    bbox="-477 -267 1158 905"
    underline-thickness="50"
    underline-position="-50"
    unicode-range="U+000D-FB02"
  />
<missing-glyph horiz-adv-x="625" 
d="M432 -28l-24 18h-14l-8 8l7 76l-4 47l-61 1l-3 -52l-2 -56v-20l-15 -6l-8 6l-30 -10h-32l-1 11l11 11l50 21l-6 96l-98 -6l-147 140l-4 115l-13 10l-10 36v26l15 8l-3 78l92 -62l9 47l10 36l22 35l28 35l39 29l78 29h22l-68 22l4 17h7l79 -20l-4 51l16 12h32l19 -5
l29 -25l32 -8l32 -10l15 -13v-20l-20 -31l30 -28l28 -32l18 -34l15 -41l9 -54l-3 -41l-8 -35l-12 -31l-3 -156l-21 -7l-50 70l-27 -7l-19 -140l-32 4l-7 -4l-4 -94l30 -19l16 -14l-3 -15zM213 540l36 24h32l18 -12l8 3l4 14l7 5l10 -4v-18h8l10 22l11 8l-5 6l-3 8l1 21
l-30 -10l-10 -8l-8 5l4 21l14 10l11 11l38 -2l12 13l-4 8h-49l-45 -13l-53 -26l-29 -23l-25 -34l29 12l13 -15l-17 -20l-10 -3l17 -3h5zM391 625l-7 17l-8 -9v-19l12 -6zM449 564l6 6l-9 18l17 28l-15 9v5l-25 7v-20l-13 -5v-9l-9 -6l-3 -12l5 -6l19 11l8 -2l6 -24h13z
M533 418h23l6 11l-18 6l-5 9l9 42h7l14 -20l17 -1l-8 37l-19 50l-20 36l-23 28l-34 21h-11l17 -19l25 -10l11 -11l3 -33l-25 13l-15 -29l12 -8v-19l15 3l-12 26l15 -5l10 -20l-5 -12l-8 -7h-23l-3 11l-12 2l1 -22h-14l14 -18l-7 -10l-21 5l-3 -27l41 6l8 17l22 -2l6 -28
l-16 -13v-15l8 -6zM463 521l-2 9l-8 -4v-9l8 -3zM243 510l-4 12l-55 -24zM369 495l-48 25l-4 -12l49 -17zM72 434l57 -32l7 10l-68 38v18l59 -34l43 -28l28 -14l3 10l-103 64l-13 7l-41 33l2 -78l19 -17v-5h-21l19 -14l1 -11l-20 7l18 -18l-4 -7l3 -97l11 -12v180zM238 437
l16 12l6 12l2 13l-22 -4l6 -10l-12 -13l-14 -1l-6 8l1 4l14 2l-13 6l2 7l-20 -1l3 -19l14 -15l12 -6zM347 440l6 9l5 20l-30 2l7 -5l1 -11l-7 -11h-12l-5 7l11 8l-15 2v6l-23 4l3 -17l8 -14l20 -9l13 -1zM219 134l2 40l41 -3l3 9l-44 6v16l48 -6l1 9l-47 7l1 22l43 -3l3 6

<glyph glyph-name="fi" unicode="fi" horiz-adv-x="581" 
d="M42 29l74 9v378h-90v16l28 33h62v9q0 42 12.5 75t41.5 68l77 93h234v-86h-23l-64 12h-153l-21 -25q-13 -17 -18.5 -43t-5.5 -70v-38h179l60 5l46 5v-432l80 -9l-5 -30l-112 3l-88 -3l-5 33l50 6v346l5 39l-34 -7h-176v-378l77 -6l-5 -33l-102 3l-119 -3z" />
    <glyph glyph-name="fl" unicode="fl" horiz-adv-x="587" 
d="M42 29l74 9v378h-90v16l28 33h62v9q0 44 13 77t41 66l77 93h138l79 4h28v-676l80 -9l-5 -30l-112 3l-100 -3l-5 30l62 9v378h-216v-378l87 -6l-5 -33l-112 3l-119 -3zM412 460v196l-57 -20h-114l-21 -25q-12 -15 -18 -39.5t-6 -73.5v-38h216z" />
    <glyph glyph-name="f_f" unicode="ff" horiz-adv-x="638" 
d="M42 29l74 9v378h-90v16l28 33h62q0 46 16.5 79t47.5 70l67 81h168l-54 -74h-122l-19 -25q-12 -15 -18 -38t-6 -69v-29h216v14q0 45 12.5 77.5t40.5 65.5l78 93h122v-74h-130l-20 -25q-12 -15 -17.5 -39.5t-5.5 -73.5v-38h123v-44h-123v-378l119 -6l-5 -33l-144 3l-95 -3
l-5 30l50 9v378h-216v-378l87 -6l-5 -33l-112 3l-119 -3z" />
    <glyph glyph-name="f_f_i" unicode="ffi" horiz-adv-x="876" 
d="M42 29l74 9v378h-90v16l28 33h62q0 45 16.5 78t47.5 71l67 81h168l-54 -74h-122l-19 -25q-12 -15 -18 -38t-6 -69v-29h216v14q0 45 12.5 77.5t40.5 65.5l78 93h233v-86h-23l-64 12h-153l-21 -25q-12 -14 -18 -38.5t-6 -74.5v-38h179l60 8l46 2v-432l80 -9l-5 -30l-112 3
l-88 -3l-5 33l50 6v346l5 39l-34 -7h-176v-378l77 -6l-5 -33l-102 3l-118 -3l-5 30l74 9v378h-216v-378l87 -6l-5 -33l-112 3l-119 -3z" />
    <glyph glyph-name="f_f_l" unicode="ffl" horiz-adv-x="882" 
d="M42 29l74 9v378h-90v16l28 33h62q0 46 16.5 79t47.5 70l67 81h168l-54 -74h-122l-19 -25q-12 -15 -18 -38t-6 -69v-29h216v14q0 45 12.5 77.5t40.5 65.5l78 93h137l79 4h28v-676l80 -9l-5 -30l-112 3l-100 -3l-5 30l62 9v378h-215v-378l87 -6l-5 -33l-112 3l-95 -3l-5 30
l50 9v378h-216v-378l87 -6l-5 -33l-112 3l-119 -3zM707 460v196l-57 -20h-114l-21 -25q-12 -15 -17.5 -39.5t-5.5 -73.5v-38h215z" />
    <glyph glyph-name="T_h.liga" unicode="Th" horiz-adv-x="1067" 
d="M135 30l124 13v613l-159 -3l-45 -120h-35v169l281 -2l250 2l101 13l26 -1v-327l145 95q64 0 95.5 -18t41.5 -55t10 -107v-263l80 -9l-5 -31l-112 3l-89 -3l-5 31l52 9v290q0 41 -18 61t-50 20q-21 0 -48 -12.5t-64 -35.5l-33 -20v-303l59 -9l-5 -31l-91 3l-100 -3l-5 31
l62 9v618l-32 -4l-218 3v-613l118 -13l-5 -31l-157 3l-164 -3z" />
    <glyph glyph-name="f_b.liga" unicode="fb" horiz-adv-x="854" 
d="M477.5 -6q-29.5 9 -60.5 27l-17 10v625l-57 -20h-104l-20 -28q-11 -15 -17 -41t-6 -75v-32h124v-44h-124v-377l119 -5l-5 -35l-144 3l-119 -3l-5 31l74 9v377h-90v16l28 33h62v9q0 44 13 77t41 66l77 93h126l79 4h28v-327l123 95q57 0 104.5 -28t75.5 -80t28 -121
q0 -233 -245 -268q-59 0 -88.5 9zM689.5 84.5q37.5 52.5 37.5 141.5q0 82 -31 133.5t-81 51.5q-22 0 -48.5 -11t-53.5 -33l-33 -27v-266q17 -20 45.5 -31t62.5 -11q64 0 101.5 52.5z" />
    <glyph glyph-name="f_f_b.liga" unicode="ffb" horiz-adv-x="1149" 
d="M774.5 -6q-29.5 9 -60.5 27q-4 2 -8.5 4.5t-10.5 5.5v625l-57 -20h-103l-21 -28q-11 -14 -16.5 -40t-5.5 -76v-32h123v-44h-123v-377l119 -5l-5 -35l-144 3l-95 -3l-5 30l50 9v378h-216v-378l87 -6l-5 -33l-112 3l-119 -3l-5 30l74 9v378h-90v16l28 33h62q0 46 16.5 79
t47.5 70l67 81h168l-54 -74h-122l-19 -25q-12 -15 -18 -38t-6 -69v-29h216v14q0 45 12.5 77.5t40.5 65.5l78 93h125l79 4h28v-327l123 95q57 0 104.5 -28t75.5 -80t28 -121q0 -233 -245 -268q-57 0 -86.5 9zM984.5 84.5q37.5 52.5 37.5 141.5q0 82 -31 133.5t-81 51.5
q-22 0 -48.5 -11t-53.5 -33l-33 -27v-266q17 -20 45.5 -31t62.5 -11q64 0 101.5 52.5z" />
    <glyph glyph-name="f_f_h.liga" unicode="ffh" horiz-adv-x="1175" 
d="M42 29l74 9v378h-90v16l28 33h62q0 46 16.5 79t47.5 70l67 81h168l-54 -74h-122l-19 -25q-12 -15 -18 -38t-6 -69v-29h216v14q0 45 12.5 77.5t40.5 65.5l78 93h137l79 4h28v-327l144 95q65 0 96 -18t41 -54.5t10 -107.5v-263l80 -9l-5 -31l-112 3l-89 -3l-5 31l52 9v290
q0 81 -68 81q-21 0 -47 -12.5t-65 -35.5l-32 -20v-303l59 -9l-5 -31l-91 3l-100 -3l-5 31l62 9v617l-57 -20h-115l-21 -28q-11 -14 -16.5 -40t-5.5 -76v-32h123v-44h-123v-377l87 -5l-5 -35l-112 3l-95 -3l-5 30l50 9v378h-216v-378l87 -6l-5 -33l-112 3l-119 -3z" />
    <glyph glyph-name="f_f_j.liga" unicode="ffj" horiz-adv-x="833" 
d="M566 -156h93l11 22q10 19 15.5 41t5.5 64v413l5 39l-34 -7h-171v-378l89 -6l-5 -33l-119 3l-90 -3l-5 30l50 9v378h-215v-378l87 -6l-5 -33l-112 3l-119 -3l-5 30l74 9v378h-90v16l28 33h62q0 46 16.5 79t47.5 70l67 81h168l-54 -74h-122l-19 -25q-12 -15 -18 -38t-6 -69
v-29h215v14q0 44 13 77t41 66l77 93h230v-86h-24l-64 12h-148l-21 -25q-12 -15 -18 -39.5t-6 -73.5v-38h174l60 6l46 4v-485q0 -37 -9 -64.5t-33 -57.5l-84 -98h-79v79z" />
    <glyph glyph-name="f_f_k.liga" unicode="ffk" horiz-adv-x="1129" 
d="M42 29l74 9v378h-90v16l28 33h62v-2q0 46 16.5 80.5t47.5 70.5l67 81h168l-54 -74h-122l-19 -25q-12 -15 -18 -38t-6 -69v-29h216v14q0 45 12.5 77.5t40.5 65.5l78 93h137l107 4v-443l27 11l162 146l-21 9v31l77 -3l69 3l5 -31l-51 -9l-194 -159l19 -11l198 -219l46 -9
l-4 -31l-74 3l-58 -3l-192 234l-9 20v-214l60 -9l-5 -31l-89 3l-115 -3l-5 31l74 9v617l-57 -20h-115l-21 -28q-11 -14 -16.5 -40t-5.5 -76v-32h123v-44h-123v-377l87 -5l-5 -35l-112 3l-119 -3l-5 31l74 9v377h-216v-378l87 -6l-5 -33l-112 3l-119 -3z" />
    <glyph glyph-name="f_h.liga" unicode="fh" horiz-adv-x="880" 
d="M42 30l74 9v377h-90v16l28 33h62v9q0 44 13 77t41 66l77 93h138l79 4h28v-327l144 95q65 0 96 -18t41 -54.5t10 -107.5v-263l80 -9l-5 -31l-112 3l-89 -3l-5 31l52 9v290q0 81 -68 81q-21 0 -47 -12.5t-65 -35.5l-32 -20v-303l59 -9l-5 -31l-91 3l-100 -3l-5 31l62 9v617
l-57 -20h-116l-20 -28q-11 -15 -17 -41t-6 -75v-32h124v-44h-124v-377l87 -5l-5 -35l-112 3l-119 -3z" />
    <glyph glyph-name="f_j.liga" unicode="fj" horiz-adv-x="538" 
d="M271 -156h93l11 22q10 19 15.5 41t5.5 64v413l5 39l-34 -7h-171v-377l89 -6l-5 -34l-120 3l-113 -3l-5 30l74 10v377h-90v16l28 33h62v9q0 44 13 77t41 66l77 93h230v-86h-24l-64 12h-148l-21 -25q-12 -15 -18 -39.5t-6 -73.5v-38h174l60 6l46 4v-485q0 -37 -9 -64.5
t-33 -57.5l-84 -98h-79v79z" />
    <glyph glyph-name="f_k.liga" unicode="fk" horiz-adv-x="834" 
d="M42 30l74 9v377h-90v16l28 33h62v9q0 44 13 77t41 66l77 93h138l107 5v-444l26 11l163 146l-21 9v31l77 -3l69 3l5 -31l-51 -9l-194 -159l18 -11l199 -219l46 -9l-4 -31l-74 3l-58 -3l-192 234l-9 20v-214l60 -9l-5 -31l-89 3l-115 -3l-5 31l74 9v617l-57 -20h-116
l-20 -28q-11 -15 -17 -41t-6 -75v-32h124v-44h-124v-377l87 -5l-5 -35l-112 3l-119 -3z" />
    <glyph glyph-name="f_t.liga" unicode="ft" horiz-adv-x="657" 
d="M444.5 16.5q-28.5 31.5 -28.5 95.5v304h-220v-377l107 -5l-5 -35l-132 3l-119 -3l-5 31l74 9v377h-90v16l28 33h62v9q0 42 12.5 75t41.5 68l77 93h195l-69 -74h-134l-20 -28q-23 -32 -23 -116v-32h224v69l56 62h19v-134h156v-42h-155v-301q0 -29 14 -44t40 -15
q33 0 89 28l16 -30l-122 -68q-60 0 -88.5 31.5z" />
    <glyph glyph-name="f_y.liga" unicode="fy" horiz-adv-x="810" 
d="M354 -146h76l99 156l-24 -7l-169 422h-140v-386l119 -5l-5 -35l-144 3l-119 -3l-5 31l74 9v377h-90v16l28 33h62v9q0 44 13 77t41 66l77 93h122v-74h-130l-20 -28q-11 -15 -17 -41.5t-6 -75.5v-24h289l5 -30l-70 -10l116 -304l6 -64l130 368l-46 10l5 31l86 -3l83 3
l5 -31l-66 -10l-162 -413l-115 -249h-108v89z" />
    <glyph glyph-name="g_g.liga" unicode="gg" horiz-adv-x="1006" 
d="M68 -209.5q-47 35.5 -47 106.5v15l106 88q-33 13 -48 27.5t-18 30t-3 43.5v2l98 70q-48 16 -76 49.5t-28 78.5q0 64 45 110t143 71q43 0 82 -14t62 -40l57 54h39l18 -73h-53l-38 -18q11 -24 11 -50q0 -132 -188 -179q-23 0 -33 1l-61 -69q0 -15 9.5 -25t25.5 -10h153
q66 0 97.5 -26t31.5 -73q0 -38 -30 -77.5t-84 -73t-124 -54.5q-100 0 -147 35.5zM559 -210q-50 35 -50 107v15l102 88q-43 13 -62 27.5t-23 30t-4 43.5v2l98 70q-48 16 -76 49.5t-28 78.5q0 64 45 110t143 71q43 0 82 -14t62 -40l57 54h57v-73h-53l-38 -18q11 -24 11 -50
q0 -132 -188 -179q-23 0 -33 1l-61 -69q0 -15 9.5 -25t25.5 -10h183q66 0 97.5 -26t31.5 -73q0 -38 -28.5 -77.5t-80.5 -73t-119 -54.5q-110 0 -160 35zM311 232q24 25 24 68q0 49 -25 94t-84 45q-43 0 -67 -28.5t-24 -78.5q0 -25 10 -54t34.5 -50t65.5 -21q42 0 66 25z
M775 232q24 25 24 68q0 49 -25 94t-84 45q-43 0 -67 -28.5t-24 -78.5q0 -25 10 -54t34.5 -50t65.5 -21q42 0 66 25zM290.5 -174q34.5 17 56 47t21.5 66q0 28 -23.5 39.5t-78.5 11.5h-106q-39 -44 -50 -63.5t-11 -33.5q0 -37 34 -60.5t85 -23.5q38 0 72.5 17zM790 -174
q32 17 52 47t20 66q0 28 -23.5 39.5t-78.5 11.5h-116q-36 -44 -46.5 -63.5t-10.5 -33.5q0 -37 38 -60.5t97 -23.5q36 0 68 17z" />
    <glyph glyph-name="k_y.liga" unicode="ky" horiz-adv-x="974" 
d="M519 -146h75l99 156l-24 -7l-169 423l-42 -3l-195 -154l19 -11l198 -218l47 -10l-4 -31l-75 1l-57 -1l-193 234l-9 22v-215l60 -10l-5 -31l-89 3l-115 -3l-5 31l74 10v610l-74 -2l-5 30l113 32l46 4v-444l26 11l164 145l-21 11v30h292l5 -30l-70 -10l115 -304l7 -64
l129 368l-45 10l5 31l86 -3l82 3l5 -31l-65 -10l-167 -413l-111 -249h-107v89z" />
    <glyph glyph-name="t_t.liga" unicode="tt" horiz-adv-x="681" 
d="M132.5 16.5q-28.5 31.5 -28.5 95.5v303h-99v17l34 34h69v63l56 62h19v-134h240v72l56 62h20v-134h180v-42h-179v-301q0 -59 53 -59q34 0 90 28l16 -30l-123 -68q-59 0 -87.5 31.5t-28.5 95.5v303h-236v-301q0 -29 14 -44t40 -15q20 0 38.5 7t48.5 21l15 -30l-119 -68
q-60 0 -88.5 31.5z" />
    <glyph glyph-name="t_y.liga" unicode="ty" horiz-adv-x="819" 
d="M363 -146h76l98 156l-23 -7l-170 423h-160v-312q0 -59 54 -59q20 0 42 7.5t50 21.5l15 -30l-124 -69q-58 0 -87.5 32t-29.5 95v300h-99v16l34 34h69v67l56 62h19v-124h311l5 -30l-70 -10l115 -304l7 -64l130 368l-46 10l5 31l86 -3l83 3l5 -31l-66 -10l-166 -413
l-111 -249h-108v89z" />
    <glyph glyph-name=".notdef" horiz-adv-x="625" 
d="M432 -28l-24 18h-14l-8 8l7 76l-4 47l-61 1l-3 -52l-2 -56v-20l-15 -6l-8 6l-30 -10h-32l-1 11l11 11l50 21l-6 96l-98 -6l-147 140l-4 115l-13 10l-10 36v26l15 8l-3 78l92 -62l9 47l10 36l22 35l28 35l39 29l78 29h22l-68 22l4 17h7l79 -20l-4 51l16 12h32l19 -5
l29 -25l32 -8l32 -10l15 -13v-20l-20 -31l30 -28l28 -32l18 -34l15 -41l9 -54l-3 -41l-8 -35l-12 -31l-3 -156l-21 -7l-50 70l-27 -7l-19 -140l-32 4l-7 -4l-4 -94l30 -19l16 -14l-3 -15zM213 540l36 24h32l18 -12l8 3l4 14l7 5l10 -4v-18h8l10 22l11 8l-5 6l-3 8l1 21
l-30 -10l-10 -8l-8 5l4 21l14 10l11 11l38 -2l12 13l-4 8h-49l-45 -13l-53 -26l-29 -23l-25 -34l29 12l13 -15l-17 -20l-10 -3l17 -3h5zM391 625l-7 17l-8 -9v-19l12 -6zM449 564l6 6l-9 18l17 28l-15 9v5l-25 7v-20l-13 -5v-9l-9 -6l-3 -12l5 -6l19 11l8 -2l6 -24h13z
M533 418h23l6 11l-18 6l-5 9l9 42h7l14 -20l17 -1l-8 37l-19 50l-20 36l-23 28l-34 21h-11l17 -19l25 -10l11 -11l3 -33l-25 13l-15 -29l12 -8v-19l15 3l-12 26l15 -5l10 -20l-5 -12l-8 -7h-23l-3 11l-12 2l1 -22h-14l14 -18l-7 -10l-21 5l-3 -27l41 6l8 17l22 -2l6 -28
l-16 -13v-15l8 -6zM463 521l-2 9l-8 -4v-9l8 -3zM243 510l-4 12l-55 -24zM369 495l-48 25l-4 -12l49 -17zM72 434l57 -32l7 10l-68 38v18l59 -34l43 -28l28 -14l3 10l-103 64l-13 7l-41 33l2 -78l19 -17v-5h-21l19 -14l1 -11l-20 7l18 -18l-4 -7l3 -97l11 -12v180zM238 437
l16 12l6 12l2 13l-22 -4l6 -10l-12 -13l-14 -1l-6 8l1 4l14 2l-13 6l2 7l-20 -1l3 -19l14 -15l12 -6zM347 440l6 9l5 20l-30 2l7 -5l1 -11l-7 -11h-12l-5 7l11 8l-15 2v6l-23 4l3 -17l8 -14l20 -9l13 -1zM219 134l2 40l41 -3l3 9l-44 6v16l48 -6l1 9l-47 7l1 22l43 -3l3 6
l-45 9l3 94h74l11 10h-79l2 9h74l8 7h-82l2 22l117 4l140 -4v11l-4 7h-205l-66 -3l-7 -9l-6 -44l-48 20l-11 -4l57 -27l1 -45l-5 -73v-91zM534 386l5 7v7l-10 -4v-10h5zM403 336l4 30l-54 5l-3 -35h53zM172 291l4 40l-66 39v-7l-2 -13l1 -27v-48l64 -44zM481 350l4 9h-48
v-13zM461 221l4 36l-15 3l-1 8l20 1l5 3l-28 16l2 5l30 -6l-30 15l5 5l21 -5l4 10l3 19l-54 1l-1 -24v-6l-2 -31l19 -3l-8 -61l-48 3l-8 -6l51 -5l-2 -9h-49l-4 -5l53 -7l-6 -35l27 -1zM364 302v10h-73v-10h73zM559 312l-6 -3l-33 -27l39 -48v78zM364 281l-72 7l-6 -13
l78 -4v10zM354 250v6l-68 4v-10h68zM176 203l-74 50l20 -23l50 -41zM350 214l-64 4v-51l64 -6v53z" />
    <glyph glyph-name=".null" horiz-adv-x="0" 
 />
    <glyph glyph-name="nonmarkingreturn" unicode="&#xd;" horiz-adv-x="320" 
 />
    <glyph glyph-name="space" unicode=" " horiz-adv-x="241" 
 />
    <glyph glyph-name="A" unicode="A" horiz-adv-x="747" 
d="M11 30l83 11l254 654l37 14l270 -668l81 -11l-5 -31l-125 3l-136 -3l-5 31l89 13l-72 194h-250l-68 -194l90 -13l-5 -31l-124 3l-109 -3zM465 281l-99 264l-8 53l-111 -317h218z" />
    <glyph glyph-name="B" unicode="B" horiz-adv-x="641" 
d="M30 30l94 13v614l-94 13l5 31l142 -3l179 3q63 0 108 -20.5t67 -55t22 -73.5q0 -58 -43 -107t-109 -68q61 -2 105.5 -26t67 -62t22.5 -83q0 -96 -69 -141.5t-203 -65.5l-147 3l-142 -3zM302 389q46 0 82 21t56 56t20 77q0 53 -34 84.5t-96 32.5l-117 -4v-267h89z
M455.5 88q45.5 48 45.5 114q0 64 -44 103.5t-121 39.5h-123v-301l98 -4q99 0 144.5 48z" />
    <glyph glyph-name="C" unicode="C" horiz-adv-x="703" 
d="M222.5 24.5q-81.5 42.5 -131 124.5t-49.5 194q0 167 100 260.5t270 114.5q71 0 136.5 -25.5t104.5 -56.5v-123h-51l-32 92q-25 25 -70 45.5t-100 20.5q-120 0 -190 -79.5t-70 -226.5q0 -82 34.5 -158.5t100.5 -125t155 -48.5q61 0 127 52l56 109h51l-28 -132
q-46 -23 -116 -47.5t-122 -32.5q-94 0 -175.5 42.5z" />
    <glyph glyph-name="D" unicode="D" horiz-adv-x="732" 
d="M30 30l94 13v614l-94 13l5 31l138 -3l191 3q152 1 239 -85.5t87 -245.5q0 -165 -85.5 -258t-252.5 -113l-178 3l-139 -3zM472.5 81.5q55.5 38.5 86.5 109.5t31 167q0 85 -30.5 153.5t-92.5 108.5t-151 41l-103 -5v-604l132 -10q72 1 127.5 39.5z" />
    <glyph glyph-name="E" unicode="E" horiz-adv-x="625" 
d="M30 30l94 13v614l-94 13l5 31l138 -3l389 3l9 -176h-28l-55 130l-275 3v-273l148 4l40 105h30l-10 -121l10 -133h-30l-40 104l-148 4v-306l285 3l67 135h33l-36 -181l-389 3l-138 -3z" />
    <glyph glyph-name="F" unicode="F" horiz-adv-x="586" 
d="M30 30l94 13v614l-94 13l5 31l138 -3l389 3l9 -174h-28l-55 128l-275 3v-286l148 4l40 104h30l-10 -121l10 -133h-30l-40 105l-148 4v-292l120 -13l-5 -31l-155 3l-138 -3z" />
    <glyph glyph-name="G" unicode="G" horiz-adv-x="742" 
d="M215 24q-79 42 -126 124t-47 196q0 165 95 256.5t265 117.5q73 0 142.5 -26t104.5 -55v-124h-44l-32 88q-28 27 -75 48.5t-109 21.5q-75 0 -131 -36.5t-87 -105.5t-31 -164q0 -84 35 -160.5t98.5 -124t144.5 -47.5q44 0 81 18.5t59 40.5v192l-90 13l5 30l130 -3l108 3
l4 -30l-68 -13v-224q-76 -27 -141.5 -48t-117.5 -30q-94 0 -173 42z" />
    <glyph glyph-name="H" unicode="H" horiz-adv-x="756" 
d="M30 30l94 13v614l-94 13l5 31l134 -3l129 3l5 -31l-90 -13v-271h336v271l-96 13l5 31l136 -3l127 3l5 -31l-88 -13v-614l88 -13l-5 -31l-127 3l-136 -3l-5 31l96 13v297h-336v-297l90 -13l-5 -31l-129 3l-134 -3z" />
    <glyph glyph-name="I" unicode="I" horiz-adv-x="337" 
d="M30 31l94 13v613l-94 13l5 31l134 -3l133 3l5 -31l-94 -13v-613l94 -13l-5 -32l-133 3l-134 -3z" />
    <glyph glyph-name="J" unicode="J" horiz-adv-x="330" 
d="M-1 -95h102l9 21q11 26 14 57t3 112v562l-110 13l5 31l150 -3l128 3l5 -31l-89 -13v-570l1 -67q0 -26 -5 -43t-20 -34l-106 -118h-87v80z" />
    <glyph glyph-name="K" unicode="K" horiz-adv-x="692" 
d="M30 30l94 13v614l-94 13l5 31l134 -3l116 3l5 -31l-77 -13v-285l27 15l281 270l-73 13l5 31l104 -3l94 3l5 -31l-78 -16l-281 -277l19 -13l312 -325l53 -9l-5 -31l-85 3l-66 -3l-298 329l-14 26v-311l77 -13l-5 -31l-116 3l-134 -3z" />
    <glyph glyph-name="L" unicode="L" horiz-adv-x="584" 
d="M30 30l94 13v614l-94 13l5 31l138 -3l129 3l5 -31l-94 -13v-615l259 3l63 133h35l-34 -179l-363 3l-138 -3z" />
    <glyph glyph-name="M" unicode="M" horiz-adv-x="931" 
d="M36 30l82 13v611l-88 16l5 31l106 -3l92 3l218 -539l11 -48l245 587l102 -3l87 3l5 -31l-88 -13v-614l82 -13l-5 -31l-113 3l-144 -3l-5 31l94 13v456l13 116l-261 -615h-51l-204 503l-40 114v-574l92 -13l-9 -31l-106 3l-115 -3z" />
    <glyph glyph-name="N" unicode="N" horiz-adv-x="744" 
d="M200 561l-15 61v-579l89 -13l-6 -31l-106 3l-127 -3l-5 31l94 13v605l-89 22l5 31l96 -3l65 3l359 -523l19 -50v529l-88 13l5 31l107 -3l126 3l5 -31l-94 -13v-659h-59z" />
    <glyph glyph-name="O" unicode="O" horiz-adv-x="771" 
d="M203 28q-76 46 -118.5 126.5t-42.5 181.5q0 165 87 259t266 123q97 0 173 -46t118.5 -126.5t42.5 -181.5q0 -165 -87 -259t-266 -123q-97 0 -173 46zM573 117.5q58 84.5 58 214.5q0 80 -26 156.5t-84.5 127.5t-149.5 51q-115 0 -173 -84.5t-58 -214.5q0 -81 26.5 -157.5
t85 -127t149.5 -50.5q114 0 172 84.5z" />
    <glyph glyph-name="P" unicode="P" horiz-adv-x="583" 
d="M30 30l94 13v614l-94 13l5 31l131 -3l184 3q99 1 160.5 -45.5t61.5 -130.5q0 -93 -70 -148.5t-173 -74.5h-116v-259l120 -13l-5 -31l-159 3l-134 -3zM304 348q76 0 122.5 45.5t46.5 117.5q0 69 -37 109.5t-118 40.5l-105 -5v-308h91z" />
    <glyph glyph-name="Q" unicode="Q" horiz-adv-x="771" 
d="M634 -126l53 -16l-4 -29h-142l-165 153q-97 0 -173 46t-118.5 126.5t-42.5 181.5q0 165 87 259t266 123q97 0 173 -46t118.5 -126.5t42.5 -181.5q0 -153 -74.5 -245t-227.5 -127l100 -41zM166.5 210.5q26.5 -76.5 85 -127t149.5 -50.5q114 0 172 84.5t58 214.5
q0 80 -26 156.5t-84.5 127.5t-149.5 51q-115 0 -173 -84.5t-58 -214.5q0 -81 26.5 -157.5z" />
    <glyph glyph-name="R" unicode="R" horiz-adv-x="670" 
d="M665 28l-4 -29l-73 3l-66 -3l-218 312l-11 11h-80v-279l88 -13l-5 -31l-127 3l-134 -3l-5 31l94 13v614l-94 13l5 31l135 -3l168 3q106 1 171 -42.5t65 -131.5q0 -145 -201 -199l57 -38l179 -248zM213 363h72q57 0 99.5 20.5t65.5 56t23 80.5q0 68 -42.5 104t-109.5 37
l-108 -5v-293z" />
    <glyph glyph-name="S" unicode="S" horiz-adv-x="563" 
d="M154 -1q-48 17 -89 51l-22 126h65l35 -83q23 -28 62.5 -45t81.5 -17q67 0 105 38t38 97q0 52 -29.5 85t-79.5 54l-120 51q-60 25 -94.5 63t-34.5 99q0 80 64.5 129.5t167.5 70.5q46 0 92.5 -15.5t82.5 -42.5v-128h-43l-29 91q-22 23 -48.5 35t-69.5 12q-61 0 -95.5 -31
t-34.5 -86q0 -77 99 -119l110 -45q64 -26 105 -69t41 -116q0 -75 -56.5 -135.5t-187.5 -86.5q-68 0 -116 17z" />
    <glyph glyph-name="T" unicode="T" horiz-adv-x="597" 
d="M130 30l124 13v613l-159 -1l-45 -123h-35v169l281 -3l286 3v-169h-35l-45 123l-159 1v-613l118 -13l-5 -31l-157 3l-164 -3z" />
    <glyph glyph-name="U" unicode="U" horiz-adv-x="717" 
d="M169 51.5q-60 69.5 -60 195.5v410l-94 13l5 31l139 -3l129 3l5 -31l-89 -13v-430q0 -197 170 -197q79 0 121.5 51.5t42.5 148.5v427l-92 13l5 31l128 -3l118 3l5 -31l-87 -13v-414q0 -69 -22.5 -118t-77.5 -85t-152 -58q-134 0 -194 69.5z" />
    <glyph glyph-name="V" unicode="V" horiz-adv-x="742" 
d="M87 659l-82 11l5 31l130 -3l137 3l5 -31l-89 -13l186 -498l7 -47l202 545l-90 13l5 31l120 -3l109 3l5 -31l-83 -11l-260 -656l-33 -17z" />
    <glyph glyph-name="W" unicode="W" horiz-adv-x="969" 
d="M68 659l-57 11l5 31l107 -3l123 3l5 -31l-89 -13l155 -512l3 -51l133 445l-40 120l-67 11l5 31l116 -3l124 3l5 -31l-89 -13l155 -512l2 -50l172 564l-88 11l5 31l119 -3l81 3l5 -31l-56 -11l-209 -649l-61 -24l-139 422l-3 56l-142 -454l-61 -24z" />
    <glyph glyph-name="X" unicode="X" horiz-adv-x="697" 
d="M10 31l78 11l219 302l-208 316l-82 11l5 31l149 -4l130 4l5 -31l-89 -13l124 -211l13 -37l168 247l-91 13l5 31l113 -3l123 3l5 -31l-80 -11l-209 -287l222 -330l77 -11l-5 -32l-141 3l-132 -3l-5 32l89 13l-135 222l-18 40l-179 -263l86 -12l-5 -32l-113 3l-114 -3z" />
    <glyph glyph-name="Y" unicode="Y" horiz-adv-x="707" 
d="M190 30l123 13v232l-226 385l-82 11l5 30l135 -3l127 3l5 -30l-89 -13l176 -297l10 -35l172 332l-91 13l5 30l122 -3l115 3l5 -29l-82 -10l-220 -392l2 -227l117 -13l-5 -31l-156 3l-163 -3z" />
    <glyph glyph-name="Z" unicode="Z" horiz-adv-x="570" 
d="M21 49l390 575l37 35l-308 -5l-45 -124h-40v170h468l10 -44l-392 -578l-37 -37l343 5l64 132h44l-34 -178h-491z" />
    <glyph glyph-name="Aacute" unicode="&#xc1;" horiz-adv-x="747" 
d="M416 898h100l-121 -132h-52zM11 30l83 11l254 654l37 14l270 -668l81 -11l-5 -31l-125 3l-136 -3l-5 31l89 13l-72 194h-250l-68 -194l90 -13l-5 -31l-124 3l-109 -3zM465 281l-99 264l-8 53l-111 -317h218z" />
    <glyph glyph-name="Abreve" unicode="&#x102;" horiz-adv-x="747" 
d="M320.5 769.5q-28.5 17.5 -45 39t-36.5 54.5l25 18q23 -32 46 -51.5t62 -19.5t65 20.5t47 50.5l21 -18q-4 -6 -16.5 -28.5t-37 -44.5t-64.5 -38q-38 0 -66.5 17.5zM11 30l83 11l254 654l37 14l270 -668l81 -11l-5 -31l-125 3l-136 -3l-5 31l89 13l-72 194h-250l-68 -194
l90 -13l-5 -31l-124 3l-109 -3zM465 281l-99 264l-8 53l-111 -317h218z" />
    <glyph glyph-name="Acircumflex" unicode="&#xc2;" horiz-adv-x="747" 
d="M333 898h78l105 -132h-50l-83 67l-12 12l-10 -12l-83 -67h-50zM11 30l83 11l254 654l37 14l270 -668l81 -11l-5 -31l-125 3l-136 -3l-5 31l89 13l-72 194h-250l-68 -194l90 -13l-5 -31l-124 3l-109 -3zM465 281l-99 264l-8 53l-111 -317h218z" />
    <glyph glyph-name="Adieresis" unicode="&#xc4;" horiz-adv-x="747" 
d="M223 784l-5 46l8 37l56 5l24 -5l4 -44l-9 -39l-55 -4zM438 784l-4 46l8 37l56 5l23 -5l5 -44l-9 -39l-55 -4zM11 30l83 11l254 654l37 14l270 -668l81 -11l-5 -31l-125 3l-136 -3l-5 31l89 13l-72 194h-250l-68 -194l90 -13l-5 -31l-124 3l-109 -3zM465 281l-99 264
l-8 53l-111 -317h218z" />
    <glyph glyph-name="AE" unicode="&#xc6;" horiz-adv-x="1002" 
d="M5 30l82 11l426 660l57 -3l371 3l10 -179h-31l-54 133l-252 3v-303l123 4l40 105h32l-10 -121l10 -133h-32l-40 104l-123 4v-276l262 3l66 138h35l-35 -184l-370 3l-138 -3l-5 31l94 13v273h-199l-167 -273l79 -13l-5 -31l-112 3l-109 -3zM523 354v298l-177 -298h177z
" />
    <glyph glyph-name="AEacute" unicode="&#x1fc;" horiz-adv-x="1002" 
d="M721 898h100l-121 -132h-52zM5 30l82 11l426 660l57 -3l371 3l10 -179h-31l-54 133l-252 3v-303l123 4l40 105h32l-10 -121l10 -133h-32l-40 104l-123 4v-276l262 3l66 138h35l-35 -184l-370 3l-138 -3l-5 31l94 13v273h-199l-167 -273l79 -13l-5 -31l-112 3l-109 -3z
M523 354v298l-177 -298h177z" />
    <glyph glyph-name="Agrave" unicode="&#xc0;" horiz-adv-x="747" 
d="M238 898h100l72 -132h-52zM11 30l83 11l254 654l37 14l270 -668l81 -11l-5 -31l-125 3l-136 -3l-5 31l89 13l-72 194h-250l-68 -194l90 -13l-5 -31l-124 3l-109 -3zM465 281l-99 264l-8 53l-111 -317h218z" />
    <glyph glyph-name="Amacron" unicode="&#x100;" horiz-adv-x="747" 
d="M234 852h276v-50h-276v50zM11 30l83 11l254 654l37 14l270 -668l81 -11l-5 -31l-125 3l-136 -3l-5 31l89 13l-72 194h-250l-68 -194l90 -13l-5 -31l-124 3l-109 -3zM465 281l-99 264l-8 53l-111 -317h218z" />
    <glyph glyph-name="Aogonek" unicode="&#x104;" horiz-adv-x="747" 
d="M521 -100v-45q0 -40 28 -55t75 -15v-30q-98 0 -141.5 26.5t-43.5 81.5v38l123 118l-80 218h-250l-68 -194l90 -13l-5 -31l-124 3l-109 -3l-5 31l83 11l254 654l37 14l270 -668l81 -11l-5 -31l-143 3zM465 281l-99 264l-8 53l-111 -317h218z" />
    <glyph glyph-name="Aring" unicode="&#xc5;" horiz-adv-x="747" 
d="M302.5 749q-29.5 22 -29.5 65q0 40 25.5 59t73.5 32q38 0 68.5 -22t30.5 -64q0 -39 -26 -58t-74 -34q-39 0 -68.5 22zM413 775q16 16 16 41q0 26 -16 41.5t-42 15.5t-41.5 -15.5t-15.5 -41.5q0 -25 16 -41t41 -16q26 0 42 16zM11 30l83 11l254 654l37 14l270 -668l81 -11
l-5 -31l-125 3l-136 -3l-5 31l89 13l-72 194h-250l-68 -194l90 -13l-5 -31l-124 3l-109 -3zM465 281l-99 264l-8 53l-111 -317h218z" />
    <glyph glyph-name="Atilde" unicode="&#xc3;" horiz-adv-x="747" 
d="M246 860l75 22l149 -50l37 54h22l-22 -89l-76 -23l-148 50l-38 -54h-22zM11 30l83 11l254 654l37 14l270 -668l81 -11l-5 -31l-125 3l-136 -3l-5 31l89 13l-72 194h-250l-68 -194l90 -13l-5 -31l-124 3l-109 -3zM465 281l-99 264l-8 53l-111 -317h218z" />
    <glyph glyph-name="Cacute" unicode="&#x106;" horiz-adv-x="703" 
d="M447 898h100l-121 -132h-52zM222.5 24.5q-81.5 42.5 -131 124.5t-49.5 194q0 167 100 260.5t270 114.5q71 0 136.5 -25.5t104.5 -56.5v-123h-51l-32 92q-25 25 -70 45.5t-100 20.5q-120 0 -190 -79.5t-70 -226.5q0 -82 34.5 -158.5t100.5 -125t155 -48.5q61 0 127 52
l56 109h51l-28 -132q-46 -23 -116 -47.5t-122 -32.5q-94 0 -175.5 42.5z" />
    <glyph glyph-name="Ccaron" unicode="&#x10c;" horiz-adv-x="703" 
d="M259 898h50l83 -66l10 -13l11 13l83 66h50l-104 -132h-79zM222.5 24.5q-81.5 42.5 -131 124.5t-49.5 194q0 167 100 260.5t270 114.5q71 0 136.5 -25.5t104.5 -56.5v-123h-51l-32 92q-25 25 -70 45.5t-100 20.5q-120 0 -190 -79.5t-70 -226.5q0 -82 34.5 -158.5
t100.5 -125t155 -48.5q61 0 127 52l56 109h51l-28 -132q-46 -23 -116 -47.5t-122 -32.5q-94 0 -175.5 42.5z" />
    <glyph glyph-name="Ccedilla" unicode="&#xc7;" horiz-adv-x="703" 
d="M522.5 15q-67.5 -24 -118.5 -32l-21 -30q33 -2 57 -23.5t24 -56.5q0 -39 -27 -65.5t-60 -36.5l-51 -16h-57l29 38h76q15 9 23 26.5t8 35.5q0 32 -25.5 47.5t-58.5 15.5l48 65q-88 7 -162.5 51t-119.5 123t-45 186q0 167 100 260.5t270 114.5q71 0 136.5 -25.5
t104.5 -56.5v-123h-51l-32 92q-25 25 -70 45.5t-100 20.5q-120 0 -190 -79.5t-70 -226.5q0 -82 34.5 -158.5t100.5 -125t155 -48.5q61 0 127 52l56 109h51l-28 -132q-46 -23 -113.5 -47z" />
    <glyph glyph-name="Ccircumflex" unicode="&#x108;" horiz-adv-x="703" 
d="M364 898h78l105 -132h-50l-83 67l-12 12l-10 -12l-83 -67h-50zM222.5 24.5q-81.5 42.5 -131 124.5t-49.5 194q0 167 100 260.5t270 114.5q71 0 136.5 -25.5t104.5 -56.5v-123h-51l-32 92q-25 25 -70 45.5t-100 20.5q-120 0 -190 -79.5t-70 -226.5q0 -82 34.5 -158.5
t100.5 -125t155 -48.5q61 0 127 52l56 109h51l-28 -132q-46 -23 -116 -47.5t-122 -32.5q-94 0 -175.5 42.5z" />
    <glyph glyph-name="Cdotaccent" unicode="&#x10a;" horiz-adv-x="703" 
d="M351 775l-5 53l9 46l72 5l23 -5l5 -53l-11 -46l-72 -5zM222.5 24.5q-81.5 42.5 -131 124.5t-49.5 194q0 167 100 260.5t270 114.5q71 0 136.5 -25.5t104.5 -56.5v-123h-51l-32 92q-25 25 -70 45.5t-100 20.5q-120 0 -190 -79.5t-70 -226.5q0 -82 34.5 -158.5t100.5 -125
t155 -48.5q61 0 127 52l56 109h51l-28 -132q-46 -23 -116 -47.5t-122 -32.5q-94 0 -175.5 42.5z" />
    <glyph glyph-name="Dcaron" unicode="&#x10e;" horiz-adv-x="732" 
d="M182 898h50l83 -66l10 -13l11 13l83 66h50l-104 -132h-79zM30 30l94 13v614l-94 13l5 31l138 -3l191 3q152 1 239 -85.5t87 -245.5q0 -165 -85.5 -258t-252.5 -113l-178 3l-139 -3zM472.5 81.5q55.5 38.5 86.5 109.5t31 167q0 85 -30.5 153.5t-92.5 108.5t-151 41
l-103 -5v-604l132 -10q72 1 127.5 39.5z" />
    <glyph glyph-name="Dcroat" unicode="&#x110;" horiz-adv-x="732" 
d="M603 615.5q87 -86.5 87 -245.5q0 -165 -85.5 -258t-252.5 -113l-178 3l-139 -3l-5 31l94 13v302h-83v36h83v276l-94 13l5 31l138 -3l191 3q152 1 239 -85.5zM472.5 81.5q55.5 38.5 86.5 109.5t31 167q0 85 -30.5 153.5t-92.5 108.5t-151 41l-103 -5v-275h130v-36h-130
v-293l132 -10q72 1 127.5 39.5z" />
    <glyph glyph-name="Eacute" unicode="&#xc9;" horiz-adv-x="625" 
d="M383 898h100l-121 -132h-52zM30 30l94 13v614l-94 13l5 31l138 -3l389 3l9 -176h-28l-55 130l-275 3v-273l148 4l40 105h30l-10 -121l10 -133h-30l-40 104l-148 4v-306l285 3l67 135h33l-36 -181l-389 3l-138 -3z" />
    <glyph glyph-name="Ebreve" unicode="&#x114;" horiz-adv-x="625" 
d="M287.5 769.5q-28.5 17.5 -45 39t-36.5 54.5l25 18q23 -32 46 -51.5t62 -19.5t65 20.5t47 50.5l21 -18q-4 -6 -16.5 -28.5t-37 -44.5t-64.5 -38q-38 0 -66.5 17.5zM30 30l94 13v614l-94 13l5 31l138 -3l389 3l9 -176h-28l-55 130l-275 3v-273l148 4l40 105h30l-10 -121
l10 -133h-30l-40 104l-148 4v-306l285 3l67 135h33l-36 -181l-389 3l-138 -3z" />
    <glyph glyph-name="Ecaron" unicode="&#x11a;" horiz-adv-x="625" 
d="M195 898h50l83 -66l10 -13l11 13l83 66h50l-104 -132h-79zM30 30l94 13v614l-94 13l5 31l138 -3l389 3l9 -176h-28l-55 130l-275 3v-273l148 4l40 105h30l-10 -121l10 -133h-30l-40 104l-148 4v-306l285 3l67 135h33l-36 -181l-389 3l-138 -3z" />
    <glyph glyph-name="Ecircumflex" unicode="&#xca;" horiz-adv-x="625" 
d="M300 898h78l105 -132h-50l-83 67l-12 12l-10 -12l-83 -67h-50zM30 30l94 13v614l-94 13l5 31l138 -3l389 3l9 -176h-28l-55 130l-275 3v-273l148 4l40 105h30l-10 -121l10 -133h-30l-40 104l-148 4v-306l285 3l67 135h33l-36 -181l-389 3l-138 -3z" />
    <glyph glyph-name="Edieresis" unicode="&#xcb;" horiz-adv-x="625" 
d="M190 784l-5 46l8 37l56 5l24 -5l4 -44l-9 -39l-55 -4zM405 784l-4 46l8 37l56 5l23 -5l5 -44l-9 -39l-55 -4zM30 30l94 13v614l-94 13l5 31l138 -3l389 3l9 -176h-28l-55 130l-275 3v-273l148 4l40 105h30l-10 -121l10 -133h-30l-40 104l-148 4v-306l285 3l67 135h33
l-36 -181l-389 3l-138 -3z" />
    <glyph glyph-name="Edotaccent" unicode="&#x116;" horiz-adv-x="625" 
d="M289 775l-5 53l9 46l72 5l23 -5l5 -53l-11 -46l-72 -5zM30 30l94 13v614l-94 13l5 31l138 -3l389 3l9 -176h-28l-55 130l-275 3v-273l148 4l40 105h30l-10 -121l10 -133h-30l-40 104l-148 4v-306l285 3l67 135h33l-36 -181l-389 3l-138 -3z" />
    <glyph glyph-name="Egrave" unicode="&#xc8;" horiz-adv-x="625" 
d="M205 898h100l72 -132h-52zM30 30l94 13v614l-94 13l5 31l138 -3l389 3l9 -176h-28l-55 130l-275 3v-273l148 4l40 105h30l-10 -121l10 -133h-30l-40 104l-148 4v-306l285 3l67 135h33l-36 -181l-389 3l-138 -3z" />
    <glyph glyph-name="Emacron" unicode="&#x112;" horiz-adv-x="625" 
d="M201 852h276v-50h-276v50zM30 30l94 13v614l-94 13l5 31l138 -3l389 3l9 -176h-28l-55 130l-275 3v-273l148 4l40 105h30l-10 -121l10 -133h-30l-40 104l-148 4v-306l285 3l67 135h33l-36 -181l-389 3l-138 -3z" />
    <glyph glyph-name="Eogonek" unicode="&#x118;" horiz-adv-x="625" 
d="M437 -100v-45q0 -40 28 -55t75 -15v-30q-99 0 -142 26.5t-43 81.5v38l103 99l-285 2l-138 -3l-5 31l94 13v614l-94 13l5 31l138 -3l389 3l9 -176h-28l-55 130l-275 3v-273l148 4l40 105h30l-10 -121l10 -133h-30l-40 104l-148 4v-306l285 3l67 135h33l-36 -181h-60z" />
    <glyph glyph-name="Eth" unicode="&#xd0;" horiz-adv-x="732" 
d="M603 615.5q87 -86.5 87 -245.5q0 -165 -85.5 -258t-252.5 -113l-178 3l-139 -3l-5 31l94 13v302h-83v36h83v276l-94 13l5 31l138 -3l191 3q152 1 239 -85.5zM472.5 81.5q55.5 38.5 86.5 109.5t31 167q0 85 -30.5 153.5t-92.5 108.5t-151 41l-103 -5v-275h130v-36h-130
v-293l132 -10q72 1 127.5 39.5z" />
    <glyph glyph-name="Gbreve" unicode="&#x11e;" horiz-adv-x="742" 
d="M359.5 769.5q-28.5 17.5 -45 39t-36.5 54.5l25 18q23 -32 46 -51.5t62 -19.5t65 20.5t47 50.5l21 -18q-4 -6 -16.5 -28.5t-37 -44.5t-64.5 -38q-38 0 -66.5 17.5zM215 24q-79 42 -126 124t-47 196q0 165 95 256.5t265 117.5q73 0 142.5 -26t104.5 -55v-124h-44l-32 88
q-28 27 -75 48.5t-109 21.5q-75 0 -131 -36.5t-87 -105.5t-31 -164q0 -84 35 -160.5t98.5 -124t144.5 -47.5q44 0 81 18.5t59 40.5v192l-90 13l5 30l130 -3l108 3l4 -30l-68 -13v-224q-76 -27 -141.5 -48t-117.5 -30q-94 0 -173 42z" />
    <glyph glyph-name="Gcircumflex" unicode="&#x11c;" horiz-adv-x="742" 
d="M372 898h78l105 -132h-50l-83 67l-12 12l-10 -12l-83 -67h-50zM215 24q-79 42 -126 124t-47 196q0 165 95 256.5t265 117.5q73 0 142.5 -26t104.5 -55v-124h-44l-32 88q-28 27 -75 48.5t-109 21.5q-75 0 -131 -36.5t-87 -105.5t-31 -164q0 -84 35 -160.5t98.5 -124
t144.5 -47.5q44 0 81 18.5t59 40.5v192l-90 13l5 30l130 -3l108 3l4 -30l-68 -13v-224q-76 -27 -141.5 -48t-117.5 -30q-94 0 -173 42z" />
    <glyph glyph-name="Gcommaaccent" unicode="&#x122;" horiz-adv-x="742" 
d="M215 24q-79 42 -126 124t-47 196q0 165 95 256.5t265 117.5q73 0 142.5 -26t104.5 -55v-124h-44l-32 88q-28 27 -75 48.5t-109 21.5q-75 0 -131 -36.5t-87 -105.5t-31 -164q0 -84 35 -160.5t98.5 -124t144.5 -47.5q44 0 81 18.5t59 40.5v192l-90 13l5 30l130 -3l108 3
l4 -30l-68 -13v-224q-76 -27 -141.5 -48t-117.5 -30q-94 0 -173 42zM359 -226l23 101l-23 35v40h89v-80l-66 -106z" />
    <glyph glyph-name="Gdotaccent" unicode="&#x120;" horiz-adv-x="742" 
d="M361 775l-5 53l9 46l72 5l23 -5l5 -53l-11 -46l-72 -5zM215 24q-79 42 -126 124t-47 196q0 165 95 256.5t265 117.5q73 0 142.5 -26t104.5 -55v-124h-44l-32 88q-28 27 -75 48.5t-109 21.5q-75 0 -131 -36.5t-87 -105.5t-31 -164q0 -84 35 -160.5t98.5 -124t144.5 -47.5
q44 0 81 18.5t59 40.5v192l-90 13l5 30l130 -3l108 3l4 -30l-68 -13v-224q-76 -27 -141.5 -48t-117.5 -30q-94 0 -173 42z" />
    <glyph glyph-name="Hbar" unicode="&#x126;" horiz-adv-x="756" 
d="M638 43l88 -13l-5 -31l-127 3l-136 -3l-5 31l96 13v297h-336v-297l90 -13l-5 -31l-129 3l-134 -3l-5 31l94 13v614l-94 13l5 31l134 -3l129 3l5 -31l-90 -13v-149h336v149l-96 13l5 31l136 -3l127 3l5 -31l-88 -13v-614zM549 386v84h-336v-84h336z" />
    <glyph glyph-name="Hcircumflex" unicode="&#x124;" horiz-adv-x="756" 
d="M339 898h78l105 -132h-50l-83 67l-12 12l-10 -12l-83 -67h-50zM30 30l94 13v614l-94 13l5 31l134 -3l129 3l5 -31l-90 -13v-271h336v271l-96 13l5 31l136 -3l127 3l5 -31l-88 -13v-614l88 -13l-5 -31l-127 3l-136 -3l-5 31l96 13v297h-336v-297l90 -13l-5 -31l-129 3
l-134 -3z" />
    <glyph glyph-name="Iacute" unicode="&#xcd;" horiz-adv-x="337" 
d="M213 898h100l-121 -132h-52zM30 31l94 13v613l-94 13l5 31l134 -3l133 3l5 -31l-94 -13v-613l94 -13l-5 -32l-133 3l-134 -3z" />
    <glyph glyph-name="Ibreve" unicode="&#x12c;" horiz-adv-x="337" 
d="M117.5 769.5q-28.5 17.5 -45 39t-36.5 54.5l25 18q23 -32 46 -51.5t62 -19.5t65 20.5t47 50.5l21 -18q-4 -6 -16.5 -28.5t-37 -44.5t-64.5 -38q-38 0 -66.5 17.5zM30 31l94 13v613l-94 13l5 31l134 -3l133 3l5 -31l-94 -13v-613l94 -13l-5 -32l-133 3l-134 -3z" />
    <glyph glyph-name="Icircumflex" unicode="&#xce;" horiz-adv-x="337" 
d="M130 898h78l105 -132h-50l-83 67l-12 12l-10 -12l-83 -67h-50zM30 31l94 13v613l-94 13l5 31l134 -3l133 3l5 -31l-94 -13v-613l94 -13l-5 -32l-133 3l-134 -3z" />
    <glyph glyph-name="Idieresis" unicode="&#xcf;" horiz-adv-x="337" 
d="M20 784l-5 46l8 37l56 5l24 -5l4 -44l-9 -39l-55 -4zM235 784l-4 46l8 37l56 5l23 -5l5 -44l-9 -39l-55 -4zM30 31l94 13v613l-94 13l5 31l134 -3l133 3l5 -31l-94 -13v-613l94 -13l-5 -32l-133 3l-134 -3z" />
    <glyph glyph-name="Idotaccent" unicode="&#x130;" horiz-adv-x="337" 
d="M119 775l-5 53l9 46l72 5l23 -5l5 -53l-11 -46l-72 -5zM30 31l94 13v613l-94 13l5 31l134 -3l133 3l5 -31l-94 -13v-613l94 -13l-5 -32l-133 3l-134 -3z" />
    <glyph glyph-name="Igrave" unicode="&#xcc;" horiz-adv-x="337" 
d="M35 898h100l72 -132h-52zM30 31l94 13v613l-94 13l5 31l134 -3l133 3l5 -31l-94 -13v-613l94 -13l-5 -32l-133 3l-134 -3z" />
    <glyph glyph-name="IJ" unicode="&#x132;" horiz-adv-x="667" 
d="M30 31l94 13v613l-94 13l5 31l134 -3l133 3l5 -31l-94 -13v-613l94 -13l-5 -32l-133 3l-134 -3zM336 -95h102l9 21q11 26 14 57t3 112v562l-110 13l5 31l150 -3l128 3l5 -31l-89 -13v-570l1 -67q0 -26 -5 -43t-20 -34l-106 -118h-87v80z" />
    <glyph glyph-name="Jacute" horiz-adv-x="330" 
d="M209 898h100l-121 -132h-52zM-1 -95h102l9 21q11 26 14 57t3 112v562l-110 13l5 31l150 -3l128 3l5 -31l-89 -13v-570l1 -67q0 -26 -5 -43t-20 -34l-106 -118h-87v80z" />
    <glyph glyph-name="Imacron" unicode="&#x12a;" horiz-adv-x="337" 
d="M31 852h276v-50h-276v50zM30 31l94 13v613l-94 13l5 31l134 -3l133 3l5 -31l-94 -13v-613l94 -13l-5 -32l-133 3l-134 -3z" />
    <glyph glyph-name="Iogonek" unicode="&#x12e;" horiz-adv-x="337" 
d="M213 44l94 -13l-5 -32l-120 3l-67 -102v-45q0 -40 28 -55t75 -15v-30q-98 0 -141.5 26.5t-43.5 81.5v38l104 100l-102 -2l-5 32l94 13v613l-94 13l5 31l134 -3l133 3l5 -31l-94 -13v-613z" />
    <glyph glyph-name="Itilde" unicode="&#x128;" horiz-adv-x="337" 
d="M43 860l75 22l149 -50l37 54h22l-22 -89l-76 -23l-148 50l-38 -54h-22zM30 31l94 13v613l-94 13l5 31l134 -3l133 3l5 -31l-94 -13v-613l94 -13l-5 -32l-133 3l-134 -3z" />
    <glyph glyph-name="Jcircumflex" unicode="&#x134;" horiz-adv-x="330" 
d="M126 898h78l105 -132h-50l-83 67l-12 12l-10 -12l-83 -67h-50zM-1 -95h102l9 21q11 26 14 57t3 112v562l-110 13l5 31l150 -3l128 3l5 -31l-89 -13v-570l1 -67q0 -26 -5 -43t-20 -34l-106 -118h-87v80z" />
    <glyph glyph-name="Kcommaaccent" unicode="&#x136;" horiz-adv-x="692" 
d="M30 30l94 13v614l-94 13l5 31l134 -3l116 3l5 -31l-77 -13v-285l27 15l281 270l-73 13l5 31l104 -3l94 3l5 -31l-78 -16l-281 -277l19 -13l312 -325l53 -9l-5 -31l-85 3l-66 -3l-298 329l-14 26v-311l77 -13l-5 -31l-116 3l-134 -3zM303 -226l23 101l-23 35v40h89v-80
l-66 -106z" />
    <glyph glyph-name="Lacute" unicode="&#x139;" horiz-adv-x="584" 
d="M226 898h100l-121 -132h-52zM30 30l94 13v614l-94 13l5 31l138 -3l129 3l5 -31l-94 -13v-615l259 3l63 133h35l-34 -179l-363 3l-138 -3z" />
    <glyph glyph-name="Lcaron" unicode="&#x13d;" horiz-adv-x="591" 
d="M478 483q13 29 24 67t11 56l-36 4l-5 52l5 44l67 4l29 -4l4 -51l-4 -45l-62 -140zM30 30l94 13v614l-94 13l5 31l138 -3l129 3l5 -31l-94 -13v-615l259 3l63 133h35l-34 -179l-363 3l-138 -3z" />
    <glyph glyph-name="Lcommaaccent" unicode="&#x13b;" horiz-adv-x="584" 
d="M30 30l94 13v614l-94 13l5 31l138 -3l129 3l5 -31l-94 -13v-615l259 3l63 133h35l-34 -179l-363 3l-138 -3zM279 -226l23 101l-23 35v40h89v-80l-66 -106z" />
    <glyph glyph-name="Ldot" unicode="&#x13f;" horiz-adv-x="584" 
d="M30 30l94 13v614l-94 13l5 31l138 -3l129 3l5 -31l-94 -13v-615l259 3l63 133h35l-34 -179l-363 3l-138 -3zM299 354l-5 53l5 45l69 4l29 -4l4 -53l-4 -45l-70 -5z" />
    <glyph glyph-name="Lslash" unicode="&#x141;" horiz-adv-x="584" 
d="M570 178l-34 -179l-363 3l-138 -3l-5 31l94 13v299l-94 -46v44l94 46v271l-94 13l5 31l138 -3l129 3l5 -31l-94 -13v-227l91 45v-44l-91 -45v-344l259 3l63 133h35z" />
    <glyph glyph-name="Nacute" unicode="&#x143;" horiz-adv-x="744" 
d="M416 898h100l-121 -132h-52zM200 561l-15 61v-579l89 -13l-6 -31l-106 3l-127 -3l-5 31l94 13v605l-89 22l5 31l96 -3l65 3l359 -523l19 -50v529l-88 13l5 31l107 -3l126 3l5 -31l-94 -13v-659h-59z" />
    <glyph glyph-name="Ncaron" unicode="&#x147;" horiz-adv-x="744" 
d="M228 898h50l83 -66l10 -13l11 13l83 66h50l-104 -132h-79zM200 561l-15 61v-579l89 -13l-6 -31l-106 3l-127 -3l-5 31l94 13v605l-89 22l5 31l96 -3l65 3l359 -523l19 -50v529l-88 13l5 31l107 -3l126 3l5 -31l-94 -13v-659h-59z" />
    <glyph glyph-name="Ncommaaccent" unicode="&#x145;" horiz-adv-x="744" 
d="M200 561l-15 61v-579l89 -13l-6 -31l-106 3l-127 -3l-5 31l94 13v605l-89 22l5 31l96 -3l65 3l359 -523l19 -50v529l-88 13l5 31l107 -3l126 3l5 -31l-94 -13v-659h-59zM329 -226l23 101l-23 35v40h89v-80l-66 -106z" />
    <glyph glyph-name="Ntilde" unicode="&#xd1;" horiz-adv-x="744" 
d="M246 860l75 22l149 -50l37 54h22l-22 -89l-76 -23l-148 50l-38 -54h-22zM200 561l-15 61v-579l89 -13l-6 -31l-106 3l-127 -3l-5 31l94 13v605l-89 22l5 31l96 -3l65 3l359 -523l19 -50v529l-88 13l5 31l107 -3l126 3l5 -31l-94 -13v-659h-59z" />
    <glyph glyph-name="Eng" unicode="&#x14a;" horiz-adv-x="744" 
d="M426 -156h71l67 131l32 23h-17l-379 563l-15 67v-585l85 -13l-5 -31l-105 3l-125 -3l-5 31l94 13v605l-90 22l5 31l97 -3l67 3l357 -523l19 -55v534l-89 13l5 31l109 -3l125 3l5 -31l-94 -13v-659l-94 -233h-120v79z" />
    <glyph glyph-name="Oacute" unicode="&#xd3;" horiz-adv-x="771" 
d="M430 898h100l-121 -132h-52zM203 28q-76 46 -118.5 126.5t-42.5 181.5q0 165 87 259t266 123q97 0 173 -46t118.5 -126.5t42.5 -181.5q0 -165 -87 -259t-266 -123q-97 0 -173 46zM573 117.5q58 84.5 58 214.5q0 80 -26 156.5t-84.5 127.5t-149.5 51q-115 0 -173 -84.5
t-58 -214.5q0 -81 26.5 -157.5t85 -127t149.5 -50.5q114 0 172 84.5z" />
    <glyph glyph-name="Obreve" unicode="&#x14e;" horiz-adv-x="771" 
d="M334.5 769.5q-28.5 17.5 -45 39t-36.5 54.5l25 18q23 -32 46 -51.5t62 -19.5t65 20.5t47 50.5l21 -18q-4 -6 -16.5 -28.5t-37 -44.5t-64.5 -38q-38 0 -66.5 17.5zM203 28q-76 46 -118.5 126.5t-42.5 181.5q0 165 87 259t266 123q97 0 173 -46t118.5 -126.5t42.5 -181.5
q0 -165 -87 -259t-266 -123q-97 0 -173 46zM573 117.5q58 84.5 58 214.5q0 80 -26 156.5t-84.5 127.5t-149.5 51q-115 0 -173 -84.5t-58 -214.5q0 -81 26.5 -157.5t85 -127t149.5 -50.5q114 0 172 84.5z" />
    <glyph glyph-name="Ocircumflex" unicode="&#xd4;" horiz-adv-x="771" 
d="M347 898h78l105 -132h-50l-83 67l-12 12l-10 -12l-83 -67h-50zM203 28q-76 46 -118.5 126.5t-42.5 181.5q0 165 87 259t266 123q97 0 173 -46t118.5 -126.5t42.5 -181.5q0 -165 -87 -259t-266 -123q-97 0 -173 46zM573 117.5q58 84.5 58 214.5q0 80 -26 156.5
t-84.5 127.5t-149.5 51q-115 0 -173 -84.5t-58 -214.5q0 -81 26.5 -157.5t85 -127t149.5 -50.5q114 0 172 84.5z" />
    <glyph glyph-name="Odieresis" unicode="&#xd6;" horiz-adv-x="771" 
d="M237 784l-5 46l8 37l56 5l24 -5l4 -44l-9 -39l-55 -4zM452 784l-4 46l8 37l56 5l23 -5l5 -44l-9 -39l-55 -4zM203 28q-76 46 -118.5 126.5t-42.5 181.5q0 165 87 259t266 123q97 0 173 -46t118.5 -126.5t42.5 -181.5q0 -165 -87 -259t-266 -123q-97 0 -173 46zM573 117.5
q58 84.5 58 214.5q0 80 -26 156.5t-84.5 127.5t-149.5 51q-115 0 -173 -84.5t-58 -214.5q0 -81 26.5 -157.5t85 -127t149.5 -50.5q114 0 172 84.5z" />
    <glyph glyph-name="OE" unicode="&#x152;" horiz-adv-x="945" 
d="M203.5 36.5q-76.5 44.5 -119 123t-42.5 176.5q0 111 34.5 184t111.5 118.5t208 69.5l125 -9l367 2l9 -179h-30l-55 133l-257 3v-273l123 4l40 105h32l-10 -121l10 -133h-32l-40 104l-123 4v-306l262 3l66 139h35l-35 -185l-368 2l-138 -9q-97 0 -173.5 44.5zM466 653
l-101 3q-109 0 -166.5 -78.5t-57.5 -211.5q0 -87 35 -161t96 -117.5t136 -43.5l58 -5v614z" />
    <glyph glyph-name="Ograve" unicode="&#xd2;" horiz-adv-x="771" 
d="M252 898h100l72 -132h-52zM203 28q-76 46 -118.5 126.5t-42.5 181.5q0 165 87 259t266 123q97 0 173 -46t118.5 -126.5t42.5 -181.5q0 -165 -87 -259t-266 -123q-97 0 -173 46zM573 117.5q58 84.5 58 214.5q0 80 -26 156.5t-84.5 127.5t-149.5 51q-115 0 -173 -84.5
t-58 -214.5q0 -81 26.5 -157.5t85 -127t149.5 -50.5q114 0 172 84.5z" />
    <glyph glyph-name="Ohungarumlaut" unicode="&#x150;" horiz-adv-x="771" 
d="M203 28q-76 46 -118.5 126.5t-42.5 181.5q0 165 87 259t266 123q97 0 173 -46t118.5 -126.5t42.5 -181.5q0 -165 -87 -259t-266 -123q-97 0 -173 46zM573 117.5q58 84.5 58 214.5q0 80 -26 156.5t-84.5 127.5t-149.5 51q-115 0 -173 -84.5t-58 -214.5q0 -81 26.5 -157.5
t85 -127t149.5 -50.5q114 0 172 84.5zM369 898h100l-120 -132h-52zM523 898h100l-121 -132h-52z" />
    <glyph glyph-name="Omacron" unicode="&#x14c;" horiz-adv-x="771" 
d="M248 852h276v-50h-276v50zM203 28q-76 46 -118.5 126.5t-42.5 181.5q0 165 87 259t266 123q97 0 173 -46t118.5 -126.5t42.5 -181.5q0 -165 -87 -259t-266 -123q-97 0 -173 46zM573 117.5q58 84.5 58 214.5q0 80 -26 156.5t-84.5 127.5t-149.5 51q-115 0 -173 -84.5
t-58 -214.5q0 -81 26.5 -157.5t85 -127t149.5 -50.5q114 0 172 84.5z" />
    <glyph glyph-name="Oslash" unicode="&#xd8;" horiz-adv-x="771" 
d="M701.5 513q27.5 -69 27.5 -149q0 -165 -87 -259t-266 -123q-113 0 -197 62l-44 -59h-52l65 85q-51 49 -78.5 117t-27.5 149q0 165 87 259t266 123q112 0 198 -62l45 59h50l-65 -85q51 -48 78.5 -117zM155 247q15 -60 46 -107l344 452q-68 75 -174 75q-115 0 -173 -84.5
t-58 -214.5q0 -61 15 -121zM573 117.5q58 84.5 58 214.5q0 61 -15 120.5t-46 106.5l-343 -452q67 -74 174 -74q114 0 172 84.5z" />
    <glyph glyph-name="Oslashacute" unicode="&#x1fe;" horiz-adv-x="771" 
d="M409 766h-52l73 132h100zM701.5 513q27.5 -69 27.5 -149q0 -165 -87 -259t-266 -123q-113 0 -197 62l-44 -59h-52l65 85q-51 49 -78.5 117t-27.5 149q0 165 87 259t266 123q112 0 198 -62l45 59h50l-65 -85q51 -48 78.5 -117zM155 247q15 -60 46 -107l344 452
q-68 75 -174 75q-115 0 -173 -84.5t-58 -214.5q0 -61 15 -121zM573 117.5q58 84.5 58 214.5q0 61 -15 120.5t-46 106.5l-343 -452q67 -74 174 -74q114 0 172 84.5z" />
    <glyph glyph-name="Otilde" unicode="&#xd5;" horiz-adv-x="771" 
d="M260 860l75 22l149 -50l37 54h22l-22 -89l-76 -23l-148 50l-38 -54h-22zM203 28q-76 46 -118.5 126.5t-42.5 181.5q0 165 87 259t266 123q97 0 173 -46t118.5 -126.5t42.5 -181.5q0 -165 -87 -259t-266 -123q-97 0 -173 46zM573 117.5q58 84.5 58 214.5q0 80 -26 156.5
t-84.5 127.5t-149.5 51q-115 0 -173 -84.5t-58 -214.5q0 -81 26.5 -157.5t85 -127t149.5 -50.5q114 0 172 84.5z" />
    <glyph glyph-name="Racute" unicode="&#x154;" horiz-adv-x="670" 
d="M328 766h-52l73 132h100zM665 28l-4 -29l-73 3l-66 -3l-218 312l-11 11h-80v-279l88 -13l-5 -31l-127 3l-134 -3l-5 31l94 13v614l-94 13l5 31l135 -3l168 3q106 1 171 -42.5t65 -131.5q0 -145 -201 -199l57 -38l179 -248zM213 363h72q57 0 99.5 20.5t65.5 56t23 80.5
q0 68 -42.5 104t-109.5 37l-108 -5v-293z" />
    <glyph glyph-name="Rcaron" unicode="&#x158;" horiz-adv-x="670" 
d="M265 766l-104 132h50l83 -66l10 -13l11 13l83 66h50l-104 -132h-79zM665 28l-4 -29l-73 3l-66 -3l-218 312l-11 11h-80v-279l88 -13l-5 -31l-127 3l-134 -3l-5 31l94 13v614l-94 13l5 31l135 -3l168 3q106 1 171 -42.5t65 -131.5q0 -145 -201 -199l57 -38l179 -248z
M213 363h72q57 0 99.5 20.5t65.5 56t23 80.5q0 68 -42.5 104t-109.5 37l-108 -5v-293z" />
    <glyph glyph-name="Rcommaaccent" unicode="&#x156;" horiz-adv-x="670" 
d="M665 28l-4 -29l-73 3l-66 -3l-218 312l-11 11h-80v-279l88 -13l-5 -31l-127 3l-134 -3l-5 31l94 13v614l-94 13l5 31l135 -3l168 3q106 1 171 -42.5t65 -131.5q0 -145 -201 -199l57 -38l179 -248zM213 363h72q57 0 99.5 20.5t65.5 56t23 80.5q0 68 -42.5 104t-109.5 37
l-108 -5v-293zM342 -226l23 101l-23 35v40h89v-80l-66 -106z" />
    <glyph glyph-name="Sacute" unicode="&#x15a;" horiz-adv-x="563" 
d="M353 898h100l-121 -132h-52zM154 -1q-48 17 -89 51l-22 126h65l35 -83q23 -28 62.5 -45t81.5 -17q67 0 105 38t38 97q0 52 -29.5 85t-79.5 54l-120 51q-60 25 -94.5 63t-34.5 99q0 80 64.5 129.5t167.5 70.5q46 0 92.5 -15.5t82.5 -42.5v-128h-43l-29 91q-22 23 -48.5 35
t-69.5 12q-61 0 -95.5 -31t-34.5 -86q0 -77 99 -119l110 -45q64 -26 105 -69t41 -116q0 -75 -56.5 -135.5t-187.5 -86.5q-68 0 -116 17z" />
    <glyph glyph-name="Scaron" unicode="&#x160;" horiz-adv-x="563" 
d="M165 898h50l83 -66l10 -13l11 13l83 66h50l-104 -132h-79zM154 -1q-48 17 -89 51l-22 126h65l35 -83q23 -28 62.5 -45t81.5 -17q67 0 105 38t38 97q0 52 -29.5 85t-79.5 54l-120 51q-60 25 -94.5 63t-34.5 99q0 80 64.5 129.5t167.5 70.5q46 0 92.5 -15.5t82.5 -42.5
v-128h-43l-29 91q-22 23 -48.5 35t-69.5 12q-61 0 -95.5 -31t-34.5 -86q0 -77 99 -119l110 -45q64 -26 105 -69t41 -116q0 -75 -56.5 -135.5t-187.5 -86.5q-68 0 -116 17z" />
    <glyph glyph-name="Scedilla" unicode="&#x15e;" horiz-adv-x="563" 
d="M466.5 77.5q-47.5 -57.5 -157.5 -86.5l-26 -38q33 -2 57 -23.5t24 -56.5q0 -39 -27 -65.5t-60 -36.5l-51 -16h-57l29 38h76q15 9 23 26.5t8 35.5q0 32 -25.5 47.5t-58.5 15.5l47 64q-68 0 -115 17t-88 51l-22 126h65l35 -83q23 -28 62.5 -45t81.5 -17q67 0 105 38t38 97
q0 52 -29.5 85t-79.5 54l-120 51q-60 25 -94.5 63t-34.5 99q0 80 64.5 129.5t167.5 70.5q46 0 92.5 -15.5t82.5 -42.5v-128h-43l-29 91q-22 23 -48.5 35t-69.5 12q-61 0 -95.5 -31t-34.5 -86q0 -77 99 -119l110 -45q64 -26 105 -69t41 -116q0 -69 -47.5 -126.5z" />
    <glyph glyph-name="Scircumflex" unicode="&#x15c;" horiz-adv-x="563" 
d="M270 898h78l105 -132h-50l-83 67l-12 12l-10 -12l-83 -67h-50zM154 -1q-48 17 -89 51l-22 126h65l35 -83q23 -28 62.5 -45t81.5 -17q67 0 105 38t38 97q0 52 -29.5 85t-79.5 54l-120 51q-60 25 -94.5 63t-34.5 99q0 80 64.5 129.5t167.5 70.5q46 0 92.5 -15.5t82.5 -42.5
v-128h-43l-29 91q-22 23 -48.5 35t-69.5 12q-61 0 -95.5 -31t-34.5 -86q0 -77 99 -119l110 -45q64 -26 105 -69t41 -116q0 -75 -56.5 -135.5t-187.5 -86.5q-68 0 -116 17z" />
    <glyph glyph-name="Scommaaccent" unicode="&#x218;" horiz-adv-x="563" 
d="M154 -1q-48 17 -89 51l-22 126h65l35 -83q23 -28 62.5 -45t81.5 -17q67 0 105 38t38 97q0 52 -29.5 85t-79.5 54l-120 51q-60 25 -94.5 63t-34.5 99q0 80 64.5 129.5t167.5 70.5q46 0 92.5 -15.5t82.5 -42.5v-128h-43l-29 91q-22 23 -48.5 35t-69.5 12q-61 0 -95.5 -31
t-34.5 -86q0 -77 99 -119l110 -45q64 -26 105 -69t41 -116q0 -75 -56.5 -135.5t-187.5 -86.5q-68 0 -116 17zM259 -226l23 101l-23 35v40h89v-80l-66 -106z" />
    <glyph glyph-name="Tbar" unicode="&#x166;" horiz-adv-x="597" 
d="M582 701v-169h-35l-45 123l-159 1v-184h103v-36h-103v-393l118 -13l-5 -31l-157 3l-164 -3l-5 31l124 13v393h-104v36h104v184l-159 -1l-45 -123h-35v169l281 -3z" />
    <glyph glyph-name="Tcaron" unicode="&#x164;" horiz-adv-x="597" 
d="M155 898h50l83 -66l10 -13l11 13l83 66h50l-104 -132h-79zM130 30l124 13v613l-159 -1l-45 -123h-35v169l281 -3l286 3v-169h-35l-45 123l-159 1v-613l118 -13l-5 -31l-157 3l-164 -3z" />
    <glyph glyph-name="uni0162" unicode="&#x162;" horiz-adv-x="597" 
d="M582 701v-169h-35l-45 123l-159 1v-613l118 -13l-5 -31l-152 3l-34 -49q33 -2 57 -23.5t24 -56.5q0 -39 -27 -65.5t-60 -36.5l-51 -16h-57l29 38h76q15 9 23 26.5t8 35.5q0 32 -25.5 47.5t-58.5 15.5l61 83l-134 -2l-5 31l124 13v613l-159 -1l-45 -123h-35v169l281 -3z
" />
    <glyph glyph-name="uni021A" unicode="&#x21a;" horiz-adv-x="597" 
d="M130 30l124 13v613l-159 -1l-45 -123h-35v169l281 -3l286 3v-169h-35l-45 123l-159 1v-613l118 -13l-5 -31l-157 3l-164 -3zM246 -226l23 101l-23 35v40h89v-80l-66 -106z" />
    <glyph glyph-name="Thorn" unicode="&#xde;" horiz-adv-x="598" 
d="M35 31l94 13v613l-94 13l5 31l134 -3l117 3l5 -31l-78 -13v-102l137 2q98 1 160 -45.5t62 -131.5q0 -93 -70 -148.5t-173 -74.5h-116v-113l114 -13l-5 -32l-153 3l-134 -3zM309 203q76 0 122.5 45.5t46.5 117.5q0 69 -37.5 110.5t-117.5 41.5l-105 -6v-309h91z" />
    <glyph glyph-name="Uacute" unicode="&#xda;" horiz-adv-x="717" 
d="M413 898h100l-121 -132h-52zM169 51.5q-60 69.5 -60 195.5v410l-94 13l5 31l139 -3l129 3l5 -31l-89 -13v-430q0 -197 170 -197q79 0 121.5 51.5t42.5 148.5v427l-92 13l5 31l128 -3l118 3l5 -31l-87 -13v-414q0 -69 -22.5 -118t-77.5 -85t-152 -58q-134 0 -194 69.5z
" />
    <glyph glyph-name="Ubreve" unicode="&#x16c;" horiz-adv-x="717" 
d="M317.5 769.5q-28.5 17.5 -45 39t-36.5 54.5l25 18q23 -32 46 -51.5t62 -19.5t65 20.5t47 50.5l21 -18q-4 -6 -16.5 -28.5t-37 -44.5t-64.5 -38q-38 0 -66.5 17.5zM169 51.5q-60 69.5 -60 195.5v410l-94 13l5 31l139 -3l129 3l5 -31l-89 -13v-430q0 -197 170 -197
q79 0 121.5 51.5t42.5 148.5v427l-92 13l5 31l128 -3l118 3l5 -31l-87 -13v-414q0 -69 -22.5 -118t-77.5 -85t-152 -58q-134 0 -194 69.5z" />
    <glyph glyph-name="Ucircumflex" unicode="&#xdb;" horiz-adv-x="717" 
d="M330 898h78l105 -132h-50l-83 67l-12 12l-10 -12l-83 -67h-50zM169 51.5q-60 69.5 -60 195.5v410l-94 13l5 31l139 -3l129 3l5 -31l-89 -13v-430q0 -197 170 -197q79 0 121.5 51.5t42.5 148.5v427l-92 13l5 31l128 -3l118 3l5 -31l-87 -13v-414q0 -69 -22.5 -118
t-77.5 -85t-152 -58q-134 0 -194 69.5z" />
    <glyph glyph-name="Udieresis" unicode="&#xdc;" horiz-adv-x="717" 
d="M220 784l-5 46l8 37l56 5l24 -5l4 -44l-9 -39l-55 -4zM435 784l-4 46l8 37l56 5l23 -5l5 -44l-9 -39l-55 -4zM169 51.5q-60 69.5 -60 195.5v410l-94 13l5 31l139 -3l129 3l5 -31l-89 -13v-430q0 -197 170 -197q79 0 121.5 51.5t42.5 148.5v427l-92 13l5 31l128 -3l118 3
l5 -31l-87 -13v-414q0 -69 -22.5 -118t-77.5 -85t-152 -58q-134 0 -194 69.5z" />
    <glyph glyph-name="Ugrave" unicode="&#xd9;" horiz-adv-x="717" 
d="M235 898h100l72 -132h-52zM169 51.5q-60 69.5 -60 195.5v410l-94 13l5 31l139 -3l129 3l5 -31l-89 -13v-430q0 -197 170 -197q79 0 121.5 51.5t42.5 148.5v427l-92 13l5 31l128 -3l118 3l5 -31l-87 -13v-414q0 -69 -22.5 -118t-77.5 -85t-152 -58q-134 0 -194 69.5z" />
    <glyph glyph-name="Uhungarumlaut" unicode="&#x170;" horiz-adv-x="717" 
d="M169 51.5q-60 69.5 -60 195.5v410l-94 13l5 31l139 -3l129 3l5 -31l-89 -13v-430q0 -197 170 -197q79 0 121.5 51.5t42.5 148.5v427l-92 13l5 31l128 -3l118 3l5 -31l-87 -13v-414q0 -69 -22.5 -118t-77.5 -85t-152 -58q-134 0 -194 69.5zM352 898h100l-120 -132h-52z
M506 898h100l-121 -132h-52z" />
    <glyph glyph-name="Umacron" unicode="&#x16a;" horiz-adv-x="717" 
d="M231 852h276v-50h-276v50zM169 51.5q-60 69.5 -60 195.5v410l-94 13l5 31l139 -3l129 3l5 -31l-89 -13v-430q0 -197 170 -197q79 0 121.5 51.5t42.5 148.5v427l-92 13l5 31l128 -3l118 3l5 -31l-87 -13v-414q0 -69 -22.5 -118t-77.5 -85t-152 -58q-134 0 -194 69.5z" />
    <glyph glyph-name="Uogonek" unicode="&#x172;" horiz-adv-x="717" 
d="M702 670l-87 -13v-414q0 -88 -38 -145t-134 -93l-69 -105v-45q0 -40 28 -55t75 -15v-30q-98 0 -141.5 26.5t-43.5 81.5v38l89 85l-18 -4q-134 0 -194 69.5t-60 195.5v410l-94 13l5 31l139 -3l129 3l5 -31l-89 -13v-430q0 -197 170 -197q79 0 121.5 51.5t42.5 148.5v427
l-92 13l5 31l128 -3l118 3z" />
    <glyph glyph-name="Uring" unicode="&#x16e;" horiz-adv-x="717" 
d="M299.5 749q-29.5 22 -29.5 65q0 40 25.5 59t73.5 32q38 0 68.5 -22t30.5 -64q0 -39 -26 -58t-74 -34q-39 0 -68.5 22zM410 775q16 16 16 41q0 26 -16 41.5t-42 15.5t-41.5 -15.5t-15.5 -41.5q0 -25 16 -41t41 -16q26 0 42 16zM169 51.5q-60 69.5 -60 195.5v410l-94 13
l5 31l139 -3l129 3l5 -31l-89 -13v-430q0 -197 170 -197q79 0 121.5 51.5t42.5 148.5v427l-92 13l5 31l128 -3l118 3l5 -31l-87 -13v-414q0 -69 -22.5 -118t-77.5 -85t-152 -58q-134 0 -194 69.5z" />
    <glyph glyph-name="Utilde" unicode="&#x168;" horiz-adv-x="717" 
d="M243 860l75 22l149 -50l37 54h22l-22 -89l-76 -23l-148 50l-38 -54h-22zM169 51.5q-60 69.5 -60 195.5v410l-94 13l5 31l139 -3l129 3l5 -31l-89 -13v-430q0 -197 170 -197q79 0 121.5 51.5t42.5 148.5v427l-92 13l5 31l128 -3l118 3l5 -31l-87 -13v-414
q0 -69 -22.5 -118t-77.5 -85t-152 -58q-134 0 -194 69.5z" />
    <glyph glyph-name="Wacute" unicode="&#x1e82;" horiz-adv-x="969" 
d="M529 898h100l-121 -132h-52zM68 659l-57 11l5 31l107 -3l123 3l5 -31l-89 -13l155 -512l3 -51l133 445l-40 120l-67 11l5 31l116 -3l124 3l5 -31l-89 -13l155 -512l2 -50l172 564l-88 11l5 31l119 -3l81 3l5 -31l-56 -11l-209 -649l-61 -24l-139 422l-3 56l-142 -454
l-61 -24z" />
    <glyph glyph-name="Wcircumflex" unicode="&#x174;" horiz-adv-x="969" 
d="M446 898h78l105 -132h-50l-83 67l-12 12l-10 -12l-83 -67h-50zM68 659l-57 11l5 31l107 -3l123 3l5 -31l-89 -13l155 -512l3 -51l133 445l-40 120l-67 11l5 31l116 -3l124 3l5 -31l-89 -13l155 -512l2 -50l172 564l-88 11l5 31l119 -3l81 3l5 -31l-56 -11l-209 -649
l-61 -24l-139 422l-3 56l-142 -454l-61 -24z" />
    <glyph glyph-name="Wdieresis" unicode="&#x1e84;" horiz-adv-x="969" 
d="M336 784l-5 46l8 37l56 5l24 -5l4 -44l-9 -39l-55 -4zM551 784l-4 46l8 37l56 5l23 -5l5 -44l-9 -39l-55 -4zM68 659l-57 11l5 31l107 -3l123 3l5 -31l-89 -13l155 -512l3 -51l133 445l-40 120l-67 11l5 31l116 -3l124 3l5 -31l-89 -13l155 -512l2 -50l172 564l-88 11
l5 31l119 -3l81 3l5 -31l-56 -11l-209 -649l-61 -24l-139 422l-3 56l-142 -454l-61 -24z" />
    <glyph glyph-name="Wgrave" unicode="&#x1e80;" horiz-adv-x="969" 
d="M351 898h100l72 -132h-52zM68 659l-57 11l5 31l107 -3l123 3l5 -31l-89 -13l155 -512l3 -51l133 445l-40 120l-67 11l5 31l116 -3l124 3l5 -31l-89 -13l155 -512l2 -50l172 564l-88 11l5 31l119 -3l81 3l5 -31l-56 -11l-209 -649l-61 -24l-139 422l-3 56l-142 -454
l-61 -24z" />
    <glyph glyph-name="Yacute" unicode="&#xdd;" horiz-adv-x="707" 
d="M418 898h100l-121 -132h-52zM190 30l123 13v232l-226 385l-82 11l5 30l135 -3l127 3l5 -30l-89 -13l176 -297l10 -35l172 332l-91 13l5 30l122 -3l115 3l5 -29l-82 -10l-220 -392l2 -227l117 -13l-5 -31l-156 3l-163 -3z" />
    <glyph glyph-name="Ycircumflex" unicode="&#x176;" horiz-adv-x="707" 
d="M335 898h78l105 -132h-50l-83 67l-12 12l-10 -12l-83 -67h-50zM190 30l123 13v232l-226 385l-82 11l5 30l135 -3l127 3l5 -30l-89 -13l176 -297l10 -35l172 332l-91 13l5 30l122 -3l115 3l5 -29l-82 -10l-220 -392l2 -227l117 -13l-5 -31l-156 3l-163 -3z" />
    <glyph glyph-name="Ydieresis" unicode="&#x178;" horiz-adv-x="707" 
d="M225 784l-5 46l8 37l56 5l24 -5l4 -44l-9 -39l-55 -4zM440 784l-4 46l8 37l56 5l23 -5l5 -44l-9 -39l-55 -4zM190 30l123 13v232l-226 385l-82 11l5 30l135 -3l127 3l5 -30l-89 -13l176 -297l10 -35l172 332l-91 13l5 30l122 -3l115 3l5 -29l-82 -10l-220 -392l2 -227
l117 -13l-5 -31l-156 3l-163 -3z" />
    <glyph glyph-name="Ygrave" unicode="&#x1ef2;" horiz-adv-x="707" 
d="M240 898h100l72 -132h-52zM190 30l123 13v232l-226 385l-82 11l5 30l135 -3l127 3l5 -30l-89 -13l176 -297l10 -35l172 332l-91 13l5 30l122 -3l115 3l5 -29l-82 -10l-220 -392l2 -227l117 -13l-5 -31l-156 3l-163 -3z" />
    <glyph glyph-name="Zacute" unicode="&#x179;" horiz-adv-x="570" 
d="M329 898h100l-121 -132h-52zM21 49l390 575l37 35l-308 -5l-45 -124h-40v170h468l10 -44l-392 -578l-37 -37l343 5l64 132h44l-34 -178h-491z" />
    <glyph glyph-name="Zcaron" unicode="&#x17d;" horiz-adv-x="570" 
d="M141 898h50l83 -66l10 -13l11 13l83 66h50l-104 -132h-79zM21 49l390 575l37 35l-308 -5l-45 -124h-40v170h468l10 -44l-392 -578l-37 -37l343 5l64 132h44l-34 -178h-491z" />
    <glyph glyph-name="Zdotaccent" unicode="&#x17b;" horiz-adv-x="570" 
d="M235 775l-5 53l9 46l72 5l23 -5l5 -53l-11 -46l-72 -5zM21 49l390 575l37 35l-308 -5l-45 -124h-40v170h468l10 -44l-392 -578l-37 -37l343 5l64 132h44l-34 -178h-491z" />
    <glyph glyph-name="a" unicode="a" horiz-adv-x="444" 
d="M69.5 19q-39.5 34 -39.5 92q0 24 7.5 43.5t24.5 45.5l226 76v48q0 36 -3.5 56.5t-17 32.5t-41.5 12q-38 0 -89 -19l-18 -72h-73v70l172 78q63 0 94 -13t43 -46.5t12 -101.5v-196q0 -30 4.5 -45.5t13.5 -29.5h51l3 -31l-115 -22l-30 76l-121 -88q-64 0 -103.5 34zM206 58
q16 8 34 20l48 33v127l-159 -66q-19 -20 -19 -53q0 -36 17.5 -52.5t43.5 -16.5q19 0 35 8z" />
    <glyph glyph-name="b" unicode="b" horiz-adv-x="543" 
d="M168.5 -6q-29.5 9 -60.5 27q-4 2 -8.5 4.5t-10.5 5.5v619l-74 -2l-5 30l113 32l46 4v-327l123 95q58 0 105.5 -28t75 -79.5t27.5 -121.5q0 -233 -245 -268q-57 0 -86.5 9zM378.5 84.5q37.5 52.5 37.5 141.5q0 82 -31 133.5t-80 51.5q-22 0 -49 -11t-54 -33l-33 -27v-266
q17 -20 45.5 -31t62.5 -11q64 0 101.5 52.5z" />
    <glyph glyph-name="c" unicode="c" horiz-adv-x="441" 
d="M148 12q-49 27 -77 81t-28 130q0 109 65.5 172t166.5 87q30 0 70 -15t62 -35v-91h-60l-24 74q-14 10 -28.5 14t-36.5 4q-37 0 -66.5 -25t-46.5 -68.5t-17 -98.5q0 -84 42.5 -137t115.5 -53q48 0 118 44l12 -35q-67 -46 -156 -75q-63 0 -112 27z" />
    <glyph glyph-name="d" unicode="d" horiz-adv-x="550" 
d="M134 14q-47 29 -72.5 81.5t-25.5 121.5q0 117 66 184t181 81q25 0 84 -27v196l-74 -2l-5 30l116 31l43 4v-585q0 -48 18 -75h60l4 -33l-124 -24l-31 75l-131 -87q-62 0 -109 29zM334 102l33 27v266q-18 21 -45.5 32t-61.5 11q-64 0 -102 -53t-38 -143q0 -84 30.5 -134.5
t78.5 -50.5q49 0 105 45z" />
    <glyph glyph-name="e" unicode="e" horiz-adv-x="469" 
d="M433 58q-34 -22 -80 -41.5t-90 -31.5q-60 0 -111.5 28t-83 83.5t-31.5 132.5q0 110 60.5 171.5t160.5 81.5q92 0 132 -50.5t40 -136.5v-38h-310q2 -98 47 -152t127 -54q26 0 59.5 12t65.5 31zM160 398.5q-32 -37.5 -39 -101.5l217 8q0 65 -20.5 98t-79.5 33
q-46 0 -78 -37.5z" />
    <glyph glyph-name="f" unicode="f" horiz-adv-x="342" 
d="M42 30l74 9v377h-90v16l28 33h62v9q0 44 13 77t41 66l77 93h122v-74h-130l-20 -28q-11 -15 -17 -41t-6 -75v-32h124v-44h-124v-377l119 -5l-5 -35l-144 3l-119 -3z" />
    <glyph glyph-name="g" unicode="g" horiz-adv-x="503" 
d="M73 -209.5q-52 35.5 -52 106.5v15l106 88q-33 13 -48 27.5t-18 30t-3 43.5v2l98 70q-48 16 -76 49.5t-28 78.5q0 64 45 110t143 71q43 0 82 -14t62 -40l57 54h57v-73h-53l-38 -18q11 -24 11 -50q0 -132 -188 -179q-23 0 -33 1l-61 -69q0 -15 9.5 -25t25.5 -10h183
q66 0 97.5 -26t31.5 -73q0 -38 -31 -77.5t-87.5 -73t-129.5 -54.5q-110 0 -162 35.5zM311 232q24 25 24 68q0 49 -25 94t-84 45q-43 0 -67 -28.5t-24 -78.5q0 -25 10 -54t34.5 -50t65.5 -21q42 0 66 25zM315.5 -174q36.5 17 59.5 47t23 66q0 28 -23.5 39.5t-78.5 11.5h-136
q-39 -44 -50 -63.5t-11 -33.5q0 -37 39.5 -60.5t99.5 -23.5q41 0 77.5 17z" />
    <glyph glyph-name="h" unicode="h" horiz-adv-x="578" 
d="M35 30l74 9v612l-73 -2l-5 29l112 32l46 4v-327l145 95q64 0 95.5 -18t41.5 -55t10 -107v-263l80 -9l-5 -31l-112 3l-90 -3l-5 31l52 9v290q0 81 -67 81q-21 0 -48 -12.5t-64 -35.5l-33 -20v-303l59 -9l-5 -31l-91 3l-112 -3z" />
    <glyph glyph-name="i" unicode="i" horiz-adv-x="289" 
d="M35 30l74 9v370l-74 -6l-5 31l113 32l46 4v-431l80 -9l-5 -31l-112 3l-112 -3zM98 591l-6 52l9 45l65 5l26 -5l5 -52l-10 -45l-64 -6z" />
    <glyph glyph-name="j" unicode="j" horiz-adv-x="261" 
d="M-17 -156h93l11 22q10 19 15.5 41t5.5 64v438l-74 -6l-5 31l113 32l46 4v-485q0 -37 -9 -64.5t-33 -57.5l-84 -98h-79v79zM101 591l-6 52l9 45l65 5l26 -5l5 -52l-10 -45l-64 -6z" />
    <glyph glyph-name="k" unicode="k" horiz-adv-x="531" 
d="M34 30l74 9v610l-73 -2l-5 31l112 32l46 4v-443l27 11l163 146l-21 9v31l76 -3l70 3l5 -31l-52 -9l-193 -159l18 -11l199 -219l46 -9l-4 -31l-75 3l-57 -3l-192 234l-10 20v-214l60 -9l-5 -31l-88 3l-116 -3z" />
    <glyph glyph-name="l" unicode="l" horiz-adv-x="284" 
d="M35 30l74 9v610l-73 -2l-5 31l112 32l46 4v-675l80 -9l-5 -31l-112 3l-112 -3z" />
    <glyph glyph-name="m" unicode="m" horiz-adv-x="848" 
d="M34 30l74 9v371l-73 -7l-5 31l114 32l38 3l4 -84l139 97q70 0 100.5 -23t39.5 -76l140 99q64 0 95 -18t41 -54.5t10 -107.5v-263l80 -9l-5 -31l-114 3l-90 -3l-5 31l54 9v290q0 80 -61 80q-42 0 -108 -48l-32 -22v-300l47 -9l-5 -31l-78 3l-87 -3l-5 31l48 9v290
q0 80 -61 80q-42 0 -108 -48l-33 -22v-300l54 -9l-5 -31l-83 3l-115 -3z" />
    <glyph glyph-name="n" unicode="n" horiz-adv-x="578" 
d="M34 30l74 9v371l-73 -7l-5 31l112 32l38 3l6 -85l147 98q65 0 96 -16t41 -50t10 -100v-277l81 -9l-5 -31l-112 3l-92 -3l-5 31l53 9v290q0 81 -70 81q-25 0 -49 -12t-60 -36l-33 -21v-302l59 -9l-5 -31l-91 3l-112 -3z" />
    <glyph glyph-name="o" unicode="o" horiz-adv-x="536" 
d="M143.5 16.5q-50.5 31.5 -78.5 86t-28 120.5q0 109 61 174.5t179 84.5q65 0 115.5 -31.5t78.5 -86.5t28 -121q0 -108 -61 -174.5t-178 -83.5q-66 0 -116.5 31.5zM381.5 88q34.5 57 34.5 141q0 59 -20.5 106t-57 74t-84.5 27q-64 0 -98.5 -57t-34.5 -143q0 -52 20 -99
t57 -76.5t85 -29.5q64 0 98.5 57z" />
    <glyph glyph-name="p" unicode="p" horiz-adv-x="543" 
d="M20 -200l74 10v601l-74 -7l-5 30l114 32l38 3l5 -83l126 96q102 0 154.5 -62t52.5 -174q0 -120 -66 -183t-180 -78q-47 0 -85 24v-199l109 -10l-5 -31l-140 3l-113 -3zM386 83q35 51 35 136q0 87 -30 142t-79 55q-39 0 -105 -50l-33 -25v-249q18 -28 50 -44t69 -16
q58 0 93 51z" />
    <glyph glyph-name="q" unicode="q" horiz-adv-x="527" 
d="M259 -200l109 10v256l-119 -81q-97 0 -155 64t-58 174q0 114 66.5 179.5t187.5 79.5q22 0 53 -13t59 -30l34 38h12v-667l74 -10l-5 -31l-113 3l-140 -3zM304 70l64 45v249q-23 73 -102 73q-68 0 -107 -51t-39 -139q0 -59 17 -104t45.5 -68.5t61.5 -23.5q30 0 60 19z" />
    <glyph glyph-name="r" unicode="r" horiz-adv-x="389" 
d="M35 30l74 9v371l-74 -7l-5 31l116 32l36 3l-1 -125l116 133h76v-88h-65q-17 -2 -46.5 -24t-50.5 -48l-22 -27v-247l100 -9l-5 -35l-136 3l-108 -3z" />
    <glyph glyph-name="s" unicode="s" horiz-adv-x="419" 
d="M112 1q-42 16 -64 31l-19 103h63l37 -85q35 -19 79 -19q41 0 62.5 23.5t21.5 58.5q0 30 -16.5 47.5t-59.5 40.5l-81 42q-33 16 -56 45t-23 67q0 49 45.5 79.5t128.5 47.5q32 0 72.5 -15t65.5 -33v-91h-52l-23 75q-2 1 -23.5 10t-52.5 9t-54.5 -16.5t-23.5 -46.5
q0 -23 17 -40.5t52 -35.5l78 -40q51 -26 72 -55.5t21 -72.5q0 -62 -45.5 -93.5t-136.5 -51.5q-43 0 -85 16z" />
    <glyph glyph-name="t" unicode="t" horiz-adv-x="341" 
d="M133.5 17q-29.5 32 -29.5 95v303h-99v17l34 33h69v64l56 62h19v-134h156v-42h-155v-301q0 -27 16.5 -43t37.5 -16q18 0 35 5t44 18l15 -30l-111 -63q-58 0 -87.5 32z" />
    <glyph glyph-name="u" unicode="u" horiz-adv-x="558" 
d="M141.5 2q-32.5 17 -42.5 51t-10 98v259l-75 -5l-5 36l116 25l44 4v-335q0 -41 17.5 -59.5t55.5 -18.5q24 0 52.5 14.5t68.5 41.5l21 13v284l-63 -5l-5 36l105 25l43 4v-341q0 -30 2.5 -46t8.5 -31h53l4 -31l-117 -24l-28 79l-147 -91q-66 0 -98.5 17z" />
    <glyph glyph-name="v" unicode="v" horiz-adv-x="543" 
d="M71 427l-66 10l5 31l109 -3l102 3l5 -31l-70 -10l114 -304l8 -65l125 369l-46 10l5 31l86 -3l85 3l5 -31l-66 -10l-167 -411l-62 -31z" />
    <glyph glyph-name="w" unicode="w" horiz-adv-x="827" 
d="M71 427l-66 10l5 31l104 -3l91 3l5 -31l-59 -10l103 -310l8 -53l119 327l-13 36l-42 10l5 31l80 -3l90 3l5 -31l-58 -10l103 -310l8 -53l130 363l-46 10l5 31l67 -3l102 3l5 -31l-66 -10l-164 -410l-71 -31l-101 291l-5 65l-120 -325l-71 -31z" />
    <glyph glyph-name="x" unicode="x" horiz-adv-x="529" 
d="M10 30l75 10l147 187l-145 199l-64 10l5 32l114 -3l81 3l5 -32l-38 -10l78 -118l8 -23l93 141l-53 10l5 32l74 -3l108 3l5 -32l-76 -10l-130 -162l156 -224l66 -10l-5 -31l-118 3l-80 -3l-5 31l41 10l-93 139l-6 19l-106 -158l47 -10l-5 -31l-70 3l-109 -3z" />
    <glyph glyph-name="y" unicode="y" horiz-adv-x="534" 
d="M84 -146h76l98 156l-23 -7l-164 424l-66 10l5 31l109 -3l102 3l5 -31l-70 -10l109 -304l7 -64l124 368l-46 10l5 31l86 -3l83 3l5 -31l-66 -10l-160 -413l-111 -249h-108v89z" />
    <glyph glyph-name="z" unicode="z" horiz-adv-x="462" 
d="M38 29l268 371l37 30l-209 -4l-32 -87h-36v128h349l14 -29l-272 -377l-32 -24l218 3l55 93h39l-28 -133h-360z" />
    <glyph glyph-name="aacute" unicode="&#xe1;" horiz-adv-x="444" 
d="M69.5 19q-39.5 34 -39.5 92q0 24 7.5 43.5t24.5 45.5l226 76v48q0 36 -3.5 56.5t-17 32.5t-41.5 12q-38 0 -89 -19l-18 -72h-73v70l172 78q63 0 94 -13t43 -46.5t12 -101.5v-196q0 -30 4.5 -45.5t13.5 -29.5h51l3 -31l-115 -22l-30 76l-121 -88q-64 0 -103.5 34zM206 58
q16 8 34 20l48 33v127l-159 -66q-19 -20 -19 -53q0 -36 17.5 -52.5t43.5 -16.5q19 0 35 8zM254 710h102l-120 -161h-30z" />
    <glyph glyph-name="abreve" unicode="&#x103;" horiz-adv-x="444" 
d="M69.5 19q-39.5 34 -39.5 92q0 24 7.5 43.5t24.5 45.5l226 76v48q0 36 -3.5 56.5t-17 32.5t-41.5 12q-38 0 -89 -19l-18 -72h-73v70l172 78q63 0 94 -13t43 -46.5t12 -101.5v-196q0 -30 4.5 -45.5t13.5 -29.5h51l3 -31l-115 -22l-30 76l-121 -88q-64 0 -103.5 34zM206 58
q16 8 34 20l48 33v127l-159 -66q-19 -20 -19 -53q0 -36 17.5 -52.5t43.5 -16.5q19 0 35 8zM138 591.5q-45 36.5 -61 88.5l28 19q26 -40 52 -57.5t60 -17.5q25 0 43.5 10.5t30 24.5t29.5 40l32 -19q-22 -40 -51 -70.5t-70 -54.5q-48 0 -93 36.5z" />
    <glyph glyph-name="acircumflex" unicode="&#xe2;" horiz-adv-x="444" 
d="M69.5 19q-39.5 34 -39.5 92q0 24 7.5 43.5t24.5 45.5l226 76v48q0 36 -3.5 56.5t-17 32.5t-41.5 12q-38 0 -89 -19l-18 -72h-73v70l172 78q63 0 94 -13t43 -46.5t12 -101.5v-196q0 -30 4.5 -45.5t13.5 -29.5h51l3 -31l-115 -22l-30 76l-121 -88q-64 0 -103.5 34zM206 58
q16 8 34 20l48 33v127l-159 -66q-19 -20 -19 -53q0 -36 17.5 -52.5t43.5 -16.5q19 0 35 8zM179 710h68l105 -161h-38l-82 77l-19 26l-19 -26l-82 -77h-38z" />
    <glyph glyph-name="adieresis" unicode="&#xe4;" horiz-adv-x="444" 
d="M69.5 19q-39.5 34 -39.5 92q0 24 7.5 43.5t24.5 45.5l226 76v48q0 36 -3.5 56.5t-17 32.5t-41.5 12q-38 0 -89 -19l-18 -72h-73v70l172 78q63 0 94 -13t43 -46.5t12 -101.5v-196q0 -30 4.5 -45.5t13.5 -29.5h51l3 -31l-115 -22l-30 76l-121 -88q-64 0 -103.5 34zM206 58
q16 8 34 20l48 33v127l-159 -66q-19 -20 -19 -53q0 -36 17.5 -52.5t43.5 -16.5q19 0 35 8zM83 585l-4 45l8 38l56 4l23 -4l5 -45l-9 -38l-55 -5zM259 585l-4 45l8 38l56 4l23 -4l5 -45l-10 -38l-54 -5z" />
    <glyph glyph-name="ae" unicode="&#xe6;" horiz-adv-x="696" 
d="M659 60q-35 -23 -81 -42.5t-92 -32.5q-55 0 -104 25t-80 71l-127 -96q-63 0 -104 33.5t-41 87.5q0 28 7.5 48t24.5 46l217 76v48q0 51 -10 76t-45 25q-42 0 -86 -19l-18 -76h-75v74l172 78q57 0 87 -13t43 -46q53 40 137 59q91 0 132 -49.5t41 -134.5v-41h-300
q3 -92 49 -148.5t126 -56.5q47 0 114 44zM392.5 398.5q-29.5 -38.5 -34.5 -105.5l204 11q0 66 -18.5 99.5t-73.5 33.5q-48 0 -77.5 -38.5zM280 240l-151 -66q-11 -11 -15 -24.5t-4 -34.5q0 -33 18.5 -50t43.5 -17t65 29l43 32v68v63z" />
    <glyph glyph-name="aeacute" unicode="&#x1fd;" horiz-adv-x="696" 
d="M659 60q-35 -23 -81 -42.5t-92 -32.5q-55 0 -104 25t-80 71l-127 -96q-63 0 -104 33.5t-41 87.5q0 28 7.5 48t24.5 46l217 76v48q0 51 -10 76t-45 25q-42 0 -86 -19l-18 -76h-75v74l172 78q57 0 87 -13t43 -46q53 40 137 59q91 0 132 -49.5t41 -134.5v-41h-300
q3 -92 49 -148.5t126 -56.5q47 0 114 44zM392.5 398.5q-29.5 -38.5 -34.5 -105.5l204 11q0 66 -18.5 99.5t-73.5 33.5q-48 0 -77.5 -38.5zM280 240l-151 -66q-11 -11 -15 -24.5t-4 -34.5q0 -33 18.5 -50t43.5 -17t65 29l43 32v68v63zM395 710h102l-120 -161h-30z" />
    <glyph glyph-name="agrave" unicode="&#xe0;" horiz-adv-x="444" 
d="M69.5 19q-39.5 34 -39.5 92q0 24 7.5 43.5t24.5 45.5l226 76v48q0 36 -3.5 56.5t-17 32.5t-41.5 12q-38 0 -89 -19l-18 -72h-73v70l172 78q63 0 94 -13t43 -46.5t12 -101.5v-196q0 -30 4.5 -45.5t13.5 -29.5h51l3 -31l-115 -22l-30 76l-121 -88q-64 0 -103.5 34zM206 58
q16 8 34 20l48 33v127l-159 -66q-19 -20 -19 -53q0 -36 17.5 -52.5t43.5 -16.5q19 0 35 8zM93 710h102l48 -161h-30z" />
    <glyph glyph-name="amacron" unicode="&#x101;" horiz-adv-x="444" 
d="M69.5 19q-39.5 34 -39.5 92q0 24 7.5 43.5t24.5 45.5l226 76v48q0 36 -3.5 56.5t-17 32.5t-41.5 12q-38 0 -89 -19l-18 -72h-73v70l172 78q63 0 94 -13t43 -46.5t12 -101.5v-196q0 -30 4.5 -45.5t13.5 -29.5h51l3 -31l-115 -22l-30 76l-121 -88q-64 0 -103.5 34zM206 58
q16 8 34 20l48 33v127l-159 -66q-19 -20 -19 -53q0 -36 17.5 -52.5t43.5 -16.5q19 0 35 8zM75 666h276v-54h-276v54z" />
    <glyph glyph-name="aogonek" unicode="&#x105;" horiz-adv-x="444" 
d="M323 -200q28 -15 75 -15v-30q-98 0 -141.5 26.5t-43.5 81.5v38l108 104l-27 68l-121 -88q-64 0 -103.5 34t-39.5 92q0 24 7.5 43.5t24.5 45.5l226 76v48q0 36 -3.5 56.5t-17 32.5t-41.5 12q-38 0 -89 -19l-18 -72h-73v70l172 78q63 0 94 -13t43 -46.5t12 -101.5v-196
q0 -30 4.5 -45.5t13.5 -29.5h51l3 -31l-75 -14l-69 -105v-45q0 -40 28 -55zM288 238l-159 -66q-19 -20 -19 -53q0 -36 17.5 -52.5t43.5 -16.5q19 0 35 8t34 20l48 33v127z" />
    <glyph glyph-name="aring" unicode="&#xe5;" horiz-adv-x="444" 
d="M69.5 19q-39.5 34 -39.5 92q0 24 7.5 43.5t24.5 45.5l226 76v48q0 36 -3.5 56.5t-17 32.5t-41.5 12q-38 0 -89 -19l-18 -72h-73v70l172 78q63 0 94 -13t43 -46.5t12 -101.5v-196q0 -30 4.5 -45.5t13.5 -29.5h51l3 -31l-115 -22l-30 76l-121 -88q-64 0 -103.5 34zM206 58
q16 8 34 20l48 33v127l-159 -66q-19 -20 -19 -53q0 -36 17.5 -52.5t43.5 -16.5q19 0 35 8zM143 557.5q-29 20.5 -29 66.5q0 40 25 59t73 32q99 0 99 -91q0 -26 -9 -40.5t-23.5 -22t-40.5 -16.5l-23 -8q-43 0 -72 20.5zM252 587.5q16 14.5 16 36.5q0 23 -16 39t-39 16
t-39 -16t-16 -39q0 -22 16 -36.5t39 -14.5t39 14.5z" />
    <glyph glyph-name="atilde" unicode="&#xe3;" horiz-adv-x="444" 
d="M69.5 19q-39.5 34 -39.5 92q0 24 7.5 43.5t24.5 45.5l226 76v48q0 36 -3.5 56.5t-17 32.5t-41.5 12q-38 0 -89 -19l-18 -72h-73v70l172 78q63 0 94 -13t43 -46.5t12 -101.5v-196q0 -30 4.5 -45.5t13.5 -29.5h51l3 -31l-115 -22l-30 76l-121 -88q-64 0 -103.5 34zM206 58
q16 8 34 20l48 33v127l-159 -66q-19 -20 -19 -53q0 -36 17.5 -52.5t43.5 -16.5q19 0 35 8zM117 635l-29 -57h-27l21 87l77 22l148 -59l30 57h26l-22 -92l-75 -17z" />
    <glyph glyph-name="cacute" unicode="&#x107;" horiz-adv-x="441" 
d="M148 12q-49 27 -77 81t-28 130q0 109 65.5 172t166.5 87q30 0 70 -15t62 -35v-91h-60l-24 74q-14 10 -28.5 14t-36.5 4q-37 0 -66.5 -25t-46.5 -68.5t-17 -98.5q0 -84 42.5 -137t115.5 -53q48 0 118 44l12 -35q-67 -46 -156 -75q-63 0 -112 27zM306 710h102l-120 -161
h-30z" />
    <glyph glyph-name="ccaron" unicode="&#x10d;" horiz-adv-x="441" 
d="M148 12q-49 27 -77 81t-28 130q0 109 65.5 172t166.5 87q30 0 70 -15t62 -35v-91h-60l-24 74q-14 10 -28.5 14t-36.5 4q-37 0 -66.5 -25t-46.5 -68.5t-17 -98.5q0 -84 42.5 -137t115.5 -53q48 0 118 44l12 -35q-67 -46 -156 -75q-63 0 -112 27zM126 710h38l82 -77l19 -26
l19 26l82 77h38l-105 -161h-68z" />
    <glyph glyph-name="ccedilla" unicode="&#xe7;" horiz-adv-x="441" 
d="M289 -70.5q24 -21.5 24 -56.5q0 -39 -27 -65.5t-60 -36.5l-51 -16h-57l29 38h76q15 9 23 26.5t8 35.5q0 32 -25.5 47.5t-58.5 15.5l51 70q-81 12 -129.5 72.5t-48.5 162.5q0 109 65.5 172t166.5 87q30 0 70 -15t62 -35v-91h-60l-24 74q-14 10 -28.5 14t-36.5 4
q-37 0 -66.5 -25t-46.5 -68.5t-17 -98.5q0 -84 42.5 -137t115.5 -53q48 0 118 44l12 -35q-67 -46 -156 -75h-6l-22 -32q33 -2 57 -23.5z" />
    <glyph glyph-name="ccircumflex" unicode="&#x109;" horiz-adv-x="441" 
d="M148 12q-49 27 -77 81t-28 130q0 109 65.5 172t166.5 87q30 0 70 -15t62 -35v-91h-60l-24 74q-14 10 -28.5 14t-36.5 4q-37 0 -66.5 -25t-46.5 -68.5t-17 -98.5q0 -84 42.5 -137t115.5 -53q48 0 118 44l12 -35q-67 -46 -156 -75q-63 0 -112 27zM231 710h68l105 -161h-38
l-82 77l-19 26l-19 -26l-82 -77h-38z" />
    <glyph glyph-name="cdotaccent" unicode="&#x10b;" horiz-adv-x="441" 
d="M148 12q-49 27 -77 81t-28 130q0 109 65.5 172t166.5 87q30 0 70 -15t62 -35v-91h-60l-24 74q-14 10 -28.5 14t-36.5 4q-37 0 -66.5 -25t-46.5 -68.5t-17 -98.5q0 -84 42.5 -137t115.5 -53q48 0 118 44l12 -35q-67 -46 -156 -75q-63 0 -112 27zM214 586l-6 56l9 46l76 6
l23 -6l5 -55l-11 -47l-75 -6z" />
    <glyph glyph-name="dcaron" unicode="&#x10f;" horiz-adv-x="550" 
d="M134 14q-47 29 -72.5 81.5t-25.5 121.5q0 117 66 184t181 81q25 0 84 -27v196l-74 -2l-5 30l116 31l43 4v-585q0 -48 18 -75h60l4 -33l-124 -24l-31 75l-131 -87q-62 0 -109 29zM334 102l33 27v266q-18 21 -45.5 32t-61.5 11q-64 0 -102 -53t-38 -143q0 -84 30.5 -134.5
t78.5 -50.5q49 0 105 45zM489 483q13 29 24 67t11 56l-36 4l-5 52l5 44l67 4l29 -4l4 -51l-4 -45l-62 -140z" />
    <glyph glyph-name="dcroat" unicode="&#x111;" horiz-adv-x="550" 
d="M529 21l-124 -24l-31 75l-131 -87q-62 0 -109 29t-72.5 81.5t-25.5 121.5q0 117 66 184t181 81q25 0 84 -27v105h-138v38h138v53l-74 -2l-5 30l116 31l43 4v-116h81v-38h-81v-431q0 -48 18 -75h60zM367 395q-18 21 -45.5 32t-61.5 11q-64 0 -102 -53t-38 -143
q0 -84 30.5 -134.5t78.5 -50.5q49 0 105 45l33 27v266z" />
    <glyph glyph-name="eacute" unicode="&#xe9;" horiz-adv-x="469" 
d="M433 58q-34 -22 -80 -41.5t-90 -31.5q-60 0 -111.5 28t-83 83.5t-31.5 132.5q0 110 60.5 171.5t160.5 81.5q92 0 132 -50.5t40 -136.5v-38h-310q2 -98 47 -152t127 -54q26 0 59.5 12t65.5 31zM160 398.5q-32 -37.5 -39 -101.5l217 8q0 65 -20.5 98t-79.5 33
q-46 0 -78 -37.5zM301 710h102l-120 -161h-30z" />
    <glyph glyph-name="ebreve" unicode="&#x115;" horiz-adv-x="469" 
d="M433 58q-34 -22 -80 -41.5t-90 -31.5q-60 0 -111.5 28t-83 83.5t-31.5 132.5q0 110 60.5 171.5t160.5 81.5q92 0 132 -50.5t40 -136.5v-38h-310q2 -98 47 -152t127 -54q26 0 59.5 12t65.5 31zM160 398.5q-32 -37.5 -39 -101.5l217 8q0 65 -20.5 98t-79.5 33
q-46 0 -78 -37.5zM185 591.5q-45 36.5 -61 88.5l28 19q26 -40 52 -57.5t60 -17.5q25 0 43.5 10.5t30 24.5t29.5 40l32 -19q-22 -40 -51 -70.5t-70 -54.5q-48 0 -93 36.5z" />
    <glyph glyph-name="ecaron" unicode="&#x11b;" horiz-adv-x="469" 
d="M433 58q-34 -22 -80 -41.5t-90 -31.5q-60 0 -111.5 28t-83 83.5t-31.5 132.5q0 110 60.5 171.5t160.5 81.5q92 0 132 -50.5t40 -136.5v-38h-310q2 -98 47 -152t127 -54q26 0 59.5 12t65.5 31zM160 398.5q-32 -37.5 -39 -101.5l217 8q0 65 -20.5 98t-79.5 33
q-46 0 -78 -37.5zM121 710h38l82 -77l19 -26l19 26l82 77h38l-105 -161h-68z" />
    <glyph glyph-name="ecircumflex" unicode="&#xea;" horiz-adv-x="469" 
d="M433 58q-34 -22 -80 -41.5t-90 -31.5q-60 0 -111.5 28t-83 83.5t-31.5 132.5q0 110 60.5 171.5t160.5 81.5q92 0 132 -50.5t40 -136.5v-38h-310q2 -98 47 -152t127 -54q26 0 59.5 12t65.5 31zM160 398.5q-32 -37.5 -39 -101.5l217 8q0 65 -20.5 98t-79.5 33
q-46 0 -78 -37.5zM226 710h68l105 -161h-38l-82 77l-19 26l-19 -26l-82 -77h-38z" />
    <glyph glyph-name="edieresis" unicode="&#xeb;" horiz-adv-x="469" 
d="M433 58q-34 -22 -80 -41.5t-90 -31.5q-60 0 -111.5 28t-83 83.5t-31.5 132.5q0 110 60.5 171.5t160.5 81.5q92 0 132 -50.5t40 -136.5v-38h-310q2 -98 47 -152t127 -54q26 0 59.5 12t65.5 31zM160 398.5q-32 -37.5 -39 -101.5l217 8q0 65 -20.5 98t-79.5 33
q-46 0 -78 -37.5zM130 585l-4 45l8 38l56 4l23 -4l5 -45l-9 -38l-55 -5zM306 585l-4 45l8 38l56 4l23 -4l5 -45l-10 -38l-54 -5z" />
    <glyph glyph-name="edotaccent" unicode="&#x117;" horiz-adv-x="469" 
d="M433 58q-34 -22 -80 -41.5t-90 -31.5q-60 0 -111.5 28t-83 83.5t-31.5 132.5q0 110 60.5 171.5t160.5 81.5q92 0 132 -50.5t40 -136.5v-38h-310q2 -98 47 -152t127 -54q26 0 59.5 12t65.5 31zM160 398.5q-32 -37.5 -39 -101.5l217 8q0 65 -20.5 98t-79.5 33
q-46 0 -78 -37.5zM209 586l-6 56l9 46l76 6l23 -6l5 -55l-11 -47l-75 -6z" />
    <glyph glyph-name="egrave" unicode="&#xe8;" horiz-adv-x="469" 
d="M433 58q-34 -22 -80 -41.5t-90 -31.5q-60 0 -111.5 28t-83 83.5t-31.5 132.5q0 110 60.5 171.5t160.5 81.5q92 0 132 -50.5t40 -136.5v-38h-310q2 -98 47 -152t127 -54q26 0 59.5 12t65.5 31zM160 398.5q-32 -37.5 -39 -101.5l217 8q0 65 -20.5 98t-79.5 33
q-46 0 -78 -37.5zM140 710h102l48 -161h-30z" />
    <glyph glyph-name="emacron" unicode="&#x113;" horiz-adv-x="469" 
d="M433 58q-34 -22 -80 -41.5t-90 -31.5q-60 0 -111.5 28t-83 83.5t-31.5 132.5q0 110 60.5 171.5t160.5 81.5q92 0 132 -50.5t40 -136.5v-38h-310q2 -98 47 -152t127 -54q26 0 59.5 12t65.5 31zM160 398.5q-32 -37.5 -39 -101.5l217 8q0 65 -20.5 98t-79.5 33
q-46 0 -78 -37.5zM122 666h276v-54h-276v54z" />
    <glyph glyph-name="eogonek" unicode="&#x119;" horiz-adv-x="469" 
d="M278 -200q28 -15 75 -15v-30q-98 0 -141.5 26.5t-43.5 81.5v38l88 84q-59 2 -109 30.5t-80 83t-30 130.5q0 110 60.5 171.5t160.5 81.5q92 0 132 -50.5t40 -136.5v-38h-310q2 -98 47 -152t127 -54q26 0 59.5 12t65.5 31l14 -36q-51 -32 -116 -55l-67 -103v-45
q0 -40 28 -55zM160 398.5q-32 -37.5 -39 -101.5l217 8q0 65 -20.5 98t-79.5 33q-46 0 -78 -37.5z" />
    <glyph glyph-name="gbreve" unicode="&#x11f;" horiz-adv-x="503" 
d="M73 -209.5q-52 35.5 -52 106.5v15l106 88q-33 13 -48 27.5t-18 30t-3 43.5v2l98 70q-48 16 -76 49.5t-28 78.5q0 64 45 110t143 71q43 0 82 -14t62 -40l57 54h57v-73h-53l-38 -18q11 -24 11 -50q0 -132 -188 -179q-23 0 -33 1l-61 -69q0 -15 9.5 -25t25.5 -10h183
q66 0 97.5 -26t31.5 -73q0 -38 -31 -77.5t-87.5 -73t-129.5 -54.5q-110 0 -162 35.5zM311 232q24 25 24 68q0 49 -25 94t-84 45q-43 0 -67 -28.5t-24 -78.5q0 -25 10 -54t34.5 -50t65.5 -21q42 0 66 25zM315.5 -174q36.5 17 59.5 47t23 66q0 28 -23.5 39.5t-78.5 11.5h-136
q-39 -44 -50 -63.5t-11 -33.5q0 -37 39.5 -60.5t99.5 -23.5q41 0 77.5 17zM177 591.5q-45 36.5 -61 88.5l28 19q26 -40 52 -57.5t60 -17.5q25 0 43.5 10.5t30 24.5t29.5 40l32 -19q-22 -40 -51 -70.5t-70 -54.5q-48 0 -93 36.5z" />
    <glyph glyph-name="gcircumflex" unicode="&#x11d;" horiz-adv-x="503" 
d="M73 -209.5q-52 35.5 -52 106.5v15l106 88q-33 13 -48 27.5t-18 30t-3 43.5v2l98 70q-48 16 -76 49.5t-28 78.5q0 64 45 110t143 71q43 0 82 -14t62 -40l57 54h57v-73h-53l-38 -18q11 -24 11 -50q0 -132 -188 -179q-23 0 -33 1l-61 -69q0 -15 9.5 -25t25.5 -10h183
q66 0 97.5 -26t31.5 -73q0 -38 -31 -77.5t-87.5 -73t-129.5 -54.5q-110 0 -162 35.5zM311 232q24 25 24 68q0 49 -25 94t-84 45q-43 0 -67 -28.5t-24 -78.5q0 -25 10 -54t34.5 -50t65.5 -21q42 0 66 25zM315.5 -174q36.5 17 59.5 47t23 66q0 28 -23.5 39.5t-78.5 11.5h-136
q-39 -44 -50 -63.5t-11 -33.5q0 -37 39.5 -60.5t99.5 -23.5q41 0 77.5 17zM218 710h68l105 -161h-38l-82 77l-19 26l-19 -26l-82 -77h-38z" />
    <glyph glyph-name="gcommaaccent" unicode="&#x123;" horiz-adv-x="503" 
d="M73 -209.5q-52 35.5 -52 106.5v15l106 88q-33 13 -48 27.5t-18 30t-3 43.5v2l98 70q-48 16 -76 49.5t-28 78.5q0 64 45 110t143 71q43 0 82 -14t62 -40l57 54h57v-73h-53l-38 -18q11 -24 11 -50q0 -132 -188 -179q-23 0 -33 1l-61 -69q0 -15 9.5 -25t25.5 -10h183
q66 0 97.5 -26t31.5 -73q0 -38 -31 -77.5t-87.5 -73t-129.5 -54.5q-110 0 -162 35.5zM311 232q24 25 24 68q0 49 -25 94t-84 45q-43 0 -67 -28.5t-24 -78.5q0 -25 10 -54t34.5 -50t65.5 -21q42 0 66 25zM315.5 -174q36.5 17 59.5 47t23 66q0 28 -23.5 39.5t-78.5 11.5h-136
q-39 -44 -50 -63.5t-11 -33.5q0 -37 39.5 -60.5t99.5 -23.5q41 0 77.5 17zM206 619l59 96l33 -10l-23 -81l23 -35v-40h-92v70z" />
    <glyph glyph-name="gdotaccent" unicode="&#x121;" horiz-adv-x="503" 
d="M73 -209.5q-52 35.5 -52 106.5v15l106 88q-33 13 -48 27.5t-18 30t-3 43.5v2l98 70q-48 16 -76 49.5t-28 78.5q0 64 45 110t143 71q43 0 82 -14t62 -40l57 54h57v-73h-53l-38 -18q11 -24 11 -50q0 -132 -188 -179q-23 0 -33 1l-61 -69q0 -15 9.5 -25t25.5 -10h183
q66 0 97.5 -26t31.5 -73q0 -38 -31 -77.5t-87.5 -73t-129.5 -54.5q-110 0 -162 35.5zM311 232q24 25 24 68q0 49 -25 94t-84 45q-43 0 -67 -28.5t-24 -78.5q0 -25 10 -54t34.5 -50t65.5 -21q42 0 66 25zM315.5 -174q36.5 17 59.5 47t23 66q0 28 -23.5 39.5t-78.5 11.5h-136
q-39 -44 -50 -63.5t-11 -33.5q0 -37 39.5 -60.5t99.5 -23.5q41 0 77.5 17zM201 586l-6 56l9 46l76 6l23 -6l5 -55l-11 -47l-75 -6z" />
    <glyph glyph-name="hbar" unicode="&#x127;" horiz-adv-x="578" 
d="M561 30l-5 -31l-112 3l-90 -3l-5 31l52 9v290q0 81 -67 81q-21 0 -48 -12.5t-64 -35.5l-33 -20v-303l59 -9l-5 -31l-91 3l-112 -3l-5 31l74 9v522h-81v38h81v52l-73 -2l-5 29l112 32l46 4v-115h144v-38h-144v-174l145 95q64 0 95.5 -18t41.5 -55t10 -107v-263z" />
    <glyph glyph-name="hcircumflex" unicode="&#x125;" horiz-adv-x="578" 
d="M104 898h78l105 -132h-50l-83 67l-12 12l-10 -12l-83 -67h-50zM35 30l74 9v612l-73 -2l-5 29l112 32l46 4v-327l145 95q64 0 95.5 -18t41.5 -55t10 -107v-263l80 -9l-5 -31l-112 3l-90 -3l-5 31l52 9v290q0 81 -67 81q-21 0 -48 -12.5t-64 -35.5l-33 -20v-303l59 -9
l-5 -31l-91 3l-112 -3z" />
    <glyph glyph-name="iacute" unicode="&#xed;" horiz-adv-x="289" 
d="M35 30l74 9v370l-74 -6l-5 31l113 32l46 4v-431l80 -9l-5 -31l-112 3l-112 -3zM186 710h102l-120 -161h-30z" />
    <glyph glyph-name="ibreve" unicode="&#x12d;" horiz-adv-x="289" 
d="M35 30l74 9v370l-74 -6l-5 31l113 32l46 4v-431l80 -9l-5 -31l-112 3l-112 -3zM70 591.5q-45 36.5 -61 88.5l28 19q26 -40 52 -57.5t60 -17.5q25 0 43.5 10.5t30 24.5t29.5 40l32 -19q-22 -40 -51 -70.5t-70 -54.5q-48 0 -93 36.5z" />
    <glyph glyph-name="icircumflex" unicode="&#xee;" horiz-adv-x="289" 
d="M35 30l74 9v370l-74 -6l-5 31l113 32l46 4v-431l80 -9l-5 -31l-112 3l-112 -3zM111 710h68l105 -161h-38l-82 77l-19 26l-19 -26l-82 -77h-38z" />
    <glyph glyph-name="idieresis" unicode="&#xef;" horiz-adv-x="289" 
d="M35 30l74 9v370l-74 -6l-5 31l113 32l46 4v-431l80 -9l-5 -31l-112 3l-112 -3zM15 585l-4 45l8 38l56 4l23 -4l5 -45l-9 -38l-55 -5zM191 585l-4 45l8 38l56 4l23 -4l5 -45l-10 -38l-54 -5z" />
    <glyph glyph-name="dotlessi" unicode="&#x131;" horiz-adv-x="289" 
d="M35 30l74 9v370l-74 -6l-5 31l113 32l46 4v-431l80 -9l-5 -31l-112 3l-112 -3z" />
    <glyph glyph-name="igrave" unicode="&#xec;" horiz-adv-x="289" 
d="M35 30l74 9v370l-74 -6l-5 31l113 32l46 4v-431l80 -9l-5 -31l-112 3l-112 -3zM25 710h102l48 -161h-30z" />
    <glyph glyph-name="ij" unicode="&#x133;" horiz-adv-x="550" 
d="M35 30l74 9v370l-74 -6l-5 31l113 32l46 4v-431l80 -9l-5 -31l-112 3l-112 -3zM98 591l-6 52l9 45l65 5l26 -5l5 -52l-10 -45l-64 -6zM272 -156h93l11 22q10 19 15.5 41t5.5 64v438l-74 -6l-5 31l113 32l46 4v-485q0 -37 -9 -64.5t-33 -57.5l-84 -98h-79v79zM390 591
l-6 52l9 45l65 5l26 -5l5 -52l-10 -45l-64 -6z" />
    <glyph glyph-name="jacute" horiz-adv-x="261" 
d="M-17 -156h93l11 22q10 19 15.5 41t5.5 64v438l-74 -6l-5 31l113 32l46 4v-485q0 -37 -9 -64.5t-33 -57.5l-84 -98h-79v79zM189 710h102l-120 -161h-30z" />
    <glyph glyph-name="imacron" unicode="&#x12b;" horiz-adv-x="289" 
d="M35 30l74 9v370l-74 -6l-5 31l113 32l46 4v-431l80 -9l-5 -31l-112 3l-112 -3zM7 666h276v-54h-276v54z" />
    <glyph glyph-name="iogonek" unicode="&#x12f;" horiz-adv-x="289" 
d="M98 591l-6 52l9 45l65 5l26 -5l5 -52l-10 -45l-64 -6zM99 -100v-45q0 -40 28 -55t75 -15v-30q-98 0 -141.5 26.5t-43.5 81.5v38l104 100l-81 -2l-5 31l74 9v370l-74 -6l-5 31l113 32l46 4v-431l80 -9l-5 -31l-98 3z" />
    <glyph glyph-name="itilde" unicode="&#x129;" horiz-adv-x="289" 
d="M35 30l74 9v370l-74 -6l-5 31l113 32l46 4v-431l80 -9l-5 -31l-112 3l-112 -3zM49 635l-29 -57h-27l21 87l77 22l148 -59l30 57h26l-22 -92l-75 -17z" />
    <glyph glyph-name="jcircumflex" unicode="&#x135;" horiz-adv-x="261" 
d="M-17 -156h93l11 22q10 19 15.5 41t5.5 64v438l-74 -6l-5 31l113 32l46 4v-485q0 -37 -9 -64.5t-33 -57.5l-84 -98h-79v79zM114 710h68l105 -161h-38l-82 77l-19 26l-19 -26l-82 -77h-38z" />
    <glyph glyph-name="uni0237" unicode="&#x237;" horiz-adv-x="261" 
d="M-17 -156h93l11 22q10 19 15.5 41t5.5 64v438l-74 -6l-5 31l113 32l46 4v-485q0 -37 -9 -64.5t-33 -57.5l-84 -98h-79v79z" />
    <glyph glyph-name="kcommaaccent" unicode="&#x137;" horiz-adv-x="531" 
d="M34 30l74 9v610l-73 -2l-5 31l112 32l46 4v-443l27 11l163 146l-21 9v31l76 -3l70 3l5 -31l-52 -9l-193 -159l18 -11l199 -219l46 -9l-4 -31l-75 3l-57 -3l-192 234l-10 20v-214l60 -9l-5 -31l-88 3l-116 -3zM253 -226l23 101l-23 35v40h89v-80l-66 -106z" />
    <glyph glyph-name="kgreenlandic" unicode="&#x138;" horiz-adv-x="531" 
d="M34 30l74 9v371l-73 -7l-5 31l112 32l46 4v-199l27 11l163 146l-21 9v31l76 -3l70 3l5 -31l-52 -9l-193 -159l18 -11l199 -219l46 -9l-4 -31l-75 3l-57 -3l-192 234l-10 20v-214l60 -9l-5 -31l-88 3l-116 -3z" />
    <glyph glyph-name="lacute" unicode="&#x13a;" horiz-adv-x="284" 
d="M199 898h100l-121 -132h-52zM35 30l74 9v610l-73 -2l-5 31l112 32l46 4v-675l80 -9l-5 -31l-112 3l-112 -3z" />
    <glyph glyph-name="lcaron" unicode="&#x13e;" horiz-adv-x="325" 
d="M35 30l74 9v610l-73 -2l-5 31l112 32l46 4v-675l80 -9l-5 -31l-112 3l-112 -3zM226 483q13 29 24 67t11 56l-36 4l-5 52l5 44l67 4l29 -4l4 -51l-4 -45l-62 -140z" />
    <glyph glyph-name="lcommaaccent" unicode="&#x13c;" horiz-adv-x="284" 
d="M35 30l74 9v610l-73 -2l-5 31l112 32l46 4v-675l80 -9l-5 -31l-112 3l-112 -3zM99 -226l23 101l-23 35v40h89v-80l-66 -106z" />
    <glyph glyph-name="ldot" unicode="&#x140;" horiz-adv-x="369" 
d="M35 30l74 9v610l-73 -2l-5 31l112 32l46 4v-675l80 -9l-5 -31l-112 3l-112 -3zM267 354l-5 53l5 45l69 4l29 -4l4 -53l-4 -45l-70 -5z" />
    <glyph glyph-name="lslash" unicode="&#x142;" horiz-adv-x="284" 
d="M269 30l-5 -31l-112 3l-112 -3l-5 31l74 9v317l-72 -35v38l72 35v255l-73 -2l-5 31l112 32l46 4v-281l76 37v-38l-76 -37v-356z" />
    <glyph glyph-name="nacute" unicode="&#x144;" horiz-adv-x="578" 
d="M34 30l74 9v371l-73 -7l-5 31l112 32l38 3l6 -85l147 98q65 0 96 -16t41 -50t10 -100v-277l81 -9l-5 -31l-112 3l-92 -3l-5 31l53 9v290q0 81 -70 81q-25 0 -49 -12t-60 -36l-33 -21v-302l59 -9l-5 -31l-91 3l-112 -3zM330 710h102l-120 -161h-30z" />
    <glyph glyph-name="napostrophe" unicode="&#x149;" horiz-adv-x="578" 
d="M34 534l47 101l-25 35v40h90v-80l-79 -106zM34 30l74 9v371l-73 -7l-5 31l112 32l38 3l6 -85l147 98q65 0 96 -16t41 -50t10 -100v-277l81 -9l-5 -31l-112 3l-92 -3l-5 31l53 9v290q0 81 -70 81q-25 0 -49 -12t-60 -36l-33 -21v-302l59 -9l-5 -31l-91 3l-112 -3z" />
    <glyph glyph-name="ncaron" unicode="&#x148;" horiz-adv-x="578" 
d="M34 30l74 9v371l-73 -7l-5 31l112 32l38 3l6 -85l147 98q65 0 96 -16t41 -50t10 -100v-277l81 -9l-5 -31l-112 3l-92 -3l-5 31l53 9v290q0 81 -70 81q-25 0 -49 -12t-60 -36l-33 -21v-302l59 -9l-5 -31l-91 3l-112 -3zM150 710h38l82 -77l19 -26l19 26l82 77h38
l-105 -161h-68z" />
    <glyph glyph-name="ncommaaccent" unicode="&#x146;" horiz-adv-x="578" 
d="M34 30l74 9v371l-73 -7l-5 31l112 32l38 3l6 -85l147 98q65 0 96 -16t41 -50t10 -100v-277l81 -9l-5 -31l-112 3l-92 -3l-5 31l53 9v290q0 81 -70 81q-25 0 -49 -12t-60 -36l-33 -21v-302l59 -9l-5 -31l-91 3l-112 -3zM246 -226l23 101l-23 35v40h89v-80l-66 -106z" />
    <glyph glyph-name="ntilde" unicode="&#xf1;" horiz-adv-x="578" 
d="M34 30l74 9v371l-73 -7l-5 31l112 32l38 3l6 -85l147 98q65 0 96 -16t41 -50t10 -100v-277l81 -9l-5 -31l-112 3l-92 -3l-5 31l53 9v290q0 81 -70 81q-25 0 -49 -12t-60 -36l-33 -21v-302l59 -9l-5 -31l-91 3l-112 -3zM193 635l-29 -57h-27l21 87l77 22l148 -59l30 57h26
l-22 -92l-75 -17z" />
    <glyph glyph-name="eng" unicode="&#x14b;" horiz-adv-x="497" 
d="M276 -156h93l11 22q10 21 15.5 42.5t5.5 62.5v358q0 81 -71 81q-25 0 -50.5 -12.5t-58.5 -34.5l-33 -22v-302l59 -9l-5 -31l-91 3l-112 -3l-5 31l74 9v371l-73 -7l-5 31l112 32l38 3l6 -85l147 98q65 0 96 -16t41 -50t10 -100v-331q0 -37 -9 -64.5t-34 -57.5l-83 -98h-78
v79z" />
    <glyph glyph-name="oacute" unicode="&#xf3;" horiz-adv-x="536" 
d="M143.5 16.5q-50.5 31.5 -78.5 86t-28 120.5q0 109 61 174.5t179 84.5q65 0 115.5 -31.5t78.5 -86.5t28 -121q0 -108 -61 -174.5t-178 -83.5q-66 0 -116.5 31.5zM381.5 88q34.5 57 34.5 141q0 59 -20.5 106t-57 74t-84.5 27q-64 0 -98.5 -57t-34.5 -143q0 -52 20 -99
t57 -76.5t85 -29.5q64 0 98.5 57zM309 710h102l-120 -161h-30z" />
    <glyph glyph-name="obreve" unicode="&#x14f;" horiz-adv-x="536" 
d="M143.5 16.5q-50.5 31.5 -78.5 86t-28 120.5q0 109 61 174.5t179 84.5q65 0 115.5 -31.5t78.5 -86.5t28 -121q0 -108 -61 -174.5t-178 -83.5q-66 0 -116.5 31.5zM381.5 88q34.5 57 34.5 141q0 59 -20.5 106t-57 74t-84.5 27q-64 0 -98.5 -57t-34.5 -143q0 -52 20 -99
t57 -76.5t85 -29.5q64 0 98.5 57zM193 591.5q-45 36.5 -61 88.5l28 19q26 -40 52 -57.5t60 -17.5q25 0 43.5 10.5t30 24.5t29.5 40l32 -19q-22 -40 -51 -70.5t-70 -54.5q-48 0 -93 36.5z" />
    <glyph glyph-name="ocircumflex" unicode="&#xf4;" horiz-adv-x="536" 
d="M143.5 16.5q-50.5 31.5 -78.5 86t-28 120.5q0 109 61 174.5t179 84.5q65 0 115.5 -31.5t78.5 -86.5t28 -121q0 -108 -61 -174.5t-178 -83.5q-66 0 -116.5 31.5zM381.5 88q34.5 57 34.5 141q0 59 -20.5 106t-57 74t-84.5 27q-64 0 -98.5 -57t-34.5 -143q0 -52 20 -99
t57 -76.5t85 -29.5q64 0 98.5 57zM234 710h68l105 -161h-38l-82 77l-19 26l-19 -26l-82 -77h-38z" />
    <glyph glyph-name="odieresis" unicode="&#xf6;" horiz-adv-x="536" 
d="M143.5 16.5q-50.5 31.5 -78.5 86t-28 120.5q0 109 61 174.5t179 84.5q65 0 115.5 -31.5t78.5 -86.5t28 -121q0 -108 -61 -174.5t-178 -83.5q-66 0 -116.5 31.5zM381.5 88q34.5 57 34.5 141q0 59 -20.5 106t-57 74t-84.5 27q-64 0 -98.5 -57t-34.5 -143q0 -52 20 -99
t57 -76.5t85 -29.5q64 0 98.5 57zM138 585l-4 45l8 38l56 4l23 -4l5 -45l-9 -38l-55 -5zM314 585l-4 45l8 38l56 4l23 -4l5 -45l-10 -38l-54 -5z" />
    <glyph glyph-name="oe" unicode="&#x153;" horiz-adv-x="836" 
d="M799 60q-35 -23 -81 -42.5t-92 -32.5q-54 0 -101.5 23.5t-79.5 67.5q-62 -71 -185 -91q-66 0 -116.5 31t-78.5 85t-28 120q0 109 60.5 174.5t179.5 85.5q55 0 101 -23.5t76 -64.5q58 65 170 89q173 0 173 -184v-41h-300q3 -92 49 -148.5t126 -56.5q49 0 114 44z
M531.5 400q-29.5 -37 -33.5 -106l204 10q0 66 -18.5 99.5t-73.5 33.5q-49 0 -78.5 -37zM380.5 88q34.5 57 34.5 141q0 59 -20 106t-56.5 73.5t-84.5 26.5q-64 0 -98 -56.5t-34 -142.5q0 -52 20 -99t56.5 -76.5t84.5 -29.5q63 0 97.5 57z" />
    <glyph glyph-name="ograve" unicode="&#xf2;" horiz-adv-x="536" 
d="M143.5 16.5q-50.5 31.5 -78.5 86t-28 120.5q0 109 61 174.5t179 84.5q65 0 115.5 -31.5t78.5 -86.5t28 -121q0 -108 -61 -174.5t-178 -83.5q-66 0 -116.5 31.5zM381.5 88q34.5 57 34.5 141q0 59 -20.5 106t-57 74t-84.5 27q-64 0 -98.5 -57t-34.5 -143q0 -52 20 -99
t57 -76.5t85 -29.5q64 0 98.5 57zM148 710h102l48 -161h-30z" />
    <glyph glyph-name="ohungarumlaut" unicode="&#x151;" horiz-adv-x="536" 
d="M143.5 16.5q-50.5 31.5 -78.5 86t-28 120.5q0 109 61 174.5t179 84.5q65 0 115.5 -31.5t78.5 -86.5t28 -121q0 -108 -61 -174.5t-178 -83.5q-66 0 -116.5 31.5zM381.5 88q34.5 57 34.5 141q0 59 -20.5 106t-57 74t-84.5 27q-64 0 -98.5 -57t-34.5 -143q0 -52 20 -99
t57 -76.5t85 -29.5q64 0 98.5 57zM221 710h102l-121 -161h-30zM382 710h102l-121 -161h-30z" />
    <glyph glyph-name="omacron" unicode="&#x14d;" horiz-adv-x="536" 
d="M143.5 16.5q-50.5 31.5 -78.5 86t-28 120.5q0 109 61 174.5t179 84.5q65 0 115.5 -31.5t78.5 -86.5t28 -121q0 -108 -61 -174.5t-178 -83.5q-66 0 -116.5 31.5zM381.5 88q34.5 57 34.5 141q0 59 -20.5 106t-57 74t-84.5 27q-64 0 -98.5 -57t-34.5 -143q0 -52 20 -99
t57 -76.5t85 -29.5q64 0 98.5 57zM130 666h276v-54h-276v54z" />
    <glyph glyph-name="ordfeminine" unicode="&#xaa;" horiz-adv-x="415" 
d="M78 340.5q-33 27.5 -33 74.5q0 21 6.5 37.5t21.5 36.5l185 60v40q0 41 -9 59t-40 18q-28 0 -69 -15l-14 -60h-68v58l147 64q52 0 79 -11t38 -38t11 -79v-156q0 -24 3.5 -36.5t10.5 -23.5h41l3 -28l-103 -20l-25 62l-98 -70q-54 0 -87 27.5zM222 390l36 23v104l-122 -48
q-16 -17 -16 -45t14 -41.5t34 -13.5q24 0 54 21z" />
    <glyph glyph-name="ordmasculine" unicode="&#xba;" horiz-adv-x="481" 
d="M136.5 338q-41.5 25 -64.5 68.5t-23 97.5q0 89 51.5 141t149.5 68q53 0 94.5 -25t64.5 -69t23 -98q0 -88 -51.5 -140.5t-148.5 -67.5q-54 0 -95.5 25zM327.5 394.5q26.5 42.5 26.5 109.5q0 76 -34.5 123t-90.5 47q-49 0 -75 -42.5t-26 -111.5q0 -70 34.5 -119t89.5 -49
q49 0 75.5 42.5z" />
    <glyph glyph-name="oslash" unicode="&#xf8;" horiz-adv-x="536" 
d="M482.5 338.5q16.5 -44.5 16.5 -95.5q0 -108 -61 -174.5t-178 -83.5q-81 0 -138 46l-34 -41h-49l56 68q-28 32 -43 74.5t-15 90.5q0 109 61 174.5t179 84.5q74 0 132 -42l31 38h47l-51 -63q30 -32 46.5 -76.5zM148 122l216 264q-45 50 -110 50q-64 0 -98.5 -57t-34.5 -143
q0 -63 27 -114zM381.5 88q34.5 57 34.5 141q0 71 -30 125l-217 -265q22 -27 51 -42.5t63 -15.5q64 0 98.5 57z" />
    <glyph glyph-name="oslashacute" unicode="&#x1ff;" horiz-adv-x="536" 
d="M482.5 338.5q16.5 -44.5 16.5 -95.5q0 -108 -61 -174.5t-178 -83.5q-81 0 -138 46l-34 -41h-49l56 68q-28 32 -43 74.5t-15 90.5q0 109 61 174.5t179 84.5q74 0 132 -42l31 38h47l-51 -63q30 -32 46.5 -76.5zM148 122l216 264q-45 50 -110 50q-64 0 -98.5 -57t-34.5 -143
q0 -63 27 -114zM381.5 88q34.5 57 34.5 141q0 71 -30 125l-217 -265q22 -27 51 -42.5t63 -15.5q64 0 98.5 57zM329 710h102l-120 -161h-30z" />
    <glyph glyph-name="otilde" unicode="&#xf5;" horiz-adv-x="536" 
d="M143.5 16.5q-50.5 31.5 -78.5 86t-28 120.5q0 109 61 174.5t179 84.5q65 0 115.5 -31.5t78.5 -86.5t28 -121q0 -108 -61 -174.5t-178 -83.5q-66 0 -116.5 31.5zM381.5 88q34.5 57 34.5 141q0 59 -20.5 106t-57 74t-84.5 27q-64 0 -98.5 -57t-34.5 -143q0 -52 20 -99
t57 -76.5t85 -29.5q64 0 98.5 57zM172 635l-29 -57h-27l21 87l77 22l148 -59l30 57h26l-22 -92l-75 -17z" />
    <glyph glyph-name="racute" unicode="&#x155;" horiz-adv-x="389" 
d="M35 30l74 9v371l-74 -7l-5 31l116 32l36 3l-1 -125l116 133h76v-88h-65q-17 -2 -46.5 -24t-50.5 -48l-22 -27v-247l100 -9l-5 -35l-136 3l-108 -3zM236 710h102l-120 -161h-30z" />
    <glyph glyph-name="rcaron" unicode="&#x159;" horiz-adv-x="389" 
d="M35 30l74 9v371l-74 -7l-5 31l116 32l36 3l-1 -125l116 133h76v-88h-65q-17 -2 -46.5 -24t-50.5 -48l-22 -27v-247l100 -9l-5 -35l-136 3l-108 -3zM56 710h38l82 -77l19 -26l19 26l82 77h38l-105 -161h-68z" />
    <glyph glyph-name="rcommaaccent" unicode="&#x157;" horiz-adv-x="389" 
d="M35 30l74 9v371l-74 -7l-5 31l116 32l36 3l-1 -125l116 133h76v-88h-65q-17 -2 -46.5 -24t-50.5 -48l-22 -27v-247l100 -9l-5 -35l-136 3l-108 -3zM112 -226l23 101l-23 35v40h89v-80l-66 -106z" />
    <glyph glyph-name="sacute" unicode="&#x15b;" horiz-adv-x="419" 
d="M112 1q-42 16 -64 31l-19 103h63l37 -85q35 -19 79 -19q41 0 62.5 23.5t21.5 58.5q0 30 -16.5 47.5t-59.5 40.5l-81 42q-33 16 -56 45t-23 67q0 49 45.5 79.5t128.5 47.5q32 0 72.5 -15t65.5 -33v-91h-52l-23 75q-2 1 -23.5 10t-52.5 9t-54.5 -16.5t-23.5 -46.5
q0 -23 17 -40.5t52 -35.5l78 -40q51 -26 72 -55.5t21 -72.5q0 -62 -45.5 -93.5t-136.5 -51.5q-43 0 -85 16zM251 710h102l-120 -161h-30z" />
    <glyph glyph-name="scaron" unicode="&#x161;" horiz-adv-x="419" 
d="M112 1q-42 16 -64 31l-19 103h63l37 -85q35 -19 79 -19q41 0 62.5 23.5t21.5 58.5q0 30 -16.5 47.5t-59.5 40.5l-81 42q-33 16 -56 45t-23 67q0 49 45.5 79.5t128.5 47.5q32 0 72.5 -15t65.5 -33v-91h-52l-23 75q-2 1 -23.5 10t-52.5 9t-54.5 -16.5t-23.5 -46.5
q0 -23 17 -40.5t52 -35.5l78 -40q51 -26 72 -55.5t21 -72.5q0 -62 -45.5 -93.5t-136.5 -51.5q-43 0 -85 16zM71 710h38l82 -77l19 -26l19 26l82 77h38l-105 -161h-68z" />
    <glyph glyph-name="scedilla" unicode="&#x15f;" horiz-adv-x="419" 
d="M338.5 40.5q-40.5 -31.5 -122.5 -51.5l-25 -36q33 -2 57 -23.5t24 -56.5q0 -39 -27 -65.5t-60 -36.5l-51 -16h-57l29 38h76q15 9 23 26.5t8 35.5q0 32 -25.5 47.5t-58.5 15.5l50 68q-39 3 -76 18t-55 28l-19 103h63l37 -85q35 -19 79 -19q41 0 62.5 23.5t21.5 58.5
q0 30 -16.5 47.5t-59.5 40.5l-81 42q-33 16 -56 45t-23 67q0 49 45.5 79.5t128.5 47.5q32 0 72.5 -15t65.5 -33v-91h-52l-23 75q-2 1 -23.5 10t-52.5 9t-54.5 -16.5t-23.5 -46.5q0 -23 17 -40.5t52 -35.5l78 -40q51 -26 72 -55.5t21 -72.5q0 -58 -40.5 -89.5z" />
    <glyph glyph-name="scircumflex" unicode="&#x15d;" horiz-adv-x="419" 
d="M112 1q-42 16 -64 31l-19 103h63l37 -85q35 -19 79 -19q41 0 62.5 23.5t21.5 58.5q0 30 -16.5 47.5t-59.5 40.5l-81 42q-33 16 -56 45t-23 67q0 49 45.5 79.5t128.5 47.5q32 0 72.5 -15t65.5 -33v-91h-52l-23 75q-2 1 -23.5 10t-52.5 9t-54.5 -16.5t-23.5 -46.5
q0 -23 17 -40.5t52 -35.5l78 -40q51 -26 72 -55.5t21 -72.5q0 -62 -45.5 -93.5t-136.5 -51.5q-43 0 -85 16zM176 710h68l105 -161h-38l-82 77l-19 26l-19 -26l-82 -77h-38z" />
    <glyph glyph-name="scommaaccent" unicode="&#x219;" horiz-adv-x="419" 
d="M112 1q-42 16 -64 31l-19 103h63l37 -85q35 -19 79 -19q41 0 62.5 23.5t21.5 58.5q0 30 -16.5 47.5t-59.5 40.5l-81 42q-33 16 -56 45t-23 67q0 49 45.5 79.5t128.5 47.5q32 0 72.5 -15t65.5 -33v-91h-52l-23 75q-2 1 -23.5 10t-52.5 9t-54.5 -16.5t-23.5 -46.5
q0 -23 17 -40.5t52 -35.5l78 -40q51 -26 72 -55.5t21 -72.5q0 -62 -45.5 -93.5t-136.5 -51.5q-43 0 -85 16zM167 -226l23 101l-23 35v40h89v-80l-66 -106z" />
    <glyph glyph-name="tbar" unicode="&#x167;" horiz-adv-x="341" 
d="M184 415v-85h128v-37h-128v-179q0 -27 16.5 -43t37.5 -16q18 0 35 5t44 18l15 -30l-111 -63q-58 0 -87.5 32t-29.5 95v181h-91v37h91v85h-99v17l34 33h69v64l56 62h19v-134h156v-42h-155z" />
    <glyph glyph-name="tcaron" unicode="&#x165;" horiz-adv-x="341" 
d="M242 526q11 25 20.5 57.5t9.5 47.5l-31 3l-4 45l4 37l58 4l24 -4l4 -43l-4 -39l-53 -119zM133.5 17q-29.5 32 -29.5 95v303h-99v17l34 33h69v64l56 62h19v-134h156v-42h-155v-301q0 -27 16.5 -43t37.5 -16q18 0 35 5t44 18l15 -30l-111 -63q-58 0 -87.5 32z" />
    <glyph glyph-name="uni0163" unicode="&#x163;" horiz-adv-x="341" 
d="M184 415v-301q0 -27 16.5 -43t37.5 -16q18 0 35 5t44 18l15 -30l-111 -63h-10l-22 -32q33 -2 57 -23.5t24 -56.5q0 -39 -27 -65.5t-60 -36.5l-51 -16h-57l29 38h76q15 9 23 26.5t8 35.5q0 32 -25.5 47.5t-58.5 15.5l53 72q-76 20 -76 122v303h-99v17l34 33h69v64l56 62
h19v-134h156v-42h-155z" />
    <glyph glyph-name="uni021B" unicode="&#x21b;" horiz-adv-x="341" 
d="M133.5 17q-29.5 32 -29.5 95v303h-99v17l34 33h69v64l56 62h19v-134h156v-42h-155v-301q0 -27 16.5 -43t37.5 -16q18 0 35 5t44 18l15 -30l-111 -63q-58 0 -87.5 32zM165 -226l23 101l-23 35v40h89v-80l-66 -106z" />
    <glyph glyph-name="thorn" unicode="&#xfe;" horiz-adv-x="549" 
d="M20 -200l74 10v844l-74 -6l-5 30l113 32l46 4v-327l124 95q102 0 154.5 -62t52.5 -174q0 -120 -66 -183t-180 -78q-47 0 -85 24v-199l109 -10l-5 -31l-140 3l-113 -3zM386 83q35 51 35 136q0 87 -30 142t-79 55q-39 0 -105 -50l-33 -25v-249q18 -28 50 -44t69 -16
q58 0 93 51z" />
    <glyph glyph-name="uacute" unicode="&#xfa;" horiz-adv-x="558" 
d="M141.5 2q-32.5 17 -42.5 51t-10 98v259l-75 -5l-5 36l116 25l44 4v-335q0 -41 17.5 -59.5t55.5 -18.5q24 0 52.5 14.5t68.5 41.5l21 13v284l-63 -5l-5 36l105 25l43 4v-341q0 -30 2.5 -46t8.5 -31h53l4 -31l-117 -24l-28 79l-147 -91q-66 0 -98.5 17zM302 710h102
l-120 -161h-30z" />
    <glyph glyph-name="ubreve" unicode="&#x16d;" horiz-adv-x="558" 
d="M141.5 2q-32.5 17 -42.5 51t-10 98v259l-75 -5l-5 36l116 25l44 4v-335q0 -41 17.5 -59.5t55.5 -18.5q24 0 52.5 14.5t68.5 41.5l21 13v284l-63 -5l-5 36l105 25l43 4v-341q0 -30 2.5 -46t8.5 -31h53l4 -31l-117 -24l-28 79l-147 -91q-66 0 -98.5 17zM186 591.5
q-45 36.5 -61 88.5l28 19q26 -40 52 -57.5t60 -17.5q25 0 43.5 10.5t30 24.5t29.5 40l32 -19q-22 -40 -51 -70.5t-70 -54.5q-48 0 -93 36.5z" />
    <glyph glyph-name="ucircumflex" unicode="&#xfb;" horiz-adv-x="558" 
d="M141.5 2q-32.5 17 -42.5 51t-10 98v259l-75 -5l-5 36l116 25l44 4v-335q0 -41 17.5 -59.5t55.5 -18.5q24 0 52.5 14.5t68.5 41.5l21 13v284l-63 -5l-5 36l105 25l43 4v-341q0 -30 2.5 -46t8.5 -31h53l4 -31l-117 -24l-28 79l-147 -91q-66 0 -98.5 17zM227 710h68
l105 -161h-38l-82 77l-19 26l-19 -26l-82 -77h-38z" />
    <glyph glyph-name="udieresis" unicode="&#xfc;" horiz-adv-x="558" 
d="M141.5 2q-32.5 17 -42.5 51t-10 98v259l-75 -5l-5 36l116 25l44 4v-335q0 -41 17.5 -59.5t55.5 -18.5q24 0 52.5 14.5t68.5 41.5l21 13v284l-63 -5l-5 36l105 25l43 4v-341q0 -30 2.5 -46t8.5 -31h53l4 -31l-117 -24l-28 79l-147 -91q-66 0 -98.5 17zM131 585l-4 45l8 38
l56 4l23 -4l5 -45l-9 -38l-55 -5zM307 585l-4 45l8 38l56 4l23 -4l5 -45l-10 -38l-54 -5z" />
    <glyph glyph-name="ugrave" unicode="&#xf9;" horiz-adv-x="558" 
d="M141.5 2q-32.5 17 -42.5 51t-10 98v259l-75 -5l-5 36l116 25l44 4v-335q0 -41 17.5 -59.5t55.5 -18.5q24 0 52.5 14.5t68.5 41.5l21 13v284l-63 -5l-5 36l105 25l43 4v-341q0 -30 2.5 -46t8.5 -31h53l4 -31l-117 -24l-28 79l-147 -91q-66 0 -98.5 17zM141 710h102
l48 -161h-30z" />
    <glyph glyph-name="uhungarumlaut" unicode="&#x171;" horiz-adv-x="558" 
d="M141.5 2q-32.5 17 -42.5 51t-10 98v259l-75 -5l-5 36l116 25l44 4v-335q0 -41 17.5 -59.5t55.5 -18.5q24 0 52.5 14.5t68.5 41.5l21 13v284l-63 -5l-5 36l105 25l43 4v-341q0 -30 2.5 -46t8.5 -31h53l4 -31l-117 -24l-28 79l-147 -91q-66 0 -98.5 17zM214 710h102
l-121 -161h-30zM375 710h102l-121 -161h-30z" />
    <glyph glyph-name="umacron" unicode="&#x16b;" horiz-adv-x="558" 
d="M141.5 2q-32.5 17 -42.5 51t-10 98v259l-75 -5l-5 36l116 25l44 4v-335q0 -41 17.5 -59.5t55.5 -18.5q24 0 52.5 14.5t68.5 41.5l21 13v284l-63 -5l-5 36l105 25l43 4v-341q0 -30 2.5 -46t8.5 -31h53l4 -31l-117 -24l-28 79l-147 -91q-66 0 -98.5 17zM123 666h276v-54
h-276v54z" />
    <glyph glyph-name="uogonek" unicode="&#x173;" horiz-adv-x="558" 
d="M401 -200q28 -15 75 -15v-30q-98 0 -141.5 26.5t-43.5 81.5v38l118 113l-22 62l-147 -91q-66 0 -98.5 17t-42.5 51t-10 98v259l-75 -5l-5 36l116 25l44 4v-335q0 -41 17.5 -59.5t55.5 -18.5q24 0 52.5 14.5t68.5 41.5l21 13v284l-63 -5l-5 36l105 25l43 4v-341
q0 -30 2.5 -46t8.5 -31h53l4 -31l-92 -19l-67 -102v-45q0 -40 28 -55z" />
    <glyph glyph-name="uring" unicode="&#x16f;" horiz-adv-x="558" 
d="M141.5 2q-32.5 17 -42.5 51t-10 98v259l-75 -5l-5 36l116 25l44 4v-335q0 -41 17.5 -59.5t55.5 -18.5q24 0 52.5 14.5t68.5 41.5l21 13v284l-63 -5l-5 36l105 25l43 4v-341q0 -30 2.5 -46t8.5 -31h53l4 -31l-117 -24l-28 79l-147 -91q-66 0 -98.5 17zM191 557.5
q-29 20.5 -29 66.5q0 40 25 59t73 32q99 0 99 -91q0 -26 -9 -40.5t-23.5 -22t-40.5 -16.5l-23 -8q-43 0 -72 20.5zM300 587.5q16 14.5 16 36.5q0 23 -16 39t-39 16t-39 -16t-16 -39q0 -22 16 -36.5t39 -14.5t39 14.5z" />
    <glyph glyph-name="utilde" unicode="&#x169;" horiz-adv-x="558" 
d="M141.5 2q-32.5 17 -42.5 51t-10 98v259l-75 -5l-5 36l116 25l44 4v-335q0 -41 17.5 -59.5t55.5 -18.5q24 0 52.5 14.5t68.5 41.5l21 13v284l-63 -5l-5 36l105 25l43 4v-341q0 -30 2.5 -46t8.5 -31h53l4 -31l-117 -24l-28 79l-147 -91q-66 0 -98.5 17zM165 635l-29 -57
h-27l21 87l77 22l148 -59l30 57h26l-22 -92l-75 -17z" />
    <glyph glyph-name="wacute" unicode="&#x1e83;" horiz-adv-x="827" 
d="M71 427l-66 10l5 31l104 -3l91 3l5 -31l-59 -10l103 -310l8 -53l119 327l-13 36l-42 10l5 31l80 -3l90 3l5 -31l-58 -10l103 -310l8 -53l130 363l-46 10l5 31l67 -3l102 3l5 -31l-66 -10l-164 -410l-71 -31l-101 291l-5 65l-120 -325l-71 -31zM455 710h102l-120 -161h-30
z" />
    <glyph glyph-name="wcircumflex" unicode="&#x175;" horiz-adv-x="827" 
d="M71 427l-66 10l5 31l104 -3l91 3l5 -31l-59 -10l103 -310l8 -53l119 327l-13 36l-42 10l5 31l80 -3l90 3l5 -31l-58 -10l103 -310l8 -53l130 363l-46 10l5 31l67 -3l102 3l5 -31l-66 -10l-164 -410l-71 -31l-101 291l-5 65l-120 -325l-71 -31zM380 710h68l105 -161h-38
l-82 77l-19 26l-19 -26l-82 -77h-38z" />
    <glyph glyph-name="wdieresis" unicode="&#x1e85;" horiz-adv-x="827" 
d="M71 427l-66 10l5 31l104 -3l91 3l5 -31l-59 -10l103 -310l8 -53l119 327l-13 36l-42 10l5 31l80 -3l90 3l5 -31l-58 -10l103 -310l8 -53l130 363l-46 10l5 31l67 -3l102 3l5 -31l-66 -10l-164 -410l-71 -31l-101 291l-5 65l-120 -325l-71 -31zM284 585l-4 45l8 38l56 4
l23 -4l5 -45l-9 -38l-55 -5zM460 585l-4 45l8 38l56 4l23 -4l5 -45l-10 -38l-54 -5z" />
    <glyph glyph-name="wgrave" unicode="&#x1e81;" horiz-adv-x="827" 
d="M71 427l-66 10l5 31l104 -3l91 3l5 -31l-59 -10l103 -310l8 -53l119 327l-13 36l-42 10l5 31l80 -3l90 3l5 -31l-58 -10l103 -310l8 -53l130 363l-46 10l5 31l67 -3l102 3l5 -31l-66 -10l-164 -410l-71 -31l-101 291l-5 65l-120 -325l-71 -31zM294 710h102l48 -161h-30z
" />
    <glyph glyph-name="yacute" unicode="&#xfd;" horiz-adv-x="534" 
d="M84 -146h76l98 156l-23 -7l-164 424l-66 10l5 31l109 -3l102 3l5 -31l-70 -10l109 -304l7 -64l124 368l-46 10l5 31l86 -3l83 3l5 -31l-66 -10l-160 -413l-111 -249h-108v89zM319 710h102l-120 -161h-30z" />
    <glyph glyph-name="ycircumflex" unicode="&#x177;" horiz-adv-x="534" 
d="M84 -146h76l98 156l-23 -7l-164 424l-66 10l5 31l109 -3l102 3l5 -31l-70 -10l109 -304l7 -64l124 368l-46 10l5 31l86 -3l83 3l5 -31l-66 -10l-160 -413l-111 -249h-108v89zM244 710h68l105 -161h-38l-82 77l-19 26l-19 -26l-82 -77h-38z" />
    <glyph glyph-name="ydieresis" unicode="&#xff;" horiz-adv-x="534" 
d="M84 -146h76l98 156l-23 -7l-164 424l-66 10l5 31l109 -3l102 3l5 -31l-70 -10l109 -304l7 -64l124 368l-46 10l5 31l86 -3l83 3l5 -31l-66 -10l-160 -413l-111 -249h-108v89zM148 585l-4 45l8 38l56 4l23 -4l5 -45l-9 -38l-55 -5zM324 585l-4 45l8 38l56 4l23 -4l5 -45
l-10 -38l-54 -5z" />
    <glyph glyph-name="ygrave" unicode="&#x1ef3;" horiz-adv-x="534" 
d="M84 -146h76l98 156l-23 -7l-164 424l-66 10l5 31l109 -3l102 3l5 -31l-70 -10l109 -304l7 -64l124 368l-46 10l5 31l86 -3l83 3l5 -31l-66 -10l-160 -413l-111 -249h-108v89zM158 710h102l48 -161h-30z" />
    <glyph glyph-name="zacute" unicode="&#x17a;" horiz-adv-x="462" 
d="M38 29l268 371l37 30l-209 -4l-32 -87h-36v128h349l14 -29l-272 -377l-32 -24l218 3l55 93h39l-28 -133h-360zM285 710h102l-120 -161h-30z" />
    <glyph glyph-name="zcaron" unicode="&#x17e;" horiz-adv-x="462" 
d="M38 29l268 371l37 30l-209 -4l-32 -87h-36v128h349l14 -29l-272 -377l-32 -24l218 3l55 93h39l-28 -133h-360zM105 710h38l82 -77l19 -26l19 26l82 77h38l-105 -161h-68z" />
    <glyph glyph-name="zdotaccent" unicode="&#x17c;" horiz-adv-x="462" 
d="M38 29l268 371l37 30l-209 -4l-32 -87h-36v128h349l14 -29l-272 -377l-32 -24l218 3l55 93h39l-28 -133h-360zM193 586l-6 56l9 46l76 6l23 -6l5 -55l-11 -47l-75 -6z" />
    <glyph glyph-name="germandbls" unicode="&#xdf;" horiz-adv-x="587" 
d="M315 -1q-39 17 -55 33l-6 97h50l24 -74q22 -13 39 -20t42 -7q32 0 54.5 23.5t22.5 53.5q0 31 -16.5 55.5t-54.5 47.5l-59 35q-40 24 -59.5 64t-19.5 90l64 41q31 21 51.5 55.5t20.5 83.5q0 22 -11.5 45t-35.5 39t-58 16q-57 0 -85 -45t-28 -131v-501l-29 2l-119 -3l-5 25
l74 10v382h-90v16l28 33h62v49q0 49 33 95.5t94 77.5l61 31q87 0 140.5 -34.5t53.5 -95.5q0 -41 -17.5 -70.5t-45.5 -51.5t-88 -60q0 -31 14 -55.5t55 -46.5l63 -35q49 -26 68.5 -57.5t19.5 -70.5q0 -57 -50 -99.5t-122 -59.5q-41 0 -80 17z" />
    <glyph glyph-name="eth" unicode="&#xf0;" horiz-adv-x="528" 
d="M451 485q42 -79 42 -192q0 -134 -56 -207t-170 -101q-65 0 -118 32t-83.5 91.5t-30.5 137.5q0 99 52 162t147 67l156 -75q-27 121 -125 197l-117 -57v55l71 35q-45 28 -107 54l20 36q83 -33 139 -65l129 63v-55l-80 -39q89 -60 131 -139zM366 91q36 69 36 194q0 41 -4 70
l-35 19q-36 19 -64.5 29.5t-53.5 10.5q-54 0 -87 -48t-33 -120q0 -66 20 -117t53 -79t71 -28q61 0 97 69z" />
    <glyph glyph-name="grave" unicode="`" horiz-adv-x="600" 
d="M136 710h102l48 -161h-30z" />
    <glyph glyph-name="acute" unicode="&#xb4;" horiz-adv-x="600" 
d="M184 710h102l-120 -161h-30z" />
    <glyph glyph-name="circumflex" unicode="&#x2c6;" horiz-adv-x="600" 
d="M208 710h68l105 -161h-38l-82 77l-19 26l-19 -26l-82 -77h-38z" />
    <glyph glyph-name="tilde" unicode="&#x2dc;" horiz-adv-x="600" 
d="M154 632l-29 -57h-27l21 87l77 22l148 -59l30 57h26l-22 -92l-75 -17z" />
    <glyph glyph-name="caron" unicode="&#x2c7;" horiz-adv-x="600" 
d="M103 710h38l82 -77l19 -26l19 26l82 77h38l-105 -161h-68z" />
    <glyph glyph-name="dieresis" unicode="&#xa8;" horiz-adv-x="600" 
d="M116 585l-4 45l8 38l56 4l23 -4l5 -45l-9 -38l-55 -5zM292 585l-4 45l8 38l56 4l23 -4l5 -45l-10 -38l-54 -5z" />
    <glyph glyph-name="macron" unicode="&#xaf;" horiz-adv-x="600" 
d="M112 666h276v-54h-276v54z" />
    <glyph glyph-name="breve" unicode="&#x2d8;" horiz-adv-x="600" 
d="M175 591.5q-45 36.5 -61 88.5l28 19q26 -40 52 -57.5t60 -17.5q25 0 43.5 10.5t30 24.5t29.5 40l32 -19q-22 -40 -51 -70.5t-70 -54.5q-48 0 -93 36.5z" />
    <glyph glyph-name="ring" unicode="&#x2da;" horiz-adv-x="600" 
d="M180 557.5q-29 20.5 -29 66.5q0 40 25 59t73 32q99 0 99 -91q0 -26 -9 -40.5t-23.5 -22t-40.5 -16.5l-23 -8q-43 0 -72 20.5zM289 587.5q16 14.5 16 36.5q0 23 -16 39t-39 16t-39 -16t-16 -39q0 -22 16 -36.5t39 -14.5t39 14.5z" />
    <glyph glyph-name="hungarumlaut" unicode="&#x2dd;" horiz-adv-x="600" 
d="M92 710h102l-121 -161h-30zM253 710h102l-121 -161h-30z" />
    <glyph glyph-name="dotaccent" unicode="&#x2d9;" horiz-adv-x="600" 
d="M201 586l-6 56l9 46l76 6l23 -6l5 -55l-11 -47l-75 -6z" />
    <glyph glyph-name="cedilla" unicode="&#xb8;" horiz-adv-x="600" 
d="M196 -207h76q15 9 23 26.5t8 35.5q0 32 -25.5 47.5t-58.5 15.5l70 95l26 -11l-34 -49q33 -2 57 -23.5t24 -56.5q0 -39 -27 -65.5t-60 -36.5l-51 -16h-57z" />
    <glyph glyph-name="ogonek" unicode="&#x2db;" horiz-adv-x="600" 
d="M207.5 -218.5q-43.5 26.5 -43.5 81.5v38l126 121h36l-80 -122v-45q0 -40 28 -55t75 -15v-30q-98 0 -141.5 26.5z" />
    <glyph glyph-name="comma" unicode="," horiz-adv-x="201" 
d="M72 -127q13 29 24 67t11 56l-36 4l-5 52l5 43l67 5l29 -5l4 -51l-4 -44l-62 -141z" />
    <glyph glyph-name="semicolon" unicode=";" horiz-adv-x="250" 
d="M80 380l-5 52l5 44l67 4l29 -4l4 -52l-4 -44l-68 -5zM80 -127q13 29 24 67t11 56l-36 4l-5 52l5 43l67 5l29 -5l4 -51l-4 -44l-62 -141z" />
    <glyph glyph-name="colon" unicode=":" horiz-adv-x="230" 
d="M80 380l-5 52l5 44l67 4l29 -4l4 -52l-4 -44l-68 -5zM80 0l-5 52l5 44l67 4l29 -4l4 -52l-4 -44l-68 -5z" />
    <glyph glyph-name="period" unicode="." horiz-adv-x="217" 
d="M75 0l-5 52l5 44l67 4l29 -4l4 -52l-4 -44l-68 -5z" />
    <glyph glyph-name="ellipsis" unicode="&#x2026;" horiz-adv-x="741" 
d="M80 0l-5 53l5 45l69 4l29 -4l4 -53l-4 -45l-70 -5zM322 0l-5 53l5 45l70 4l28 -4l4 -53l-4 -45l-70 -5zM564 0l-5 53l5 45l69 4l29 -4l4 -53l-4 -45l-70 -5z" />
    <glyph glyph-name="hyphen" unicode="-" horiz-adv-x="370" 
d="M35 303h300v-61h-300v61z" />
    <glyph glyph-name="exclam" unicode="!" horiz-adv-x="263" 
d="M94 428l-3 282h79l-3 -281l-27 -194h-19zM84 0l-5 52l5 44l68 4l28 -4l4 -52l-4 -44l-68 -5z" />
    <glyph glyph-name="exclamdown" unicode="&#xa1;" horiz-adv-x="253" 
d="M78 372l-4 52l4 44l68 5l28 -5l5 -52l-5 -44l-68 -4zM91 39l27 194h19l27 -193l3 -282h-79z" />
    <glyph glyph-name="question" unicode="?" horiz-adv-x="393" 
d="M120 360l39 22q46 26 69.5 64.5t23.5 79.5q0 58 -23.5 93.5t-76.5 35.5l-19 -81h-68v119l82 11q100 -12 148 -62t48 -119q0 -66 -28 -106t-84 -67l-46 -22l-7 -104h-52zM112 -6l-5 52l5 44l68 4l28 -4l4 -52l-4 -44l-68 -5z" />
    <glyph glyph-name="questiondown" unicode="&#xbf;" horiz-adv-x="358" 
d="M251 467l5 -52l-5 -44l-68 -4l-28 4l-4 52l4 44l68 5zM243 101l-39 -22q-46 -26 -69.5 -64.5t-23.5 -79.5q0 -58 23.5 -93.5t76.5 -35.5l19 81h68v-119l-82 -11q-100 12 -148 62t-48 119q0 66 28 106t84 67l46 22l7 104h52z" />
    <glyph glyph-name="quoteleft" unicode="&#x2018;" horiz-adv-x="177" 
d="M139 707q-13 -29 -24 -67t-11 -56l36 -4l5 -52l-5 -44l-67 -4l-29 4l-4 51l4 45l62 140z" />
    <glyph glyph-name="quoteright" unicode="&#x2019;" horiz-adv-x="178" 
d="M52 483q13 29 24 67t11 56l-36 4l-5 52l5 44l67 4l29 -4l4 -51l-4 -45l-62 -140z" />
    <glyph glyph-name="quotedblleft" unicode="&#x201c;" horiz-adv-x="326" 
d="M139 707q-13 -29 -24 -67t-11 -56l36 -4l5 -52l-5 -44l-67 -4l-29 4l-4 51l4 45l62 140zM288 707q-13 -29 -24 -67t-11 -56l36 -4l5 -52l-5 -44l-67 -4l-29 4l-4 51l4 45l62 140z" />
    <glyph glyph-name="quotedblright" unicode="&#x201d;" horiz-adv-x="327" 
d="M199 483q13 29 24 67t11 56l-36 4l-5 52l5 44l67 4l29 -4l4 -51l-4 -45l-62 -140zM50 483q13 29 24 67t11 56l-36 4l-5 52l5 44l67 4l29 -4l4 -51l-4 -45l-62 -140z" />
    <glyph glyph-name="quotesinglbase" unicode="&#x201a;" horiz-adv-x="197" 
d="M54 -129q13 29 24 67t11 56l-36 4l-5 52l5 44l67 4l29 -4l4 -51l-4 -45l-62 -140z" />
    <glyph glyph-name="quotedblbase" unicode="&#x201e;" horiz-adv-x="346" 
d="M203 -129q13 29 24 67t11 56l-36 4l-5 52l5 44l67 4l29 -4l4 -51l-4 -45l-62 -140zM54 -129q13 29 24 67t11 56l-36 4l-5 52l5 44l67 4l29 -4l4 -51l-4 -45l-62 -140z" />
    <glyph glyph-name="guilsinglleft" unicode="&#x2039;" horiz-adv-x="263" 
d="M15 235l182 220h36l-127 -221l127 -219h-37z" />
    <glyph glyph-name="guilsinglright" unicode="&#x203a;" horiz-adv-x="263" 
d="M157 234l-127 221h36l182 -220l-181 -220h-37z" />
    <glyph glyph-name="periodcentered" unicode="&#xb7;" horiz-adv-x="217" 
d="M60 354l-5 53l5 45l69 4l29 -4l4 -53l-4 -45l-70 -5z" />
    <glyph glyph-name="slash" unicode="/" horiz-adv-x="496" 
d="M443 718h58l-451 -948h-60z" />
    <glyph glyph-name="bar" unicode="|" horiz-adv-x="276" 
d="M110 718h56v-963h-56v963z" />
    <glyph glyph-name="endash" unicode="&#x2013;" horiz-adv-x="470" 
d="M35 300h400v-46h-400v46z" />
    <glyph glyph-name="emdash" unicode="&#x2014;" horiz-adv-x="870" 
d="M35 300h800v-46h-800v46z" />
    <glyph glyph-name="bullet" unicode="&#x2022;" horiz-adv-x="229" 
d="M55 244l-5 64l5 55l81 5l38 -5l5 -63l-5 -56l-81 -5z" />
    <glyph glyph-name="parenleft" unicode="(" horiz-adv-x="268" 
d="M116 -66q-35 62 -52 134t-17 182q0 111 17 185t54 137t110 154l23 -21q-71 -96 -100 -198t-29 -255q0 -135 31 -256.5t98 -212.5l-23 -21q-77 110 -112 172z" />
    <glyph glyph-name="parenright" unicode=")" horiz-adv-x="268" 
d="M17 -217q67 91 98 212.5t31 256.5q0 153 -29 255t-100 198l23 21q73 -92 110 -155t54 -136.5t17 -184.5q0 -110 -17 -181.5t-51.5 -133.5t-112.5 -173z" />
    <glyph glyph-name="bracketleft" unicode="[" horiz-adv-x="333" 
d="M89 715l83 -3l126 3v-31l-137 -10q-2 -110 -2 -155q-3 -130 -3 -232q0 -133 3 -301l2 -176l137 -10v-31l-126 3l-83 -3v946z" />
    <glyph glyph-name="bracketright" unicode="]" horiz-adv-x="333" 
d="M35 -200l137 10q5 142 5 346v131q0 198 -5 387l-137 10v31l126 -3l83 3v-946l-83 3l-126 -3v31z" />
    <glyph glyph-name="braceleft" unicode="{" horiz-adv-x="348" 
d="M156.5 -191.5q-39.5 38.5 -39.5 101.5l1 285l-66 60v14q31 10 45 26t17.5 36t3.5 54l-1 190q0 64 38.5 102t102.5 38h48v-31h-52q-31 0 -52.5 -25t-19.5 -80l6 -194q1 -39 -16.5 -69.5t-66.5 -53.5l83 -52l-6 -304q-1 -55 20 -80t52 -25h52v-31h-46q-64 0 -103.5 38.5z
" />
    <glyph glyph-name="braceright" unicode="}" horiz-adv-x="348" 
d="M42 -199h52q31 0 52 25t20 79l-6 221q-1 39 16.5 69.5t66.5 53.5l-83 52l6 278q1 55 -20 80t-52 25h-52v31h48q64 0 102.5 -38t38.5 -102l-1 -259l66 -60v-14q-31 -10 -45 -26t-17.5 -36t-3.5 -54l1 -216q0 -63 -39.5 -101.5t-103.5 -38.5h-46v31z" />
    <glyph glyph-name="uni00AD" unicode="&#xad;" horiz-adv-x="370" 
d="M35 303h300v-61h-300v61z" />
    <glyph glyph-name="guillemotleft" unicode="&#xab;" horiz-adv-x="435" 
d="M15 235l182 220h36l-127 -221l127 -219h-37zM187 235l182 220h36l-127 -221l127 -219h-37z" />
    <glyph glyph-name="guillemotright" unicode="&#xbb;" horiz-adv-x="435" 
d="M157 234l-127 221h36l182 -220l-181 -220h-37zM329 234l-127 221h36l182 -220l-181 -220h-37z" />
    <glyph glyph-name="zero" unicode="0" horiz-adv-x="586" 
d="M165.5 16.5q-57.5 31.5 -91.5 85.5t-34 120q0 98 63.5 162.5t190.5 97.5q68 0 126 -31.5t92 -85.5t34 -120q0 -195 -254 -260q-69 0 -126.5 31.5zM385 62q32 27 48.5 69t16.5 88q0 89 -43.5 151t-129.5 62q-44 0 -75.5 -27t-48 -69t-16.5 -88q0 -90 43 -151.5t129 -61.5
q44 0 76 27z" />
    <glyph glyph-name="one" unicode="1" horiz-adv-x="454" 
d="M36 30l159 17v327l5 18l-42 -20l-115 -26l-17 33l225 93h29v-425l159 -17l-5 -31l-197 3l-196 -3z" />
    <glyph glyph-name="two" unicode="2" horiz-adv-x="512" 
d="M20 42l179 135q73 55 105 91.5t32 70.5q0 39 -23 65t-73 26q-34 0 -64 -19l-37 -102h-66v103l182 70q78 0 125 -35.5t47 -92.5q0 -46 -19 -80t-54.5 -62t-97.5 -66l-148 -87l89 23h285v-26l-24 -56h-419z" />
    <glyph glyph-name="three" unicode="3" horiz-adv-x="463" 
d="M25 -148h209q46 21 72.5 60t26.5 85q0 57 -53 91t-141 34l-10 25l49 21q65 28 95 65t30 92q0 46 -26 76t-66 30q-18 0 -37.5 -5t-35.5 -14l-37 -103h-65v103l183 70q79 0 125 -36t46 -98q0 -58 -34 -105t-98 -76q73 -5 119 -45t46 -97q0 -52 -20 -90t-64.5 -70
t-123.5 -64l-76 -31h-114v82z" />
    <glyph glyph-name="four" unicode="4" horiz-adv-x="562" 
d="M319 11h-276l-33 31l327 425h95v-30l-337 -384l37 13h187v108l59 51h25v-159h144v-55h-144v-241h-84v241z" />
    <glyph glyph-name="five" unicode="5" horiz-adv-x="477" 
d="M45 -148h202q49 23 79 66t30 88q0 62 -42 101t-110 39q-29 0 -50 -3.5t-44 -13.5l-33 -13l-28 14l40 337h341v-27l-21 -54h-279l-26 -209l109 56q69 0 122.5 -25t82.5 -68t29 -96q0 -86 -50 -141.5t-170 -102.5l-75 -30h-107v82z" />
    <glyph glyph-name="six" unicode="6" horiz-adv-x="537" 
d="M437.5 387q54.5 -60 54.5 -161q0 -190 -234 -241q-62 0 -109.5 35.5t-73 100t-25.5 149.5q0 154 88.5 266t266.5 185l15 -38q-99 -50 -157 -98t-85.5 -107t-31.5 -140l146 109q91 0 145.5 -60zM343 54q30 23 47 64t17 93q0 73 -32.5 117.5t-85.5 44.5q-22 0 -43.5 -10.5
t-55.5 -36.5l-45 -37q2 -126 35 -192t95 -66q38 0 68 23z" />
    <glyph glyph-name="seven" unicode="7" horiz-adv-x="493" 
d="M110 -206l256 558l37 35h-383v80h438l14 -17l-279 -680h-83v24z" />
    <glyph glyph-name="eight" unicode="8" horiz-adv-x="553" 
d="M460 288q41 -42 41 -100q0 -81 -59 -130t-177 -73q-61 0 -110 24t-76.5 65t-27.5 91q0 59 37 112t111 88q-62 37 -93.5 78.5t-31.5 93.5q0 64 54 109t159 69q90 0 144.5 -39.5t54.5 -103.5q0 -111 -144 -195q77 -47 118 -89zM192.5 638.5q-30.5 -29.5 -30.5 -77.5
q0 -45 40.5 -82.5t111.5 -82.5q45 30 64 62.5t19 78.5q0 56 -32 93.5t-92 37.5q-50 0 -80.5 -29.5zM344 47q32 15 51 43t19 65q0 41 -26 75t-59 57t-83 51q-6 3 -10.5 5.5t-8.5 4.5q-50 -33 -68.5 -65.5t-18.5 -88.5q0 -42 17 -79t48.5 -60t71.5 -23q35 0 67 15z" />
    <glyph glyph-name="nine" unicode="9" horiz-adv-x="531" 
d="M383 447q47 -35 72.5 -99.5t25.5 -148.5q0 -149 -85.5 -259.5t-263.5 -183.5l-15 38q96 50 151 96t82 102t33 136l-144 -106q-59 0 -104.5 27t-70.5 76.5t-25 114.5q0 96 57.5 156t176.5 86q63 0 110 -35zM385 178v7q0 251 -128 251q-60 0 -96.5 -50t-36.5 -127
q0 -74 33.5 -118t84.5 -44q20 0 42 10t57 37z" />
    <glyph glyph-name="zero.zero" horiz-adv-x="586" 
d="M420 450.5q58 -31.5 92 -85.5t34 -120q0 -195 -254 -260q-69 0 -126.5 31.5t-91.5 85.5t-34 120q0 98 63.5 162.5t190.5 97.5q68 0 126 -31.5zM201.5 405q-31.5 -27 -48 -69t-16.5 -88q0 -74 28 -127l224 269q-44 42 -112 42q-44 0 -75.5 -27zM385 62q32 27 48.5 69
t16.5 88q0 84 -36 140l-224 -274q44 -50 119 -50q44 0 76 27z" />
    <glyph glyph-name="asterisk" unicode="*" horiz-adv-x="403" 
d="M86 452l86 97l-127 28l19 60l116 -49l-10 127h63l-9 -127l115 49l19 -60l-123 -28l82 -97l-51 -37l-65 105l-63 -105z" />
    <glyph glyph-name="asciitilde" unicode="~" horiz-adv-x="669" 
d="M87 291l98 23l360 -56l43 63h31l-39 -103l-93 -18l-363 56l-43 -63h-31z" />
    <glyph glyph-name="brokenbar" unicode="&#xa6;" horiz-adv-x="275" 
d="M110 718h55v-430h-55v430zM110 185h55v-430h-55v430z" />
    <glyph glyph-name="backslash" unicode="\" horiz-adv-x="431" 
d="M-40 718h58l453 -948h-60z" />
    <glyph glyph-name="underscore" unicode="_" horiz-adv-x="655" 
d="M50 -77h555v-51h-555v51z" />
    <glyph glyph-name="quotesingle" unicode="'" horiz-adv-x="195" 
d="M49 642l5 63h95l5 -63l-39 -172h-27z" />
    <glyph glyph-name="quotedbl" unicode="&#x22;" horiz-adv-x="349" 
d="M49 647l5 58h95l5 -58l-39 -177h-27zM198 647l5 58h95l5 -58l-39 -177h-27z" />
    <glyph glyph-name="uni02BC" unicode="&#x2bc;" horiz-adv-x="178" 
d="M52 483q13 29 24 67t11 56l-36 4l-5 52l5 44l67 4l29 -4l4 -51l-4 -45l-62 -140z" />
    <glyph glyph-name="ampersand" unicode="&#x26;" horiz-adv-x="714" 
d="M158.5 5q-52.5 23 -83 65.5t-30.5 96.5q0 51 18.5 89t43 61t58.5 48q15 10 26 20q-44 46 -65 83.5t-21 76.5q0 61 42.5 101t139.5 72q45 0 80.5 -19t55.5 -50.5t20 -67.5q0 -35 -19 -64.5t-47 -53t-82 -62.5l173 -194l75 122l-42 9l5 29l72 -3l100 3l5 -29l-70 -10
l-110 -156l121 -131l53 -10l-4 -31l-72 1l-62 -1l-90 99q-26 -29 -69.5 -61t-104.5 -56q-64 0 -116.5 23zM336 499.5q18 26.5 18 67.5q0 45 -22.5 74.5t-59.5 29.5q-36 0 -60 -27t-24 -71q0 -29 21 -61.5t59 -80.5q50 42 68 68.5zM415 135l-195 220q-45 -33 -67.5 -68
t-22.5 -96q0 -37 19 -69t52 -51.5t73 -19.5q72 0 141 84z" />
    <glyph glyph-name="at" unicode="@" horiz-adv-x="915" 
d="M241.5 -66q-90.5 48 -141 133t-50.5 192q0 95 43 178t121.5 144.5t181.5 92.5l91 26q121 0 207.5 -40t131 -109.5t44.5 -157.5q0 -80 -43 -149.5t-112.5 -111.5t-143.5 -42l-59 62l46 125l-156 -189q-38 0 -69.5 18t-50.5 50t-19 74q0 84 47.5 152.5t128.5 104.5l109 49
l111 -65l-83 -347q46 -2 97.5 30.5t86.5 92.5t35 136q0 133 -70.5 200.5t-199.5 67.5q-97 0 -187 -43t-147 -127t-57 -202q0 -107 48.5 -183t130 -114.5t181.5 -38.5q51 0 94.5 14t84.5 35l15 -28q-54 -28 -122 -50t-116 -28q-118 0 -208.5 48zM545 298l36 132l-83 53
q-84 -34 -117.5 -96.5t-33.5 -126.5q0 -40 22 -63.5t59 -23.5z" />
    <glyph glyph-name="copyright" unicode="&#xa9;" horiz-adv-x="832" 
d="M233.5 30.5q-83.5 44.5 -133.5 128.5t-50 197q0 153 97.5 243.5t267.5 115.5q100 -1 183.5 -45.5t133.5 -128.5t50 -197q0 -153 -97.5 -243.5t-267.5 -115.5q-100 1 -183.5 45.5zM569 60q71 39 113.5 112.5t42.5 171.5q0 108 -48.5 183.5t-120.5 113.5t-139 38
q-83 0 -154 -39t-113.5 -112.5t-42.5 -171.5q0 -108 48.5 -183.5t120.5 -113.5t139 -38q83 0 154 39zM324 165q-47 24 -76 70.5t-29 109.5q0 95 57.5 147.5t155.5 66.5q43 0 82.5 -15t60.5 -31v-73h-34l-18 50q-13 15 -38 26.5t-57 11.5q-66 0 -104.5 -43.5t-38.5 -125.5
q0 -46 19 -89t55 -69.5t84 -26.5q40 0 73 28l32 63h34l-16 -79q-14 -6 -19 -7q-78 -32 -121 -38q-55 0 -102 24z" />
    <glyph glyph-name="registered" unicode="&#xae;" horiz-adv-x="590" 
d="M419.5 654q57.5 -30 91.5 -87.5t34 -135.5q0 -105 -66.5 -167t-182.5 -79q-68 1 -125.5 31.5t-91.5 88t-34 134.5q0 105 66.5 167t182.5 79q68 -1 125.5 -31zM398.5 237.5q48.5 26.5 77.5 76.5t29 117q0 73 -33 125t-81.5 77.5t-94.5 25.5q-56 0 -104.5 -26.5
t-77.5 -76.5t-29 -117q0 -73 33 -124.5t82 -77.5t94 -26q56 0 104.5 26.5zM446 321l-1 -20l-46 1l-34 -1l-83 119l-6 4h-21v-98l33 -5l-2 -20l-62 1l-64 -1l-2 20l35 5v222l-35 4l2 20l63 -1l93 1q41 0 67 -18t26 -49q0 -28 -25.5 -46t-67.5 -26l45 -19l65 -87zM255 448h28
q26 0 43 14.5t17 39.5q0 24 -15 37t-39 13l-34 -3v-101z" />
    <glyph glyph-name="trademark" unicode="&#x2122;" horiz-adv-x="1025" 
d="M118 341l66 7v321l-77 -2l-28 -77h-29v111l178 -2l173 2v-111h-28l-29 77l-76 2v-321l64 -7l-3 -27l-103 2l-105 -2zM436 341l46 7v320l-47 7l3 26l57 -2l91 2l115 -276l1 -45l127 321l79 -2l64 2l3 -26l-46 -7v-320l44 -7l-3 -27l-82 2l-87 -2l-3 27l47 7v257l9 66
l-141 -356h-51l-118 285l-17 67v-319l46 -7l-3 -27l-65 2l-66 -2z" />
    <glyph glyph-name="paragraph" unicode="&#xb6;" horiz-adv-x="479" 
d="M169 420q-59 0 -99 34t-40 90q0 43 35 78t105 78h269v-48l-50 -10v-801h-52v801h-115v-801h-53v579z" />
    <glyph glyph-name="section" unicode="&#xa7;" horiz-adv-x="528" 
d="M369 44l76 -52v-32q0 -82 -49.5 -132.5t-151.5 -72.5q-46 0 -95 20t-69 47v103h52l16 -69q47 -59 121 -59q108 0 108 123v15l-191 128q-74 50 -109 99.5t-35 103.5q0 49 27.5 83.5t89.5 68.5q-37 37 -53 67t-16 61q0 60 52 106t138 62q112 -7 151 -49v-105h-52l-13 69
q-19 22 -43 32.5t-56 10.5q-53 0 -82 -25t-29 -69q0 -28 14 -52t48.5 -54t103.5 -80l160 -116v-32q0 -138 -113 -200zM414 219l-139 103q-55 40 -93 74q-71 -37 -71 -106q0 -40 27.5 -73.5t98.5 -82.5l105 -72q38 27 55 61t17 81v15z" />
    <glyph glyph-name="asciicircum" unicode="^" horiz-adv-x="391" 
d="M173 705h45l123 -245h-75l-70 169l-71 -169h-75z" />
    <glyph glyph-name="dagger" unicode="&#x2020;" horiz-adv-x="430" 
d="M180 226l-26 103l26 41l14 107l-167 -30v101l166 -30l-30 192h98l-30 -192l172 30v-101l-172 30l14 -107l26 -41l-26 -103l-21 -286h-23z" />
    <glyph glyph-name="daggerdbl" unicode="&#x2021;" horiz-adv-x="436" 
d="M196 140l-166 -30v101l167 -30l-14 107l-26 41l26 41l14 107l-167 -30v101l166 -30l-30 192h98l-30 -192l172 30v-101l-172 30l14 -107l26 -41l-26 -41l-14 -107l172 30v-101l-172 30l30 -192h-98z" />
    <glyph glyph-name="emptyset" unicode="&#x2205;" 
d="M484 495q22 -28 34 -64t12 -75q0 -61 -27.5 -111t-77.5 -79t-114 -29q-82 0 -139 46l-55 -55l-34 35l54 54q-45 59 -45 139q0 61 27.5 111t77.5 79t114 29q80 0 139 -45l54 54l34 -35zM178 258l232 232q-41 33 -99 33q-48 0 -85 -22.5t-57 -61t-20 -83.5q0 -55 29 -98z
M444 455l-233 -233q41 -33 100 -33q48 0 85 22.5t57 61t20 83.5q0 56 -29 99z" />
    <glyph glyph-name="uni2126" unicode="&#x2126;" horiz-adv-x="720" 
d="M30 156h30l24 -68l180 -36v59q-56 12 -107.5 49.5t-84 100t-32.5 144.5q0 119 78 194t252 116q89 0 160 -40t110.5 -107t39.5 -145q0 -118 -60 -195t-162 -104v-72l178 36l24 68h30v-156h-286v156q72 10 127 67t55 178q0 76 -30 135.5t-81.5 92.5t-114.5 33
q-64 0 -115.5 -28t-81 -81.5t-29.5 -127.5q0 -77 26.5 -136.5t68.5 -93.5t87 -39v-156h-286v156z" />
    <glyph glyph-name="uni2206" unicode="&#x2206;" horiz-adv-x="676" 
d="M20 46l303 649l45 20l288 -668v-47h-636v46zM561 46l-217 517l-7 55l-253 -572h477z" />
    <glyph glyph-name="uni00B5" unicode="&#xb5;" 
d="M483.5 52q18.5 -17 59.5 -26l-4 -26h-112l-42 74l-119 -89q-59 0 -94 15.5t-43 44.5v-73l43 -202h-96v697h80v-295q0 -55 24 -85t67 -30q20 0 43.5 12t45.5 26t28 18l21 13v341h80v-365q0 -33 18.5 -50z" />
    <glyph glyph-name="uniF8FF" unicode="&#xf8ff;" horiz-adv-x="685" 
d="M462 -28l-24 18h-14l-8 8l7 76l-4 47l-61 1l-3 -52l-2 -56v-20l-15 -6l-8 6l-30 -10h-32l-1 11l11 11l50 21l-6 96l-98 -6l-147 140l-4 115l-13 10l-10 36v26l15 8l-3 78l92 -62l9 47l10 36l22 35l28 35l39 29l78 29h22l-68 22l4 17h7l79 -20l-4 51l16 12h32l19 -5
l29 -25l32 -8l32 -10l15 -13v-20l-20 -31l30 -28l28 -32l18 -34l15 -41l9 -54l-3 -41l-8 -35l-12 -31l-3 -156l-21 -7l-50 70l-27 -7l-19 -140l-32 4l-7 -4l-4 -94l30 -19l16 -14l-3 -15zM243 540l36 24h32l18 -12l8 3l4 14l7 5l10 -4v-18h8l10 22l11 8l-5 6l-3 8l1 21
l-30 -10l-10 -8l-8 5l4 21l14 10l11 11l38 -2l12 13l-4 8h-49l-45 -13l-53 -26l-29 -23l-25 -34l29 12l13 -15l-17 -20l-10 -3l17 -3h5zM421 625l-7 17l-8 -9v-19l12 -6zM479 564l6 6l-9 18l17 28l-15 9v5l-25 7v-20l-13 -5v-9l-9 -6l-3 -12l5 -6l19 11l8 -2l6 -24h13z
M563 418h23l6 11l-18 6l-5 9l9 42h7l14 -20l17 -1l-8 37l-19 50l-20 36l-23 28l-34 21h-11l17 -19l25 -10l11 -11l3 -33l-25 13l-15 -29l12 -8v-19l15 3l-12 26l15 -5l10 -20l-5 -12l-8 -7h-23l-3 11l-12 2l1 -22h-14l14 -18l-7 -10l-21 5l-3 -27l41 6l8 17l22 -2l6 -28
l-16 -13v-15l8 -6zM493 521l-2 9l-8 -4v-9l8 -3zM273 510l-4 12l-55 -24zM399 495l-48 25l-4 -12l49 -17zM102 434l57 -32l7 10l-68 38v18l59 -34l43 -28l28 -14l3 10l-103 64l-13 7l-41 33l2 -78l19 -17v-5h-21l19 -14l1 -11l-20 7l18 -18l-4 -7l3 -97l11 -12v180zM268 437
l16 12l6 12l2 13l-22 -4l6 -10l-12 -13l-14 -1l-6 8l1 4l14 2l-13 6l2 7l-20 -1l3 -19l14 -15l12 -6zM377 440l6 9l5 20l-30 2l7 -5l1 -11l-7 -11h-12l-5 7l11 8l-15 2v6l-23 4l3 -17l8 -14l20 -9l13 -1zM249 134l2 40l41 -3l3 9l-44 6v16l48 -6l1 9l-47 7l1 22l43 -3l3 6
l-45 9l3 94h74l11 10h-79l2 9h74l8 7h-82l2 22l117 4l140 -4v11l-4 7h-205l-66 -3l-7 -9l-6 -44l-48 20l-11 -4l57 -27l1 -45l-5 -73v-91zM564 386l5 7v7l-10 -4v-10h5zM433 336l4 30l-54 5l-3 -35h53zM202 291l4 40l-66 39v-7l-2 -13l1 -27v-48l64 -44zM511 350l4 9h-48
v-13zM491 221l4 36l-15 3l-1 8l20 1l5 3l-28 16l2 5l30 -6l-30 15l5 5l21 -5l4 10l3 19l-54 1l-1 -24v-6l-2 -31l19 -3l-8 -61l-48 3l-8 -6l51 -5l-2 -9h-49l-4 -5l53 -7l-6 -35l27 -1zM394 302v10h-73v-10h73zM589 312l-6 -3l-33 -27l39 -48v78zM394 281l-72 7l-6 -13
l78 -4v10zM384 250v6l-68 4v-10h68zM206 203l-74 50l20 -23l50 -41zM380 214l-64 4v-51l64 -6v53z" />
    <glyph glyph-name="uni2113" unicode="&#x2113;" horiz-adv-x="428" 
d="M352 104l22 -28l-157 -92l-72 22v231q-56 -27 -105 -47v42q65 27 105 49v342l123 97q62 -2 91 -55t29 -125q0 -87 -43.5 -150t-128.5 -115v-223zM216 326q48 36 70.5 79.5t22.5 103.5q0 48 -12 91.5t-39 43.5l-42 -10v-308z" />
    <glyph glyph-name="estimated" unicode="&#x212e;" horiz-adv-x="830" 
d="M220.5 30.5q-80.5 45.5 -125.5 125.5t-45 179q0 109 36.5 179t116.5 116t222 85q101 0 180 -43.5t125 -120t50 -171.5v-48h-621v-87q35 -94 107.5 -151.5t169.5 -57.5q177 0 232 184h88q-24 -66 -68.5 -110t-112 -72.5t-170.5 -52.5q-104 0 -184.5 45.5zM668 376v58
q-29 105 -103 167.5t-171 62.5q-88 0 -145 -43t-90 -121v-124h509z" />
    <glyph glyph-name="dollar" unicode="$" horiz-adv-x="562" 
d="M469.5 82q-44.5 -56 -145.5 -87v-75h-48v63l-6 -1q-68 0 -116 17t-89 51l-22 126h65l35 -83q21 -26 57.5 -43t75.5 -19v293l-75 32q-60 25 -94.5 63t-34.5 99q0 74 56 122t148 72v69h48v-64q41 -3 82 -18t73 -39v-128h-43l-29 91q-17 18 -36 29t-47 15v-260l44 -18
q64 -26 105 -69t41 -116q0 -66 -44.5 -122zM276 427v243q-55 -4 -86 -34.5t-31 -82.5q0 -77 99 -119zM402.5 80.5q27.5 35.5 27.5 85.5q0 93 -106 138v-269q51 10 78.5 45.5z" />
    <glyph glyph-name="cent" unicode="&#xa2;" horiz-adv-x="456" 
d="M295 -5v-75h-42v65q-92 4 -148.5 66t-56.5 172q0 105 61 167t157 88v72h42v-71q28 -5 57.5 -18.5t46.5 -28.5v-91h-60l-24 74q-14 10 -28.5 14t-36.5 4q-37 0 -66.5 -25t-46.5 -68.5t-17 -98.5q0 -84 42.5 -137t115.5 -53q48 0 118 44l12 -35q-54 -38 -126 -65z" />
    <glyph glyph-name="sterling" unicode="&#xa3;" horiz-adv-x="578" 
d="M538 155l-25 -155l-332 3l-138 -3l-5 35l104 45v240h-88v17l23 31h65v116q0 74 13 113t57.5 66.5t141.5 51.5q94 0 130 -49v-87h-60l-15 63q-17 17 -34 24.5t-40 7.5q-32 0 -58 -18.5t-41 -47.5t-15 -59v-181h198v-49l-198 1v-140q0 -44 -8 -74.5t-17.5 -48t-9.5 -14.5
l261 3l47 109h44z" />
    <glyph glyph-name="florin" unicode="&#x192;" horiz-adv-x="312" 
d="M-21 -162h66l17 22q12 14 18 38t6 67v451h-90v16l28 33h62v9q0 44 13 76.5t40 66.5l78 93h122v-68h-125l-24 -31q-12 -15 -18 -39.5t-6 -73.5v-38h124v-44h-124v-431q0 -37 -9 -64.5t-33 -57.5l-85 -98h-60v73z" />
    <glyph glyph-name="yen" unicode="&#xa5;" horiz-adv-x="663" 
d="M387 272v-4h151v-43h-151v-50h151v-43h-152v-89l117 -13l-5 -31l-157 3l-164 -3l-5 31l123 13v89h-154v43h154v50h-154v43h154v3l-193 388l-82 11l5 31l135 -3l127 3l5 -31l-89 -13l142 -317l9 -32l133 348l-91 14l5 31l122 -3l115 4l5 -31l-82 -11z" />
    <glyph glyph-name="Euro" unicode="&#x20ac;" horiz-adv-x="673" 
d="M282 608q-52 -63 -69 -165h327l-26 -51h-307q-1 -12 -1 -36q0 -18 2 -48h276l-26 -51h-242q21 -95 80.5 -148t146.5 -53q48 0 83 13t77 39l19 -38q-34 -23 -92.5 -48t-105.5 -37q-126 0 -205.5 71.5t-99.5 200.5h-74v51h69q-1 10 -1 31q0 19 2 53h-70v51h76
q20 111 91.5 176.5t204.5 95.5q129 0 216 -73v-131h-45l-25 93q-28 33 -69.5 50t-91.5 17q-68 0 -120 -63z" />
    <glyph glyph-name="currency" unicode="&#xa4;" 
d="M76 170l57 56q-43 59 -43 131t43 131l-57 56l47 47l56 -57q59 43 131 43t131 -43l56 57l47 -47l-57 -56q43 -59 43 -131t-43 -131l57 -56l-47 -47l-56 57q-59 -43 -131 -43t-131 43l-56 -57zM395.5 209.5q38.5 22.5 60 61.5t21.5 86t-21.5 86t-60 61.5t-85.5 22.5
t-85.5 -22.5t-60 -61.5t-21.5 -86t21.5 -86t60 -61.5t85.5 -22.5t85.5 22.5z" />
    <glyph glyph-name="fraction" unicode="&#x2044;" horiz-adv-x="119" 
d="M227 710h52l-385 -760h-54z" />
    <glyph glyph-name="onequarter" unicode="&#xbc;" horiz-adv-x="821" 
d="M41 340l88 10v284l5 14l-27 -16l-60 -10l-12 25l135 56h38v-353l88 -10l-3 -26l-124 2l-125 -2zM549 710h52l-385 -760h-54zM646 99h-154l-24 34l196 252h69v-30l-210 -215l30 11h93v65l54 45h17v-110h77v-52h-77v-99h-71v99z" />
    <glyph glyph-name="onehalf" unicode="&#xbd;" horiz-adv-x="814" 
d="M41 340l88 10v284l5 14l-27 -16l-60 -10l-12 25l135 56h38v-353l88 -10l-3 -26l-124 2l-125 -2zM549 710h52l-385 -760h-54zM467 26l111 112q47 48 68 83t21 69q0 31 -14.5 49.5t-40.5 18.5q-17 0 -37 -8l-19 -67h-60v70l127 40q58 0 93 -27.5t35 -72.5q0 -49 -30 -88.5
t-95 -86.5l-100 -74l53 19h186v-23l-18 -40h-267z" />
    <glyph glyph-name="threequarters" unicode="&#xbe;" horiz-adv-x="850" 
d="M42 381h139q36 23 36 61q0 29 -24.5 47t-72.5 18l-6 21l24 9q32 12 47.5 31t15.5 48q0 26 -13 41t-32 15q-18 0 -34 -8l-19 -66h-60v70l127 40q56 0 82.5 -21t26.5 -53q0 -61 -88 -92q52 -4 80.5 -27.5t28.5 -56.5q0 -41 -28.5 -63.5t-85.5 -47.5l-22 -9l-52 -23h-70v66z
M578 710h52l-385 -760h-54zM675 99h-154l-24 34l196 252h69v-30l-210 -215l30 11h93v65l54 45h17v-110h77v-52h-77v-99h-71v99z" />
    <glyph glyph-name="percent" unicode="%" horiz-adv-x="778" 
d="M79.5 407q-39.5 47 -39.5 122t38.5 119.5t132.5 58.5q70 0 109 -47.5t39 -122.5t-38.5 -119t-131.5 -58q-70 0 -109.5 47zM621 705h59l-495 -710h-59zM265.5 429q19.5 39 19.5 100q0 65 -22 106.5t-69 41.5q-39 0 -59 -39.5t-20 -98.5q0 -66 22 -107.5t69 -41.5
q40 0 59.5 39zM458 40q-40 47 -40 122q0 76 39 120t132 58q71 0 110 -47.5t39 -122.5t-38.5 -119t-131.5 -58q-70 0 -110 47zM644 62.5q20 39.5 20 99.5q0 64 -22.5 106t-68.5 42q-40 0 -60 -39.5t-20 -98.5q0 -66 22 -107.5t69 -41.5q40 0 60 39.5z" />
    <glyph glyph-name="perthousand" unicode="&#x2030;" horiz-adv-x="1139" 
d="M79.5 407q-39.5 47 -39.5 122t38.5 119.5t132.5 58.5q70 0 109 -47.5t39 -122.5t-38.5 -119t-131.5 -58q-70 0 -109.5 47zM621 705h59l-495 -710h-59zM265.5 429q19.5 39 19.5 100q0 65 -22 106.5t-69 41.5q-39 0 -59 -39.5t-20 -98.5q0 -66 22 -107.5t69 -41.5
q40 0 59.5 39zM458 40q-40 47 -40 122q0 76 39 120t132 58q71 0 110 -47.5t39 -122.5t-38.5 -119t-131.5 -58q-70 0 -110 47zM819.5 40q-39.5 47 -39.5 122q0 76 38.5 120t131.5 58q71 0 110 -47.5t39 -122.5t-38.5 -119t-131.5 -58q-70 0 -109.5 47zM644 62.5
q20 39.5 20 99.5q0 64 -22.5 106t-68.5 42q-40 0 -60 -39.5t-20 -98.5q0 -66 22 -107.5t69 -41.5q40 0 60 39.5zM1005.5 62.5q19.5 39.5 19.5 99.5q0 65 -22 106.5t-69 41.5q-40 0 -59.5 -39.5t-19.5 -98.5q0 -66 22 -107.5t69 -41.5q40 0 59.5 39.5z" />
    <glyph glyph-name="uni03BC" unicode="&#x3bc;" 
d="M483.5 52q18.5 -17 59.5 -26l-4 -26h-112l-42 74l-119 -89q-59 0 -94 15.5t-43 44.5v-73l43 -202h-96v697h80v-295q0 -55 24 -85t67 -30q20 0 43.5 12t45.5 26t28 18l21 13v341h80v-365q0 -33 18.5 -50z" />
    <glyph glyph-name="numbersign" unicode="#" horiz-adv-x="629" 
d="M173 195h-133l6 46h134l20 173h-132l6 46h132l24 195h49l-24 -195h149l24 195h49l-24 -195h136l-6 -46h-136l-20 -173h134l-6 -46h-135l-23 -195h-49l23 195h-149l-23 -195h-49zM378 241l20 173h-149l-20 -173h149z" />
    <glyph glyph-name="uni2116" unicode="&#x2116;" horiz-adv-x="1009" 
d="M28 26l101 10v613l-88 20l5 31l95 -3l88 3l226 -470l28 -116v586h133l5 -26l-87 -11v-663h-69l-258 532l-27 114v-646h-147zM653 172.5q-45 47.5 -45 125.5q0 80 49 125.5t152 61.5q69 0 111.5 -47.5t42.5 -125.5q0 -80 -46 -125.5t-145 -61.5q-74 0 -119 47.5z
M856.5 200q19.5 29 19.5 81q0 72 -26.5 115t-70.5 43q-39 0 -61.5 -29t-22.5 -81q0 -72 29 -115t78 -43q35 0 54.5 29zM608 61h356v-61h-356v61z" />
    <glyph glyph-name="uni0394" unicode="&#x394;" horiz-adv-x="676" 
d="M20 46l303 649l45 20l288 -668v-47h-636v46zM561 46l-217 517l-7 55l-253 -572h477z" />
    <glyph glyph-name="uni03A9" unicode="&#x3a9;" horiz-adv-x="720" 
d="M30 156h30l24 -68l180 -36v59q-56 12 -107.5 49.5t-84 100t-32.5 144.5q0 119 78 194t252 116q89 0 160 -40t110.5 -107t39.5 -145q0 -118 -60 -195t-162 -104v-72l178 36l24 68h30v-156h-286v156q72 10 127 67t55 178q0 76 -30 135.5t-81.5 92.5t-114.5 33
q-64 0 -115.5 -28t-81 -81.5t-29.5 -127.5q0 -77 26.5 -136.5t68.5 -93.5t87 -39v-156h-286v156z" />
    <glyph glyph-name="pi" unicode="&#x3c0;" 
d="M156 419h-58l-38 -99h-28v141h556v-42h-124v-309q0 -35 18.5 -54.5t59.5 -29.5l-4 -26h-112l-43 74v345h-146v-419h-81v419z" />
    <glyph glyph-name="plus" unicode="+" 
d="M279 222h-227v61h227v232h61v-232h227v-61h-227v-222h-61v222z" />
    <glyph glyph-name="minus" unicode="&#x2212;" 
d="M47 303h525v-61h-525v61z" />
    <glyph glyph-name="plusminus" unicode="&#xb1;" 
d="M273 365h-227v61h227v232h61v-232h227v-61h-227v-222h-61v222zM46 61h529v-61h-529v61z" />
    <glyph glyph-name="multiply" unicode="&#xd7;" 
d="M97 63l170 169l-170 169l43 43l169 -169l170 170l43 -43l-170 -170l170 -170l-43 -43l-170 171l-169 -170z" />
    <glyph glyph-name="divide" unicode="&#xf7;" 
d="M263 369l-5 53l5 45l70 4l28 -4l4 -52l-4 -46l-70 -5zM47 271h525v-61h-525v61zM263 0l-5 53l5 45l70 4l28 -4l4 -52l-4 -46l-70 -5z" />
    <glyph glyph-name="equal" unicode="=" 
d="M52 373h515v-61h-515v61zM52 178h515v-61h-515v61z" />
    <glyph glyph-name="less" unicode="&#x3c;" 
d="M50 256v60l520 232v-76l-430 -185l430 -185v-77z" />
    <glyph glyph-name="greater" unicode="&#x3e;" 
d="M50 102l430 185l-430 185v76l520 -232v-60l-520 -231v77z" />
    <glyph glyph-name="degree" unicode="&#xb0;" horiz-adv-x="404" 
d="M127 469.5q-35 20.5 -56 55.5t-21 76q0 61 37 96t115 56q40 0 75 -20.5t56 -55.5t21 -76q0 -61 -37 -96t-115 -56q-40 0 -75 20.5zM272.5 533q29.5 29 29.5 68t-29.5 68t-70.5 29t-70.5 -29t-29.5 -68t29.5 -68t70.5 -29t70.5 29z" />
    <glyph glyph-name="approxequal" unicode="&#x2248;" 
d="M63 377l98 23l360 -56l43 63h31l-39 -103l-93 -18l-363 56l-43 -63h-31zM62 186l98 23l360 -56l43 63h31l-39 -103l-93 -18l-363 56l-43 -63h-31z" />
    <glyph glyph-name="greaterequal" unicode="&#x2265;" 
d="M50 172l430 185l-430 185v76l520 -232v-60l-520 -231v77zM49 61h523v-61h-523v61z" />
    <glyph glyph-name="infinity" unicode="&#x221e;" horiz-adv-x="825" 
d="M102 174.5q-42 45.5 -42 115.5q0 57 38.5 104.5t123.5 75.5q50 0 90.5 -26.5t93.5 -76.5l20 -19l40 45q30 33 69 55t74 22q73 0 114.5 -46.5t41.5 -117.5q0 -63 -37 -105.5t-125 -71.5q-55 0 -100.5 31t-100.5 85l-42 -45q-28 -30 -69.5 -50.5t-76.5 -20.5
q-70 0 -112 45.5zM686.5 228.5q26.5 23.5 26.5 73.5q0 44 -26.5 69t-78.5 25q-29 0 -60 -11.5t-51 -35.5l-36 -44q50 -45 90 -72.5t74 -27.5q35 0 61.5 23.5zM278.5 209.5q28.5 12.5 50.5 34.5l40 42q-36 46 -80 77t-84 31q-34 0 -63.5 -24t-29.5 -73q0 -44 30 -72t83 -28
q25 0 53.5 12.5z" />
    <glyph glyph-name="lessequal" unicode="&#x2264;" 
d="M50 326v60l520 232v-76l-430 -185l430 -185v-77zM48 61h523v-61h-523v61z" />
    <glyph glyph-name="logicalnot" unicode="&#xac;" 
d="M506 314h-454v61h515v-195h-61v134z" />
    <glyph glyph-name="notequal" unicode="&#x2260;" 
d="M186 117h-134v61h185l113 134h-298v61h349l91 107h67l-90 -107h98v-61h-150l-112 -134h262v-61h-313l-97 -117h-69z" />
    <glyph glyph-name="integral" unicode="&#x222b;" 
d="M129 -162h65l18 22q12 14 18 38t6 67v503q0 45 11 77t36 65l79 100h128v-68h-126l-25 -32q-12 -15 -17.5 -40.5t-5.5 -75.5v-509q0 -37 -9 -64.5t-34 -57.5l-84 -98h-60v73z" />
    <glyph glyph-name="partialdiff" unicode="&#x2202;" 
d="M383 612.5q78 -56.5 117 -133.5t39 -186q0 -134 -56 -207t-170 -101q-65 0 -118 32t-83.5 91.5t-30.5 137.5q0 99 52 162t147 67l156 -75q-21 97 -88.5 164.5t-189.5 119.5l20 36q127 -51 205 -107.5zM412 91q36 69 36 194q0 41 -4 70l-35 19q-36 19 -64.5 29.5
t-53.5 10.5q-54 0 -87 -48t-33 -120q0 -66 20 -117t53 -79t71 -28q61 0 97 69z" />
    <glyph glyph-name="product" unicode="&#x220f;" horiz-adv-x="747" 
d="M20 -129l94 13v772l-94 13l5 31l142 -3h427l128 3l5 -31l-89 -13v-772l89 -13l-5 -31l-128 3l-138 -3l-5 31l98 13v767h-346v-767l93 -13l-5 -31l-132 3l-134 -3z" />
    <glyph glyph-name="radical" unicode="&#x221a;" 
d="M51 434l-61 10l5 26h128l114 -327l7 -67l261 810h244l-20 -52h-169l-278 -819l-72 -29z" />
    <glyph glyph-name="summation" unicode="&#x2211;" 
d="M48 -120l306 375l-296 405l22 40h465v-180h-30l-46 134l-295 5l265 -353v-30l-308 -373l357 15l49 101h34l-35 -179h-466z" />
    <glyph glyph-name="lozenge" unicode="&#x25ca;" 
d="M47 330l242 365l45 20l239 -346l-242 -365l-45 -20zM499 338l-179 278l-7 35l-189 -293l175 -280l7 -35z" />
    <glyph glyph-name="zero.tf" 
d="M183.5 16.5q-57.5 31.5 -91.5 85.5t-34 120q0 98 63.5 162.5t190.5 97.5q68 0 126 -31.5t92 -85.5t34 -120q0 -195 -254 -260q-69 0 -126.5 31.5zM403 62q32 27 48.5 69t16.5 88q0 89 -43.5 151t-129.5 62q-44 0 -75.5 -27t-48 -69t-16.5 -88q0 -90 43 -151.5t129 -61.5
q44 0 76 27z" />
    <glyph glyph-name="one.tf" 
d="M114 30l159 17v327l5 18l-42 -20l-115 -26l-17 33l225 93h29v-425l159 -17l-5 -31l-197 3l-196 -3z" />
    <glyph glyph-name="two.tf" 
d="M80 42l179 135q73 55 105 91.5t32 70.5q0 39 -23 65t-73 26q-34 0 -64 -19l-37 -102h-66v103l182 70q78 0 125 -35.5t47 -92.5q0 -46 -19 -80t-54.5 -62t-97.5 -66l-148 -87l89 23h285v-26l-24 -56h-419z" />
    <glyph glyph-name="three.tf" 
d="M111 -148h209q46 21 72.5 60t26.5 85q0 57 -53 91t-141 34l-10 25l49 21q65 28 95 65t30 92q0 46 -26 76t-66 30q-18 0 -37.5 -5t-35.5 -14l-37 -103h-65v103l183 70q79 0 125 -36t46 -98q0 -58 -34 -105t-98 -76q73 -5 119 -45t46 -97q0 -52 -20 -90t-64.5 -70
t-123.5 -64l-76 -31h-114v82z" />
    <glyph glyph-name="four.tf" 
d="M349 11h-276l-33 31l327 425h95v-30l-337 -384l37 13h187v108l59 51h25v-159h144v-55h-144v-241h-84v241z" />
    <glyph glyph-name="five.tf" 
d="M108 -148h202q49 23 79 66t30 88q0 62 -42 101t-110 39q-29 0 -50 -3.5t-44 -13.5l-33 -13l-28 14l40 337h341v-27l-21 -54h-279l-26 -209l109 56q69 0 122.5 -25t82.5 -68t29 -96q0 -86 -50 -141.5t-170 -102.5l-75 -30h-107v82z" />
    <glyph glyph-name="six.tf" 
d="M477.5 387q54.5 -60 54.5 -161q0 -190 -234 -241q-62 0 -109.5 35.5t-73 100t-25.5 149.5q0 154 88.5 266t266.5 185l15 -38q-99 -50 -157 -98t-85.5 -107t-31.5 -140l146 109q91 0 145.5 -60zM383 54q30 23 47 64t17 93q0 73 -32.5 117.5t-85.5 44.5q-22 0 -43.5 -10.5
t-55.5 -36.5l-45 -37q2 -126 35 -192t95 -66q38 0 68 23z" />
    <glyph glyph-name="seven.tf" 
d="M174 -206l256 558l37 35h-383v80h438l14 -17l-279 -680h-83v24z" />
    <glyph glyph-name="eight.tf" 
d="M492 288q41 -42 41 -100q0 -81 -59 -130t-177 -73q-61 0 -110 24t-76.5 65t-27.5 91q0 59 37 112t111 88q-62 37 -93.5 78.5t-31.5 93.5q0 64 54 109t159 69q90 0 144.5 -39.5t54.5 -103.5q0 -111 -144 -195q77 -47 118 -89zM224.5 638.5q-30.5 -29.5 -30.5 -77.5
q0 -45 40.5 -82.5t111.5 -82.5q45 30 64 62.5t19 78.5q0 56 -32 93.5t-92 37.5q-50 0 -80.5 -29.5zM376 47q32 15 51 43t19 65q0 41 -26 75t-59 57t-83 51q-6 3 -10.5 5.5t-8.5 4.5q-50 -33 -68.5 -65.5t-18.5 -88.5q0 -42 17 -79t48.5 -60t71.5 -23q35 0 67 15z" />
    <glyph glyph-name="nine.tf" 
d="M432 447q47 -35 72.5 -99.5t25.5 -148.5q0 -149 -85.5 -259.5t-263.5 -183.5l-15 38q96 50 151 96t82 102t33 136l-144 -106q-59 0 -104.5 27t-70.5 76.5t-25 114.5q0 96 57.5 156t176.5 86q63 0 110 -35zM434 178v7q0 251 -128 251q-60 0 -96.5 -50t-36.5 -127
q0 -74 33.5 -118t84.5 -44q20 0 42 10t57 37z" />
    <glyph glyph-name="zero.tf.zero" 
d="M437 450.5q58 -31.5 92 -85.5t34 -120q0 -195 -254 -260q-69 0 -126.5 31.5t-91.5 85.5t-34 120q0 98 63.5 162.5t190.5 97.5q68 0 126 -31.5zM218.5 405q-31.5 -27 -48 -69t-16.5 -88q0 -74 28 -127l224 269q-44 42 -112 42q-44 0 -75.5 -27zM402 62q32 27 48.5 69
t16.5 88q0 84 -36 140l-224 -274q44 -50 119 -50q44 0 76 27z" />
    <glyph glyph-name="dollar.tf" 
d="M500.5 82q-44.5 -56 -145.5 -87v-75h-48v63l-6 -1q-68 0 -116 17t-89 51l-22 126h65l35 -83q21 -26 57.5 -43t75.5 -19v293l-75 32q-60 25 -94.5 63t-34.5 99q0 74 56 122t148 72v69h48v-64q41 -3 82 -18t73 -39v-128h-43l-29 91q-17 18 -36 29t-47 15v-260l44 -18
q64 -26 105 -69t41 -116q0 -66 -44.5 -122zM307 427v243q-55 -4 -86 -34.5t-31 -82.5q0 -77 99 -119zM433.5 80.5q27.5 35.5 27.5 85.5q0 93 -106 138v-269q51 10 78.5 45.5z" />
    <glyph glyph-name="cent.tf" 
d="M361 -5v-75h-42v65q-92 4 -148.5 66t-56.5 172q0 105 61 167t157 88v72h42v-71q28 -5 57.5 -18.5t46.5 -28.5v-91h-60l-24 74q-14 10 -28.5 14t-36.5 4q-37 0 -66.5 -25t-46.5 -68.5t-17 -98.5q0 -84 42.5 -137t115.5 -53q48 0 118 44l12 -35q-54 -38 -126 -65z" />
    <glyph glyph-name="sterling.tf" 
d="M558 155l-25 -155l-332 3l-138 -3l-5 35l104 45v240h-88v17l23 31h65v116q0 74 13 113t57.5 66.5t141.5 51.5q94 0 130 -49v-87h-60l-15 63q-17 17 -34 24.5t-40 7.5q-32 0 -58 -18.5t-41 -47.5t-15 -59v-181h198v-49l-198 1v-140q0 -44 -8 -74.5t-17.5 -48t-9.5 -14.5
l261 3l47 109h44z" />
    <glyph glyph-name="florin.tf" 
d="M130 -162h66l17 22q12 14 18 38t6 67v451h-90v16l28 33h62v9q0 44 13 76.5t40 66.5l78 93h122v-68h-125l-24 -31q-12 -15 -18 -39.5t-6 -73.5v-38h124v-44h-124v-431q0 -37 -9 -64.5t-33 -57.5l-85 -98h-60v73z" />
    <glyph glyph-name="yen.tf" 
d="M365 272v-4h151v-43h-151v-50h151v-43h-152v-89l117 -13l-5 -31l-157 3l-164 -3l-5 31l123 13v89h-154v43h154v50h-154v43h154v3l-193 388l-82 11l5 31l135 -3l127 3l5 -31l-89 -13l142 -317l9 -32l133 348l-91 14l5 31l122 -3l115 4l5 -31l-82 -11z" />
    <glyph glyph-name="Euro.tf" 
d="M253 608q-52 -63 -69 -165h327l-26 -51h-307q-1 -12 -1 -36q0 -18 2 -48h276l-26 -51h-242q21 -95 80.5 -148t146.5 -53q48 0 83 13t77 39l19 -38q-34 -23 -92.5 -48t-105.5 -37q-126 0 -205.5 71.5t-99.5 200.5h-74v51h69q-1 10 -1 31q0 19 2 53h-70v51h76
q20 111 91.5 176.5t204.5 95.5q129 0 216 -73v-131h-45l-25 93q-28 33 -69.5 50t-91.5 17q-68 0 -120 -63z" />
    <glyph glyph-name="percent.tf" 
d="M59 406.5q-33 46.5 -33 122.5q0 151 140 178q55 0 88 -46.5t33 -123.5q0 -74 -35.5 -118.5t-105.5 -58.5q-54 0 -87 46.5zM489 705h56l-397 -710h-56zM202 427.5q15 37.5 15 101.5q0 67 -18 107.5t-48 40.5q-25 0 -40.5 -38t-15.5 -100q0 -69 17.5 -109t48.5 -40
q26 0 41 37.5zM366.5 39.5q-33.5 46.5 -33.5 122.5q0 151 140 178q55 0 88 -46.5t33 -123.5q0 -150 -140 -177q-54 0 -87.5 46.5zM509.5 61.5q15.5 38.5 15.5 100.5q0 67 -18 107.5t-48 40.5q-26 0 -41.5 -37.5t-15.5 -100.5q0 -69 17.5 -109t48.5 -40q26 0 41.5 38.5z" />
    <glyph glyph-name="perthousand.tf" 
d="M51.5 441.5q-29.5 41.5 -29.5 108.5q0 134 124 158q48 0 78 -42t30 -109q0 -133 -126 -157q-47 0 -76.5 41.5zM97.5 647.5q-13.5 -33.5 -13.5 -88.5q0 -61 15.5 -96.5t42.5 -35.5q22 0 35.5 33.5t13.5 89.5q0 61 -15.5 96t-42.5 35q-22 0 -35.5 -33.5zM524 521l-416 -288
h-67l416 288h67zM568 259q30 -42 30 -109q0 -133 -125 -157q-25 0 -45.5 14t-33.5 40q-30 -42 -90 -54q-48 0 -77.5 42.5t-29.5 110.5q0 131 124 155q25 0 45.5 -14t34.5 -40q28 42 89 54q48 0 78 -42zM353 52.5q14 32.5 14 85.5q0 64 -15.5 100t-43.5 36q-23 0 -36.5 -33
t-13.5 -89q0 -62 15.5 -97t43.5 -35q22 0 36 32.5zM522.5 54q13.5 34 13.5 89q0 60 -16 95.5t-42 35.5q-23 0 -36.5 -33t-13.5 -89q0 -61 15.5 -96.5t42.5 -35.5q23 0 36.5 34z" />
    <glyph glyph-name="uni0308" unicode="&#x308;" horiz-adv-x="0" 
d="M-384 585l-4 45l8 38l56 4l23 -4l5 -45l-9 -38l-55 -5zM-208 585l-4 45l8 38l56 4l23 -4l5 -45l-10 -38l-54 -5z" />
    <glyph glyph-name="uni0307" unicode="&#x307;" horiz-adv-x="0" 
d="M-299 586l-6 56l9 46l76 6l23 -6l5 -55l-11 -47l-75 -6z" />
    <glyph glyph-name="gravecomb" unicode="&#x300;" horiz-adv-x="0" 
d="M-364 710h102l48 -161h-30z" />
    <glyph glyph-name="acutecomb" unicode="&#x301;" horiz-adv-x="0" 
d="M-316 710h102l-120 -161h-30z" />
    <glyph glyph-name="uni030B" unicode="&#x30b;" horiz-adv-x="0" 
d="M-408 710h102l-121 -161h-30zM-247 710h102l-121 -161h-30z" />
    <glyph glyph-name="uni0302" unicode="&#x302;" horiz-adv-x="0" 
d="M-292 710h68l105 -161h-38l-82 77l-19 26l-19 -26l-82 -77h-38z" />
    <glyph glyph-name="uni030C" unicode="&#x30c;" horiz-adv-x="0" 
d="M-397 710h38l82 -77l19 -26l19 26l82 77h38l-105 -161h-68z" />
    <glyph glyph-name="uni0306" unicode="&#x306;" horiz-adv-x="0" 
d="M-325 591.5q-45 36.5 -61 88.5l28 19q26 -40 52 -57.5t60 -17.5q25 0 43.5 10.5t30 24.5t29.5 40l32 -19q-22 -40 -51 -70.5t-70 -54.5q-48 0 -93 36.5z" />
    <glyph glyph-name="uni030A" unicode="&#x30a;" horiz-adv-x="0" 
d="M-320 557.5q-29 20.5 -29 66.5q0 40 25 59t73 32q99 0 99 -91q0 -26 -9 -40.5t-23.5 -22t-40.5 -16.5l-23 -8q-43 0 -72 20.5zM-211 587.5q16 14.5 16 36.5q0 23 -16 39t-39 16t-39 -16t-16 -39q0 -22 16 -36.5t39 -14.5t39 14.5z" />
    <glyph glyph-name="tildecomb" unicode="&#x303;" horiz-adv-x="0" 
d="M-346 632l-29 -57h-27l21 87l77 22l148 -59l30 57h26l-22 -92l-75 -17z" />
    <glyph glyph-name="uni0304" unicode="&#x304;" horiz-adv-x="0" 
d="M-388 666h276v-54h-276v54z" />
    <glyph glyph-name="uni0312" unicode="&#x312;" horiz-adv-x="0" 
d="M-296 619l59 96l33 -10l-23 -81l23 -35v-40h-92v70z" />
    <glyph glyph-name="uni0326" unicode="&#x326;" horiz-adv-x="0" 
d="M-293 -226l23 101l-23 35v40h89v-80l-66 -106z" />
    <glyph glyph-name="uni0327" unicode="&#x327;" horiz-adv-x="0" 
d="M-304 -207h76q15 9 23 26.5t8 35.5q0 32 -25.5 47.5t-58.5 15.5l70 95l26 -11l-34 -49q33 -2 57 -23.5t24 -56.5q0 -39 -27 -65.5t-60 -36.5l-51 -16h-57z" />
    <glyph glyph-name="uni0328" unicode="&#x328;" horiz-adv-x="0" 
d="M-292.5 -218.5q-43.5 26.5 -43.5 81.5v38l126 121h36l-80 -122v-45q0 -40 28 -55t75 -15v-30q-98 0 -141.5 26.5z" />
    <glyph glyph-name="uni2003" unicode="&#x2003;" horiz-adv-x="1000" 
 />
    <glyph glyph-name="uni2002" unicode="&#x2002;" horiz-adv-x="500" 
 />
    <glyph glyph-name="uni2005" unicode="&#x2005;" horiz-adv-x="250" 
 />
    <glyph glyph-name="uni200A" unicode="&#x200a;" horiz-adv-x="75" 
 />
    <glyph glyph-name="uni00A0" unicode="&#xa0;" horiz-adv-x="184" 
 />
    <glyph glyph-name="uni2009" unicode="&#x2009;" horiz-adv-x="135" 
 />
    <glyph glyph-name="uni2004" unicode="&#x2004;" horiz-adv-x="0" 
 />
    <glyph glyph-name="Aogonek.ss01" horiz-adv-x="747" 
d="M534 -75v-12q0 -36 25.5 -52.5t64.5 -16.5v-24q-91 0 -129 24.5t-38 76.5v11l107 81l-82 224h-250l-68 -194l90 -13l-5 -31l-124 3l-109 -3l-5 31l83 11l254 654l37 14l270 -668l81 -11l-5 -31l-151 3zM465 281l-99 264l-8 53l-111 -317h218z" />
    <glyph glyph-name="Ccedilla.ss01" horiz-adv-x="703" 
d="M522.5 15q-69.5 -25 -121.5 -33l-16 -13q61 -15 61 -53q0 -47 -75 -74l-48 -17h-59l25 37h81q12 6 19 16t7 20q0 18 -25.5 27t-59.5 9l55 49q-88 7 -161.5 51.5t-118 123.5t-44.5 185q0 167 100 260.5t270 114.5q71 0 136.5 -25.5t104.5 -56.5v-123h-51l-32 92
q-25 25 -70 45.5t-100 20.5q-120 0 -190 -79.5t-70 -226.5q0 -82 34.5 -158.5t100.5 -125t155 -48.5q61 0 127 52l56 109h51l-28 -132q-44 -22 -113.5 -47z" />
    <glyph glyph-name="Eogonek.ss01" horiz-adv-x="625" 
d="M463 -75v-12q0 -36 25.5 -52.5t64.5 -16.5v-24q-91 0 -129 24.5t-38 76.5v11l89 68l-302 2l-138 -3l-5 31l94 13v614l-94 13l5 31l138 -3l389 3l9 -176h-28l-55 130l-275 3v-273l148 4l40 105h30l-10 -121l10 -133h-30l-40 104l-148 4v-306l285 3l67 135h33l-36 -181h-54
z" />
    <glyph glyph-name="Gcommaaccent.ss01" horiz-adv-x="742" 
d="M215 24q-79 42 -126 124t-47 196q0 165 95 256.5t265 117.5q73 0 142.5 -26t104.5 -55v-124h-44l-32 88q-28 27 -75 48.5t-109 21.5q-75 0 -131 -36.5t-87 -105.5t-31 -164q0 -84 35 -160.5t98.5 -124t144.5 -47.5q44 0 81 18.5t59 40.5v192l-90 13l5 30l130 -3l108 3
l4 -30l-68 -13v-224q-76 -27 -141.5 -48t-117.5 -30q-94 0 -173 42zM360 -166l36 50l-40 23v47h92v-72l-60 -61z" />
    <glyph glyph-name="Iogonek.ss01" horiz-adv-x="337" 
d="M213 44l94 -13l-5 -32l-115 3l-46 -77v-12q0 -36 25.5 -52.5t64.5 -16.5v-24q-91 0 -129 24.5t-38 76.5v11l92 70l-121 -3l-5 32l94 13v613l-94 13l5 31l134 -3l133 3l5 -31l-94 -13v-613z" />
    <glyph glyph-name="Kcommaaccent.ss01" horiz-adv-x="692" 
d="M30 30l94 13v614l-94 13l5 31l134 -3l116 3l5 -31l-77 -13v-285l27 15l281 270l-73 13l5 31l104 -3l94 3l5 -31l-78 -16l-281 -277l19 -13l312 -325l53 -9l-5 -31l-85 3l-66 -3l-298 329l-14 26v-311l77 -13l-5 -31l-116 3l-134 -3zM304 -166l36 50l-40 23v47h92v-72
l-60 -61z" />
    <glyph glyph-name="Lcommaaccent.ss01" horiz-adv-x="584" 
d="M30 30l94 13v614l-94 13l5 31l138 -3l129 3l5 -31l-94 -13v-615l259 3l63 133h35l-34 -179l-363 3l-138 -3zM280 -166l36 50l-40 23v47h92v-72l-60 -61z" />
    <glyph glyph-name="Ncommaaccent.ss01" horiz-adv-x="744" 
d="M200 561l-15 61v-579l89 -13l-6 -31l-106 3l-127 -3l-5 31l94 13v605l-89 22l5 31l96 -3l65 3l359 -523l19 -50v529l-88 13l5 31l107 -3l126 3l5 -31l-94 -13v-659h-59zM330 -166l36 50l-40 23v47h92v-72l-60 -61z" />
    <glyph glyph-name="Eng.ss01" horiz-adv-x="744" 
d="M426 -96h67l67 65l54 29h-35l-379 563l-15 67v-585l85 -13l-5 -31l-105 3l-125 -3l-5 31l94 13v605l-90 22l5 31l97 -3l67 3l357 -523l19 -55v534l-89 13l5 31l109 -3l125 3l5 -31l-94 -13v-659l-94 -173h-120v79z" />
    <glyph glyph-name="Rcommaaccent.ss01" horiz-adv-x="670" 
d="M665 28l-4 -29l-73 3l-66 -3l-218 312l-11 11h-80v-279l88 -13l-5 -31l-127 3l-134 -3l-5 31l94 13v614l-94 13l5 31l135 -3l168 3q106 1 171 -42.5t65 -131.5q0 -145 -201 -199l57 -38l179 -248zM213 363h72q57 0 99.5 20.5t65.5 56t23 80.5q0 68 -42.5 104t-109.5 37
l-108 -5v-293zM339 -46h92v-72l-60 -61l-28 13l36 50l-40 23v47z" />
    <glyph glyph-name="Scedilla.ss01" horiz-adv-x="563" 
d="M466.5 78.5q-47.5 -57.5 -155.5 -86.5l-26 -23q61 -15 61 -53q0 -47 -75 -74l-48 -17h-59l25 37h81q12 6 19 16t7 20q0 18 -25.5 27t-59.5 9l54 48q-66 1 -113 18t-87 50l-22 126h65l35 -83q23 -28 62.5 -45t81.5 -17q67 0 105 38t38 97q0 52 -29.5 85t-79.5 54l-120 51
q-60 25 -94.5 63t-34.5 99q0 80 64.5 129.5t167.5 70.5q46 0 92.5 -15.5t82.5 -42.5v-128h-43l-29 91q-22 23 -48.5 35t-69.5 12q-61 0 -95.5 -31t-34.5 -86q0 -77 99 -119l110 -45q64 -26 105 -69t41 -116q0 -68 -47.5 -125.5z" />
    <glyph glyph-name="Scommaaccent.ss01" horiz-adv-x="563" 
d="M154 -1q-48 17 -89 51l-22 126h65l35 -83q23 -28 62.5 -45t81.5 -17q67 0 105 38t38 97q0 52 -29.5 85t-79.5 54l-120 51q-60 25 -94.5 63t-34.5 99q0 80 64.5 129.5t167.5 70.5q46 0 92.5 -15.5t82.5 -42.5v-128h-43l-29 91q-22 23 -48.5 35t-69.5 12q-61 0 -95.5 -31
t-34.5 -86q0 -77 99 -119l110 -45q64 -26 105 -69t41 -116q0 -75 -56.5 -135.5t-187.5 -86.5q-68 0 -116 17zM260 -166l36 50l-40 23v47h92v-72l-60 -61z" />
    <glyph glyph-name="uni0162.ss01" horiz-adv-x="597" 
d="M582 701v-169h-35l-45 123l-159 1v-613l118 -13l-5 -31l-146 3l-38 -33q61 -15 61 -53q0 -47 -75 -74l-48 -17h-59l25 37h81q12 6 19 16t7 20q0 18 -25.5 27t-59.5 9l75 68l-138 -3l-5 31l124 13v613l-159 -1l-45 -123h-35v169l281 -3z" />
    <glyph glyph-name="uni021A.ss01" horiz-adv-x="597" 
d="M130 30l124 13v613l-159 -1l-45 -123h-35v169l281 -3l286 3v-169h-35l-45 123l-159 1v-613l118 -13l-5 -31l-157 3l-164 -3zM247 -166l36 50l-40 23v47h92v-72l-60 -61z" />
    <glyph glyph-name="Uogonek.ss01" horiz-adv-x="717" 
d="M702 670l-87 -13v-414q0 -87 -37 -144t-131 -92l2 -1l-49 -81v-12q0 -36 25.5 -52.5t64.5 -16.5v-24q-91 0 -129 24.5t-38 76.5v11l79 60q-14 -5 -39 -10q-134 0 -194 69.5t-60 195.5v410l-94 13l5 31l139 -3l129 3l5 -31l-89 -13v-430q0 -197 170 -197q79 0 121.5 51.5
t42.5 148.5v427l-92 13l5 31l128 -3l118 3z" />
    <glyph glyph-name="Aacute.ss02" horiz-adv-x="747" 
d="M417 850h100l-121 -98h-52zM11 30l83 11l254 654l37 14l270 -668l81 -11l-5 -31l-125 3l-136 -3l-5 31l89 13l-72 194h-250l-68 -194l90 -13l-5 -31l-124 3l-109 -3zM465 281l-99 264l-8 53l-111 -317h218z" />
    <glyph glyph-name="Abreve.ss02" horiz-adv-x="747" 
d="M320.5 747q-28.5 17 -45 38t-36.5 53l25 16q23 -32 46 -51.5t62 -19.5t65 20.5t47 50.5l21 -16q-5 -6 -17 -27.5t-37 -43t-64 -37.5q-38 0 -66.5 17zM11 30l83 11l254 654l37 14l270 -668l81 -11l-5 -31l-125 3l-136 -3l-5 31l89 13l-72 194h-250l-68 -194l90 -13l-5 -31
l-124 3l-109 -3zM465 281l-99 264l-8 53l-111 -317h218z" />
    <glyph glyph-name="Acircumflex.ss02" horiz-adv-x="747" 
d="M333 850h78l105 -98h-50l-83 55l-12 10l-10 -10l-83 -55h-50zM11 30l83 11l254 654l37 14l270 -668l81 -11l-5 -31l-125 3l-136 -3l-5 31l89 13l-72 194h-250l-68 -194l90 -13l-5 -31l-124 3l-109 -3zM465 281l-99 264l-8 53l-111 -317h218z" />
    <glyph glyph-name="Adieresis.ss02" horiz-adv-x="747" 
d="M219 762l-4 46l8 38l57 5l24 -5l5 -45l-10 -39l-56 -5zM439 762l-5 46l9 38l57 5l24 -5l4 -45l-9 -39l-56 -5zM11 30l83 11l254 654l37 14l270 -668l81 -11l-5 -31l-125 3l-136 -3l-5 31l89 13l-72 194h-250l-68 -194l90 -13l-5 -31l-124 3l-109 -3zM465 281l-99 264
l-8 53l-111 -317h218z" />
    <glyph glyph-name="Agrave.ss02" horiz-adv-x="747" 
d="M226 850h100l72 -98h-52zM11 30l83 11l254 654l37 14l270 -668l81 -11l-5 -31l-125 3l-136 -3l-5 31l89 13l-72 194h-250l-68 -194l90 -13l-5 -31l-124 3l-109 -3zM465 281l-99 264l-8 53l-111 -317h218z" />
    <glyph glyph-name="Amacron.ss02" horiz-adv-x="747" 
d="M234 827h276v-50h-276v50zM11 30l83 11l254 654l37 14l270 -668l81 -11l-5 -31l-125 3l-136 -3l-5 31l89 13l-72 194h-250l-68 -194l90 -13l-5 -31l-124 3l-109 -3zM465 281l-99 264l-8 53l-111 -317h218z" />
    <glyph glyph-name="Aring.ss02" horiz-adv-x="747" 
d="M317.5 736.5q-23.5 16.5 -23.5 47.5q0 29 20 42.5t58 24.5q30 0 54 -16.5t24 -47.5q0 -28 -20.5 -42.5t-57.5 -24.5q-31 0 -54.5 16.5zM402.5 757.5q11.5 11.5 11.5 29.5q0 17 -11.5 27.5t-30.5 10.5q-18 0 -30 -11t-12 -27q0 -18 12 -29.5t30 -11.5q19 0 30.5 11.5z
M11 30l83 11l254 654l37 14l270 -668l81 -11l-5 -31l-125 3l-136 -3l-5 31l89 13l-72 194h-250l-68 -194l90 -13l-5 -31l-124 3l-109 -3zM465 281l-99 264l-8 53l-111 -317h218z" />
    <glyph glyph-name="Atilde.ss02" horiz-adv-x="747" 
d="M242 827l75 18l148 -40l38 44h22l-23 -73l-75 -19l-148 40l-38 -44h-22zM11 30l83 11l254 654l37 14l270 -668l81 -11l-5 -31l-125 3l-136 -3l-5 31l89 13l-72 194h-250l-68 -194l90 -13l-5 -31l-124 3l-109 -3zM465 281l-99 264l-8 53l-111 -317h218z" />
    <glyph glyph-name="AEacute.ss02" horiz-adv-x="1002" 
d="M722 850h100l-121 -98h-52zM5 30l82 11l426 660l57 -3l371 3l10 -179h-31l-54 133l-252 3v-303l123 4l40 105h32l-10 -121l10 -133h-32l-40 104l-123 4v-276l262 3l66 138h35l-35 -184l-370 3l-138 -3l-5 31l94 13v273h-199l-167 -273l79 -13l-5 -31l-112 3l-109 -3z
M523 354v298l-177 -298h177z" />
    <glyph glyph-name="Cacute.ss02" horiz-adv-x="703" 
d="M444 850h100l-121 -98h-52zM222.5 24.5q-81.5 42.5 -131 124.5t-49.5 194q0 167 100 260.5t270 114.5q71 0 136.5 -25.5t104.5 -56.5v-123h-51l-32 92q-25 25 -70 45.5t-100 20.5q-120 0 -190 -79.5t-70 -226.5q0 -82 34.5 -158.5t100.5 -125t155 -48.5q61 0 127 52
l56 109h51l-28 -132q-46 -23 -116 -47.5t-122 -32.5q-94 0 -175.5 42.5z" />
    <glyph glyph-name="Ccaron.ss02" horiz-adv-x="703" 
d="M259 850h50l83 -55l10 -10l11 10l83 55h50l-104 -98h-79zM222.5 24.5q-81.5 42.5 -131 124.5t-49.5 194q0 167 100 260.5t270 114.5q71 0 136.5 -25.5t104.5 -56.5v-123h-51l-32 92q-25 25 -70 45.5t-100 20.5q-120 0 -190 -79.5t-70 -226.5q0 -82 34.5 -158.5
t100.5 -125t155 -48.5q61 0 127 52l56 109h51l-28 -132q-46 -23 -116 -47.5t-122 -32.5q-94 0 -175.5 42.5z" />
    <glyph glyph-name="Ccircumflex.ss02" horiz-adv-x="703" 
d="M364 850h78l105 -98h-50l-83 55l-12 10l-10 -10l-83 -55h-50zM222.5 24.5q-81.5 42.5 -131 124.5t-49.5 194q0 167 100 260.5t270 114.5q71 0 136.5 -25.5t104.5 -56.5v-123h-51l-32 92q-25 25 -70 45.5t-100 20.5q-120 0 -190 -79.5t-70 -226.5q0 -82 34.5 -158.5
t100.5 -125t155 -48.5q61 0 127 52l56 109h51l-28 -132q-46 -23 -116 -47.5t-122 -32.5q-94 0 -175.5 42.5z" />
    <glyph glyph-name="Cdotaccent.ss02" horiz-adv-x="703" 
d="M357 758l-5 50l9 42l67 5l21 -5l4 -49l-9 -43l-67 -5zM222.5 24.5q-81.5 42.5 -131 124.5t-49.5 194q0 167 100 260.5t270 114.5q71 0 136.5 -25.5t104.5 -56.5v-123h-51l-32 92q-25 25 -70 45.5t-100 20.5q-120 0 -190 -79.5t-70 -226.5q0 -82 34.5 -158.5t100.5 -125
t155 -48.5q61 0 127 52l56 109h51l-28 -132q-46 -23 -116 -47.5t-122 -32.5q-94 0 -175.5 42.5z" />
    <glyph glyph-name="Dcaron.ss02" horiz-adv-x="732" 
d="M182 850h50l83 -55l10 -10l11 10l83 55h50l-104 -98h-79zM30 30l94 13v614l-94 13l5 31l138 -3l191 3q152 1 239 -85.5t87 -245.5q0 -165 -85.5 -258t-252.5 -113l-178 3l-139 -3zM472.5 81.5q55.5 38.5 86.5 109.5t31 167q0 85 -30.5 153.5t-92.5 108.5t-151 41l-103 -5
v-604l132 -10q72 1 127.5 39.5z" />
    <glyph glyph-name="Eacute.ss02" horiz-adv-x="625" 
d="M384 850h100l-121 -98h-52zM30 30l94 13v614l-94 13l5 31l138 -3l389 3l9 -176h-28l-55 130l-275 3v-273l148 4l40 105h30l-10 -121l10 -133h-30l-40 104l-148 4v-306l285 3l67 135h33l-36 -181l-389 3l-138 -3z" />
    <glyph glyph-name="Ebreve.ss02" horiz-adv-x="625" 
d="M287.5 747q-28.5 17 -45 38t-36.5 53l25 16q23 -32 46 -51.5t62 -19.5t65 20.5t47 50.5l21 -16q-5 -6 -17 -27.5t-37 -43t-64 -37.5q-38 0 -66.5 17zM30 30l94 13v614l-94 13l5 31l138 -3l389 3l9 -176h-28l-55 130l-275 3v-273l148 4l40 105h30l-10 -121l10 -133h-30
l-40 104l-148 4v-306l285 3l67 135h33l-36 -181l-389 3l-138 -3z" />
    <glyph glyph-name="Ecaron.ss02" horiz-adv-x="625" 
d="M195 850h50l83 -55l10 -10l11 10l83 55h50l-104 -98h-79zM30 30l94 13v614l-94 13l5 31l138 -3l389 3l9 -176h-28l-55 130l-275 3v-273l148 4l40 105h30l-10 -121l10 -133h-30l-40 104l-148 4v-306l285 3l67 135h33l-36 -181l-389 3l-138 -3z" />
    <glyph glyph-name="Ecircumflex.ss02" horiz-adv-x="625" 
d="M300 850h78l105 -98h-50l-83 55l-12 10l-10 -10l-83 -55h-50zM30 30l94 13v614l-94 13l5 31l138 -3l389 3l9 -176h-28l-55 130l-275 3v-273l148 4l40 105h30l-10 -121l10 -133h-30l-40 104l-148 4v-306l285 3l67 135h33l-36 -181l-389 3l-138 -3z" />
    <glyph glyph-name="Edieresis.ss02" horiz-adv-x="625" 
d="M186 762l-4 46l8 38l57 5l24 -5l5 -45l-10 -39l-56 -5zM406 762l-5 46l9 38l57 5l24 -5l4 -45l-9 -39l-56 -5zM30 30l94 13v614l-94 13l5 31l138 -3l389 3l9 -176h-28l-55 130l-275 3v-273l148 4l40 105h30l-10 -121l10 -133h-30l-40 104l-148 4v-306l285 3l67 135h33
l-36 -181l-389 3l-138 -3z" />
    <glyph glyph-name="Edotaccent.ss02" horiz-adv-x="625" 
d="M293 758l-5 50l9 42l67 5l21 -5l4 -49l-9 -43l-67 -5zM30 30l94 13v614l-94 13l5 31l138 -3l389 3l9 -176h-28l-55 130l-275 3v-273l148 4l40 105h30l-10 -121l10 -133h-30l-40 104l-148 4v-306l285 3l67 135h33l-36 -181l-389 3l-138 -3z" />
    <glyph glyph-name="Egrave.ss02" horiz-adv-x="625" 
d="M193 850h100l72 -98h-52zM30 30l94 13v614l-94 13l5 31l138 -3l389 3l9 -176h-28l-55 130l-275 3v-273l148 4l40 105h30l-10 -121l10 -133h-30l-40 104l-148 4v-306l285 3l67 135h33l-36 -181l-389 3l-138 -3z" />
    <glyph glyph-name="Emacron.ss02" horiz-adv-x="625" 
d="M201 827h276v-50h-276v50zM30 30l94 13v614l-94 13l5 31l138 -3l389 3l9 -176h-28l-55 130l-275 3v-273l148 4l40 105h30l-10 -121l10 -133h-30l-40 104l-148 4v-306l285 3l67 135h33l-36 -181l-389 3l-138 -3z" />
    <glyph glyph-name="Gbreve.ss02" horiz-adv-x="742" 
d="M359.5 747q-28.5 17 -45 38t-36.5 53l25 16q23 -32 46 -51.5t62 -19.5t65 20.5t47 50.5l21 -16q-5 -6 -17 -27.5t-37 -43t-64 -37.5q-38 0 -66.5 17zM215 24q-79 42 -126 124t-47 196q0 165 95 256.5t265 117.5q73 0 142.5 -26t104.5 -55v-124h-44l-32 88
q-28 27 -75 48.5t-109 21.5q-75 0 -131 -36.5t-87 -105.5t-31 -164q0 -84 35 -160.5t98.5 -124t144.5 -47.5q44 0 81 18.5t59 40.5v192l-90 13l5 30l130 -3l108 3l4 -30l-68 -13v-224q-76 -27 -141.5 -48t-117.5 -30q-94 0 -173 42z" />
    <glyph glyph-name="Gcircumflex.ss02" horiz-adv-x="742" 
d="M372 850h78l105 -98h-50l-83 55l-12 10l-10 -10l-83 -55h-50zM215 24q-79 42 -126 124t-47 196q0 165 95 256.5t265 117.5q73 0 142.5 -26t104.5 -55v-124h-44l-32 88q-28 27 -75 48.5t-109 21.5q-75 0 -131 -36.5t-87 -105.5t-31 -164q0 -84 35 -160.5t98.5 -124
t144.5 -47.5q44 0 81 18.5t59 40.5v192l-90 13l5 30l130 -3l108 3l4 -30l-68 -13v-224q-76 -27 -141.5 -48t-117.5 -30q-94 0 -173 42z" />
    <glyph glyph-name="Gdotaccent.ss02" horiz-adv-x="742" 
d="M365 758l-5 50l9 42l67 5l21 -5l4 -49l-9 -43l-67 -5zM215 24q-79 42 -126 124t-47 196q0 165 95 256.5t265 117.5q73 0 142.5 -26t104.5 -55v-124h-44l-32 88q-28 27 -75 48.5t-109 21.5q-75 0 -131 -36.5t-87 -105.5t-31 -164q0 -84 35 -160.5t98.5 -124t144.5 -47.5
q44 0 81 18.5t59 40.5v192l-90 13l5 30l130 -3l108 3l4 -30l-68 -13v-224q-76 -27 -141.5 -48t-117.5 -30q-94 0 -173 42z" />
    <glyph glyph-name="Hcircumflex.ss02" horiz-adv-x="756" 
d="M339 850h78l105 -98h-50l-83 55l-12 10l-10 -10l-83 -55h-50zM30 30l94 13v614l-94 13l5 31l134 -3l129 3l5 -31l-90 -13v-271h336v271l-96 13l5 31l136 -3l127 3l5 -31l-88 -13v-614l88 -13l-5 -31l-127 3l-136 -3l-5 31l96 13v297h-336v-297l90 -13l-5 -31l-129 3
l-134 -3z" />
    <glyph glyph-name="Iacute.ss02" horiz-adv-x="337" 
d="M214 850h100l-121 -98h-52zM30 31l94 13v613l-94 13l5 31l134 -3l133 3l5 -31l-94 -13v-613l94 -13l-5 -32l-133 3l-134 -3z" />
    <glyph glyph-name="Ibreve.ss02" horiz-adv-x="337" 
d="M117.5 747q-28.5 17 -45 38t-36.5 53l25 16q23 -32 46 -51.5t62 -19.5t65 20.5t47 50.5l21 -16q-5 -6 -17 -27.5t-37 -43t-64 -37.5q-38 0 -66.5 17zM30 31l94 13v613l-94 13l5 31l134 -3l133 3l5 -31l-94 -13v-613l94 -13l-5 -32l-133 3l-134 -3z" />
    <glyph glyph-name="Icircumflex.ss02" horiz-adv-x="337" 
d="M130 850h78l105 -98h-50l-83 55l-12 10l-10 -10l-83 -55h-50zM30 31l94 13v613l-94 13l5 31l134 -3l133 3l5 -31l-94 -13v-613l94 -13l-5 -32l-133 3l-134 -3z" />
    <glyph glyph-name="Idieresis.ss02" horiz-adv-x="337" 
d="M16 762l-4 46l8 38l57 5l24 -5l5 -45l-10 -39l-56 -5zM236 762l-5 46l9 38l57 5l24 -5l4 -45l-9 -39l-56 -5zM30 31l94 13v613l-94 13l5 31l134 -3l133 3l5 -31l-94 -13v-613l94 -13l-5 -32l-133 3l-134 -3z" />
    <glyph glyph-name="Idotaccent.ss02" horiz-adv-x="337" 
d="M123 758l-5 50l9 42l67 5l21 -5l4 -49l-9 -43l-67 -5zM30 31l94 13v613l-94 13l5 31l134 -3l133 3l5 -31l-94 -13v-613l94 -13l-5 -32l-133 3l-134 -3z" />
    <glyph glyph-name="Igrave.ss02" horiz-adv-x="337" 
d="M23 850h100l72 -98h-52zM30 31l94 13v613l-94 13l5 31l134 -3l133 3l5 -31l-94 -13v-613l94 -13l-5 -32l-133 3l-134 -3z" />
    <glyph glyph-name="Imacron.ss02" horiz-adv-x="337" 
d="M31 827h276v-50h-276v50zM30 31l94 13v613l-94 13l5 31l134 -3l133 3l5 -31l-94 -13v-613l94 -13l-5 -32l-133 3l-134 -3z" />
    <glyph glyph-name="Itilde.ss02" horiz-adv-x="337" 
d="M39 827l75 18l148 -40l38 44h22l-23 -73l-75 -19l-148 40l-38 -44h-22zM30 31l94 13v613l-94 13l5 31l134 -3l133 3l5 -31l-94 -13v-613l94 -13l-5 -32l-133 3l-134 -3z" />
    <glyph glyph-name="Jcircumflex.ss02" horiz-adv-x="330" 
d="M126 850h78l105 -98h-50l-83 55l-12 10l-10 -10l-83 -55h-50zM-1 -95h102l9 21q11 26 14 57t3 112v562l-110 13l5 31l150 -3l128 3l5 -31l-89 -13v-570l1 -67q0 -26 -5 -43t-20 -34l-106 -118h-87v80z" />
    <glyph glyph-name="Lacute.ss02" horiz-adv-x="584" 
d="M227 850h100l-121 -98h-52zM30 30l94 13v614l-94 13l5 31l138 -3l129 3l5 -31l-94 -13v-615l259 3l63 133h35l-34 -179l-363 3l-138 -3z" />
    <glyph glyph-name="Nacute.ss02" horiz-adv-x="744" 
d="M417 850h100l-121 -98h-52zM200 561l-15 61v-579l89 -13l-6 -31l-106 3l-127 -3l-5 31l94 13v605l-89 22l5 31l96 -3l65 3l359 -523l19 -50v529l-88 13l5 31l107 -3l126 3l5 -31l-94 -13v-659h-59z" />
    <glyph glyph-name="Ncaron.ss02" horiz-adv-x="744" 
d="M228 850h50l83 -55l10 -10l11 10l83 55h50l-104 -98h-79zM200 561l-15 61v-579l89 -13l-6 -31l-106 3l-127 -3l-5 31l94 13v605l-89 22l5 31l96 -3l65 3l359 -523l19 -50v529l-88 13l5 31l107 -3l126 3l5 -31l-94 -13v-659h-59z" />
    <glyph glyph-name="Ntilde.ss02" horiz-adv-x="744" 
d="M242 827l75 18l148 -40l38 44h22l-23 -73l-75 -19l-148 40l-38 -44h-22zM200 561l-15 61v-579l89 -13l-6 -31l-106 3l-127 -3l-5 31l94 13v605l-89 22l5 31l96 -3l65 3l359 -523l19 -50v529l-88 13l5 31l107 -3l126 3l5 -31l-94 -13v-659h-59z" />
    <glyph glyph-name="Oacute.ss02" horiz-adv-x="771" 
d="M431 850h100l-121 -98h-52zM203 28q-76 46 -118.5 126.5t-42.5 181.5q0 165 87 259t266 123q97 0 173 -46t118.5 -126.5t42.5 -181.5q0 -165 -87 -259t-266 -123q-97 0 -173 46zM573 117.5q58 84.5 58 214.5q0 80 -26 156.5t-84.5 127.5t-149.5 51q-115 0 -173 -84.5
t-58 -214.5q0 -81 26.5 -157.5t85 -127t149.5 -50.5q114 0 172 84.5z" />
    <glyph glyph-name="Obreve.ss02" horiz-adv-x="771" 
d="M334.5 747q-28.5 17 -45 38t-36.5 53l25 16q23 -32 46 -51.5t62 -19.5t65 20.5t47 50.5l21 -16q-5 -6 -17 -27.5t-37 -43t-64 -37.5q-38 0 -66.5 17zM203 28q-76 46 -118.5 126.5t-42.5 181.5q0 165 87 259t266 123q97 0 173 -46t118.5 -126.5t42.5 -181.5
q0 -165 -87 -259t-266 -123q-97 0 -173 46zM573 117.5q58 84.5 58 214.5q0 80 -26 156.5t-84.5 127.5t-149.5 51q-115 0 -173 -84.5t-58 -214.5q0 -81 26.5 -157.5t85 -127t149.5 -50.5q114 0 172 84.5z" />
    <glyph glyph-name="Ocircumflex.ss02" horiz-adv-x="771" 
d="M347 850h78l105 -98h-50l-83 55l-12 10l-10 -10l-83 -55h-50zM203 28q-76 46 -118.5 126.5t-42.5 181.5q0 165 87 259t266 123q97 0 173 -46t118.5 -126.5t42.5 -181.5q0 -165 -87 -259t-266 -123q-97 0 -173 46zM573 117.5q58 84.5 58 214.5q0 80 -26 156.5t-84.5 127.5
t-149.5 51q-115 0 -173 -84.5t-58 -214.5q0 -81 26.5 -157.5t85 -127t149.5 -50.5q114 0 172 84.5z" />
    <glyph glyph-name="Odieresis.ss02" horiz-adv-x="771" 
d="M233 762l-4 46l8 38l57 5l24 -5l5 -45l-10 -39l-56 -5zM453 762l-5 46l9 38l57 5l24 -5l4 -45l-9 -39l-56 -5zM203 28q-76 46 -118.5 126.5t-42.5 181.5q0 165 87 259t266 123q97 0 173 -46t118.5 -126.5t42.5 -181.5q0 -165 -87 -259t-266 -123q-97 0 -173 46z
M573 117.5q58 84.5 58 214.5q0 80 -26 156.5t-84.5 127.5t-149.5 51q-115 0 -173 -84.5t-58 -214.5q0 -81 26.5 -157.5t85 -127t149.5 -50.5q114 0 172 84.5z" />
    <glyph glyph-name="Ograve.ss02" horiz-adv-x="771" 
d="M240 850h100l72 -98h-52zM203 28q-76 46 -118.5 126.5t-42.5 181.5q0 165 87 259t266 123q97 0 173 -46t118.5 -126.5t42.5 -181.5q0 -165 -87 -259t-266 -123q-97 0 -173 46zM573 117.5q58 84.5 58 214.5q0 80 -26 156.5t-84.5 127.5t-149.5 51q-115 0 -173 -84.5
t-58 -214.5q0 -81 26.5 -157.5t85 -127t149.5 -50.5q114 0 172 84.5z" />
    <glyph glyph-name="Ohungarumlaut.ss02" horiz-adv-x="771" 
d="M363 850h100l-120 -98h-52zM517 850h100l-121 -98h-52zM203 28q-76 46 -118.5 126.5t-42.5 181.5q0 165 87 259t266 123q97 0 173 -46t118.5 -126.5t42.5 -181.5q0 -165 -87 -259t-266 -123q-97 0 -173 46zM573 117.5q58 84.5 58 214.5q0 80 -26 156.5t-84.5 127.5
t-149.5 51q-115 0 -173 -84.5t-58 -214.5q0 -81 26.5 -157.5t85 -127t149.5 -50.5q114 0 172 84.5z" />
    <glyph glyph-name="Omacron.ss02" horiz-adv-x="771" 
d="M248 827h276v-50h-276v50zM203 28q-76 46 -118.5 126.5t-42.5 181.5q0 165 87 259t266 123q97 0 173 -46t118.5 -126.5t42.5 -181.5q0 -165 -87 -259t-266 -123q-97 0 -173 46zM573 117.5q58 84.5 58 214.5q0 80 -26 156.5t-84.5 127.5t-149.5 51q-115 0 -173 -84.5
t-58 -214.5q0 -81 26.5 -157.5t85 -127t149.5 -50.5q114 0 172 84.5z" />
    <glyph glyph-name="Oslashacute.ss02" horiz-adv-x="771" 
d="M410 752h-52l73 98h100zM701.5 513q27.5 -69 27.5 -149q0 -165 -87 -259t-266 -123q-113 0 -197 62l-44 -59h-52l65 85q-51 49 -78.5 117t-27.5 149q0 165 87 259t266 123q112 0 198 -62l45 59h50l-65 -85q51 -48 78.5 -117zM155 247q15 -60 46 -107l344 452
q-68 75 -174 75q-115 0 -173 -84.5t-58 -214.5q0 -61 15 -121zM573 117.5q58 84.5 58 214.5q0 61 -15 120.5t-46 106.5l-343 -452q67 -74 174 -74q114 0 172 84.5z" />
    <glyph glyph-name="Otilde.ss02" horiz-adv-x="771" 
d="M256 827l75 18l148 -40l38 44h22l-23 -73l-75 -19l-148 40l-38 -44h-22zM203 28q-76 46 -118.5 126.5t-42.5 181.5q0 165 87 259t266 123q97 0 173 -46t118.5 -126.5t42.5 -181.5q0 -165 -87 -259t-266 -123q-97 0 -173 46zM573 117.5q58 84.5 58 214.5q0 80 -26 156.5
t-84.5 127.5t-149.5 51q-115 0 -173 -84.5t-58 -214.5q0 -81 26.5 -157.5t85 -127t149.5 -50.5q114 0 172 84.5z" />
    <glyph glyph-name="Racute.ss02" horiz-adv-x="670" 
d="M329 752h-52l73 98h100zM665 28l-4 -29l-73 3l-66 -3l-218 312l-11 11h-80v-279l88 -13l-5 -31l-127 3l-134 -3l-5 31l94 13v614l-94 13l5 31l135 -3l168 3q106 1 171 -42.5t65 -131.5q0 -145 -201 -199l57 -38l179 -248zM213 363h72q57 0 99.5 20.5t65.5 56t23 80.5
q0 68 -42.5 104t-109.5 37l-108 -5v-293z" />
    <glyph glyph-name="Rcaron.ss02" horiz-adv-x="670" 
d="M265 752l-104 98h50l83 -55l10 -10l11 10l83 55h50l-104 -98h-79zM665 28l-4 -29l-73 3l-66 -3l-218 312l-11 11h-80v-279l88 -13l-5 -31l-127 3l-134 -3l-5 31l94 13v614l-94 13l5 31l135 -3l168 3q106 1 171 -42.5t65 -131.5q0 -145 -201 -199l57 -38l179 -248z
M213 363h72q57 0 99.5 20.5t65.5 56t23 80.5q0 68 -42.5 104t-109.5 37l-108 -5v-293z" />
    <glyph glyph-name="Sacute.ss02" horiz-adv-x="563" 
d="M354 850h100l-121 -98h-52zM154 -1q-48 17 -89 51l-22 126h65l35 -83q23 -28 62.5 -45t81.5 -17q67 0 105 38t38 97q0 52 -29.5 85t-79.5 54l-120 51q-60 25 -94.5 63t-34.5 99q0 80 64.5 129.5t167.5 70.5q46 0 92.5 -15.5t82.5 -42.5v-128h-43l-29 91q-22 23 -48.5 35
t-69.5 12q-61 0 -95.5 -31t-34.5 -86q0 -77 99 -119l110 -45q64 -26 105 -69t41 -116q0 -75 -56.5 -135.5t-187.5 -86.5q-68 0 -116 17z" />
    <glyph glyph-name="Scaron.ss02" horiz-adv-x="563" 
d="M165 850h50l83 -55l10 -10l11 10l83 55h50l-104 -98h-79zM154 -1q-48 17 -89 51l-22 126h65l35 -83q23 -28 62.5 -45t81.5 -17q67 0 105 38t38 97q0 52 -29.5 85t-79.5 54l-120 51q-60 25 -94.5 63t-34.5 99q0 80 64.5 129.5t167.5 70.5q46 0 92.5 -15.5t82.5 -42.5v-128
h-43l-29 91q-22 23 -48.5 35t-69.5 12q-61 0 -95.5 -31t-34.5 -86q0 -77 99 -119l110 -45q64 -26 105 -69t41 -116q0 -75 -56.5 -135.5t-187.5 -86.5q-68 0 -116 17z" />
    <glyph glyph-name="Scircumflex.ss02" horiz-adv-x="563" 
d="M270 850h78l105 -98h-50l-83 55l-12 10l-10 -10l-83 -55h-50zM154 -1q-48 17 -89 51l-22 126h65l35 -83q23 -28 62.5 -45t81.5 -17q67 0 105 38t38 97q0 52 -29.5 85t-79.5 54l-120 51q-60 25 -94.5 63t-34.5 99q0 80 64.5 129.5t167.5 70.5q46 0 92.5 -15.5t82.5 -42.5
v-128h-43l-29 91q-22 23 -48.5 35t-69.5 12q-61 0 -95.5 -31t-34.5 -86q0 -77 99 -119l110 -45q64 -26 105 -69t41 -116q0 -75 -56.5 -135.5t-187.5 -86.5q-68 0 -116 17z" />
    <glyph glyph-name="Tcaron.ss02" horiz-adv-x="597" 
d="M155 850h50l83 -55l10 -10l11 10l83 55h50l-104 -98h-79zM130 30l124 13v613l-159 -1l-45 -123h-35v169l281 -3l286 3v-169h-35l-45 123l-159 1v-613l118 -13l-5 -31l-157 3l-164 -3z" />
    <glyph glyph-name="Uacute.ss02" horiz-adv-x="717" 
d="M414 850h100l-121 -98h-52zM169 51.5q-60 69.5 -60 195.5v410l-94 13l5 31l139 -3l129 3l5 -31l-89 -13v-430q0 -197 170 -197q79 0 121.5 51.5t42.5 148.5v427l-92 13l5 31l128 -3l118 3l5 -31l-87 -13v-414q0 -69 -22.5 -118t-77.5 -85t-152 -58q-134 0 -194 69.5z" />
    <glyph glyph-name="Ubreve.ss02" horiz-adv-x="717" 
d="M317.5 747q-28.5 17 -45 38t-36.5 53l25 16q23 -32 46 -51.5t62 -19.5t65 20.5t47 50.5l21 -16q-5 -6 -17 -27.5t-37 -43t-64 -37.5q-38 0 -66.5 17zM169 51.5q-60 69.5 -60 195.5v410l-94 13l5 31l139 -3l129 3l5 -31l-89 -13v-430q0 -197 170 -197q79 0 121.5 51.5
t42.5 148.5v427l-92 13l5 31l128 -3l118 3l5 -31l-87 -13v-414q0 -69 -22.5 -118t-77.5 -85t-152 -58q-134 0 -194 69.5z" />
    <glyph glyph-name="Ucircumflex.ss02" horiz-adv-x="717" 
d="M330 850h78l105 -98h-50l-83 55l-12 10l-10 -10l-83 -55h-50zM169 51.5q-60 69.5 -60 195.5v410l-94 13l5 31l139 -3l129 3l5 -31l-89 -13v-430q0 -197 170 -197q79 0 121.5 51.5t42.5 148.5v427l-92 13l5 31l128 -3l118 3l5 -31l-87 -13v-414q0 -69 -22.5 -118
t-77.5 -85t-152 -58q-134 0 -194 69.5z" />
    <glyph glyph-name="Udieresis.ss02" horiz-adv-x="717" 
d="M216 762l-4 46l8 38l57 5l24 -5l5 -45l-10 -39l-56 -5zM436 762l-5 46l9 38l57 5l24 -5l4 -45l-9 -39l-56 -5zM169 51.5q-60 69.5 -60 195.5v410l-94 13l5 31l139 -3l129 3l5 -31l-89 -13v-430q0 -197 170 -197q79 0 121.5 51.5t42.5 148.5v427l-92 13l5 31l128 -3l118 3
l5 -31l-87 -13v-414q0 -69 -22.5 -118t-77.5 -85t-152 -58q-134 0 -194 69.5z" />
    <glyph glyph-name="Ugrave.ss02" horiz-adv-x="717" 
d="M223 850h100l72 -98h-52zM169 51.5q-60 69.5 -60 195.5v410l-94 13l5 31l139 -3l129 3l5 -31l-89 -13v-430q0 -197 170 -197q79 0 121.5 51.5t42.5 148.5v427l-92 13l5 31l128 -3l118 3l5 -31l-87 -13v-414q0 -69 -22.5 -118t-77.5 -85t-152 -58q-134 0 -194 69.5z" />
    <glyph glyph-name="Uhungarumlaut.ss02" horiz-adv-x="717" 
d="M346 850h100l-120 -98h-52zM500 850h100l-121 -98h-52zM169 51.5q-60 69.5 -60 195.5v410l-94 13l5 31l139 -3l129 3l5 -31l-89 -13v-430q0 -197 170 -197q79 0 121.5 51.5t42.5 148.5v427l-92 13l5 31l128 -3l118 3l5 -31l-87 -13v-414q0 -69 -22.5 -118t-77.5 -85
t-152 -58q-134 0 -194 69.5z" />
    <glyph glyph-name="Umacron.ss02" horiz-adv-x="717" 
d="M231 827h276v-50h-276v50zM169 51.5q-60 69.5 -60 195.5v410l-94 13l5 31l139 -3l129 3l5 -31l-89 -13v-430q0 -197 170 -197q79 0 121.5 51.5t42.5 148.5v427l-92 13l5 31l128 -3l118 3l5 -31l-87 -13v-414q0 -69 -22.5 -118t-77.5 -85t-152 -58q-134 0 -194 69.5z" />
    <glyph glyph-name="Uring.ss02" horiz-adv-x="717" 
d="M314.5 736.5q-23.5 16.5 -23.5 47.5q0 29 20 42.5t58 24.5q30 0 54 -16.5t24 -47.5q0 -28 -20.5 -42.5t-57.5 -24.5q-31 0 -54.5 16.5zM399.5 757.5q11.5 11.5 11.5 29.5q0 17 -11.5 27.5t-30.5 10.5q-18 0 -30 -11t-12 -27q0 -18 12 -29.5t30 -11.5q19 0 30.5 11.5z
M169 51.5q-60 69.5 -60 195.5v410l-94 13l5 31l139 -3l129 3l5 -31l-89 -13v-430q0 -197 170 -197q79 0 121.5 51.5t42.5 148.5v427l-92 13l5 31l128 -3l118 3l5 -31l-87 -13v-414q0 -69 -22.5 -118t-77.5 -85t-152 -58q-134 0 -194 69.5z" />
    <glyph glyph-name="Utilde.ss02" horiz-adv-x="717" 
d="M239 827l75 18l148 -40l38 44h22l-23 -73l-75 -19l-148 40l-38 -44h-22zM169 51.5q-60 69.5 -60 195.5v410l-94 13l5 31l139 -3l129 3l5 -31l-89 -13v-430q0 -197 170 -197q79 0 121.5 51.5t42.5 148.5v427l-92 13l5 31l128 -3l118 3l5 -31l-87 -13v-414
q0 -69 -22.5 -118t-77.5 -85t-152 -58q-134 0 -194 69.5z" />
    <glyph glyph-name="Wacute.ss02" horiz-adv-x="969" 
d="M530 850h100l-121 -98h-52zM68 659l-57 11l5 31l107 -3l123 3l5 -31l-89 -13l155 -512l3 -51l133 445l-40 120l-67 11l5 31l116 -3l124 3l5 -31l-89 -13l155 -512l2 -50l172 564l-88 11l5 31l119 -3l81 3l5 -31l-56 -11l-209 -649l-61 -24l-139 422l-3 56l-142 -454
l-61 -24z" />
    <glyph glyph-name="Wcircumflex.ss02" horiz-adv-x="969" 
d="M446 850h78l105 -98h-50l-83 55l-12 10l-10 -10l-83 -55h-50zM68 659l-57 11l5 31l107 -3l123 3l5 -31l-89 -13l155 -512l3 -51l133 445l-40 120l-67 11l5 31l116 -3l124 3l5 -31l-89 -13l155 -512l2 -50l172 564l-88 11l5 31l119 -3l81 3l5 -31l-56 -11l-209 -649
l-61 -24l-139 422l-3 56l-142 -454l-61 -24z" />
    <glyph glyph-name="Wdieresis.ss02" horiz-adv-x="969" 
d="M332 762l-4 46l8 38l57 5l24 -5l5 -45l-10 -39l-56 -5zM552 762l-5 46l9 38l57 5l24 -5l4 -45l-9 -39l-56 -5zM68 659l-57 11l5 31l107 -3l123 3l5 -31l-89 -13l155 -512l3 -51l133 445l-40 120l-67 11l5 31l116 -3l124 3l5 -31l-89 -13l155 -512l2 -50l172 564l-88 11
l5 31l119 -3l81 3l5 -31l-56 -11l-209 -649l-61 -24l-139 422l-3 56l-142 -454l-61 -24z" />
    <glyph glyph-name="Wgrave.ss02" horiz-adv-x="969" 
d="M339 850h100l72 -98h-52zM68 659l-57 11l5 31l107 -3l123 3l5 -31l-89 -13l155 -512l3 -51l133 445l-40 120l-67 11l5 31l116 -3l124 3l5 -31l-89 -13l155 -512l2 -50l172 564l-88 11l5 31l119 -3l81 3l5 -31l-56 -11l-209 -649l-61 -24l-139 422l-3 56l-142 -454
l-61 -24z" />
    <glyph glyph-name="Yacute.ss02" horiz-adv-x="707" 
d="M419 850h100l-121 -98h-52zM190 30l123 13v232l-226 385l-82 11l5 30l135 -3l127 3l5 -30l-89 -13l176 -297l10 -35l172 332l-91 13l5 30l122 -3l115 3l5 -29l-82 -10l-220 -392l2 -227l117 -13l-5 -31l-156 3l-163 -3z" />
    <glyph glyph-name="Ycircumflex.ss02" horiz-adv-x="707" 
d="M335 850h78l105 -98h-50l-83 55l-12 10l-10 -10l-83 -55h-50zM190 30l123 13v232l-226 385l-82 11l5 30l135 -3l127 3l5 -30l-89 -13l176 -297l10 -35l172 332l-91 13l5 30l122 -3l115 3l5 -29l-82 -10l-220 -392l2 -227l117 -13l-5 -31l-156 3l-163 -3z" />
    <glyph glyph-name="Ydieresis.ss02" horiz-adv-x="707" 
d="M221 762l-4 46l8 38l57 5l24 -5l5 -45l-10 -39l-56 -5zM441 762l-5 46l9 38l57 5l24 -5l4 -45l-9 -39l-56 -5zM190 30l123 13v232l-226 385l-82 11l5 30l135 -3l127 3l5 -30l-89 -13l176 -297l10 -35l172 332l-91 13l5 30l122 -3l115 3l5 -29l-82 -10l-220 -392l2 -227
l117 -13l-5 -31l-156 3l-163 -3z" />
    <glyph glyph-name="Ygrave.ss02" horiz-adv-x="707" 
d="M228 850h100l72 -98h-52zM190 30l123 13v232l-226 385l-82 11l5 30l135 -3l127 3l5 -30l-89 -13l176 -297l10 -35l172 332l-91 13l5 30l122 -3l115 3l5 -29l-82 -10l-220 -392l2 -227l117 -13l-5 -31l-156 3l-163 -3z" />
    <glyph glyph-name="Zacute.ss02" horiz-adv-x="570" 
d="M330 850h100l-121 -98h-52zM21 49l390 575l37 35l-308 -5l-45 -124h-40v170h468l10 -44l-392 -578l-37 -37l343 5l64 132h44l-34 -178h-491z" />
    <glyph glyph-name="Zcaron.ss02" horiz-adv-x="570" 
d="M141 850h50l83 -55l10 -10l11 10l83 55h50l-104 -98h-79zM21 49l390 575l37 35l-308 -5l-45 -124h-40v170h468l10 -44l-392 -578l-37 -37l343 5l64 132h44l-34 -178h-491z" />
    <glyph glyph-name="Zdotaccent.ss02" horiz-adv-x="570" 
d="M239 758l-5 50l9 42l67 5l21 -5l4 -49l-9 -43l-67 -5zM21 49l390 575l37 35l-308 -5l-45 -124h-40v170h468l10 -44l-392 -578l-37 -37l343 5l64 132h44l-34 -178h-491z" />
    <glyph glyph-name="longs" unicode="&#x17f;" horiz-adv-x="348" 
d="M42 30l74 9v377h-90v16l28 33h62v9q0 44 13 77t41 66l77 93h122v-74h-130l-20 -28q-11 -15 -17 -41t-6 -75v-453l119 -5l-5 -35l-144 3l-119 -3z" />
    <glyph glyph-name="aogonek.ss01" horiz-adv-x="444" 
d="M346.5 -139.5q25.5 -16.5 64.5 -16.5v-24q-91 0 -129 24.5t-38 76.5v11l87 66l-7 -1l-30 76l-121 -88q-64 0 -103.5 34t-39.5 92q0 24 7.5 43.5t24.5 45.5l226 76v48q0 36 -3.5 56.5t-17 32.5t-41.5 12q-38 0 -89 -19l-18 -72h-73v70l172 78q63 0 94 -13t43 -46.5
t12 -101.5v-196q0 -30 4.5 -45.5t13.5 -29.5h51l3 -31l-69 -13l-49 -81v-12q0 -36 25.5 -52.5zM288 238l-159 -66q-19 -20 -19 -53q0 -36 17.5 -52.5t43.5 -16.5q19 0 35 8t34 20l48 33v127z" />
    <glyph glyph-name="ccedilla.ss01" horiz-adv-x="441" 
d="M295 -84q0 -47 -75 -74l-48 -17h-59l25 37h81q12 6 19 16t7 20q0 18 -25.5 27t-59.5 9l60 54q-80 12 -128.5 72.5t-48.5 162.5q0 109 65.5 172t166.5 87q30 0 70 -15t62 -35v-91h-60l-24 74q-14 10 -28.5 14t-36.5 4q-37 0 -66.5 -25t-46.5 -68.5t-17 -98.5
q0 -84 42.5 -137t115.5 -53q48 0 118 44l12 -35q-67 -46 -156 -75h-7l-19 -16q61 -15 61 -53z" />
    <glyph glyph-name="eogonek.ss01" horiz-adv-x="469" 
d="M301.5 -139.5q25.5 -16.5 64.5 -16.5v-24q-91 0 -129 24.5t-38 76.5v11l73 56l-9 -3q-60 0 -111.5 28t-83 83.5t-31.5 132.5q0 110 60.5 171.5t160.5 81.5q92 0 132 -50.5t40 -136.5v-38h-310q2 -98 47 -152t127 -54q26 0 59.5 12t65.5 31l14 -36q-46 -29 -108 -53
l-49 -80v-12q0 -36 25.5 -52.5zM160 398.5q-32 -37.5 -39 -101.5l217 8q0 65 -20.5 98t-79.5 33q-46 0 -78 -37.5z" />
    <glyph glyph-name="g.ss01" horiz-adv-x="503" 
d="M80 -150q-52 35 -52 105v17l106 60q-32 13 -47 29.5t-18.5 34t-3.5 46.5v3l98 47q-45 14 -71.5 45t-26.5 73q0 62 43.5 105t138.5 67q42 0 78 -11t59 -31l52 54h57v-73h-53l-33 -18q12 -29 12 -53q0 -126 -182 -170q-23 0 -33 1l-61 -47q0 -17 10.5 -29.5t26.5 -12.5h175
q123 0 123 -96q0 -34 -29.5 -68.5t-83 -64t-123.5 -48.5q-110 0 -162 35zM313 251q24 25 24 69q0 40 -22.5 78.5t-75.5 38.5q-42 0 -66 -26.5t-24 -70.5q0 -39 22 -76.5t75 -37.5q43 0 67 25zM316.5 -116q34.5 14 55.5 38.5t21 52.5t-19.5 37.5t-70.5 9.5h-134
q-41 -35 -52 -47.5t-11 -21.5q0 -36 40 -59.5t99 -23.5q37 0 71.5 14z" />
    <glyph glyph-name="gbreve.ss01" horiz-adv-x="503" 
d="M80 -150q-52 35 -52 105v17l106 60q-32 13 -47 29.5t-18.5 34t-3.5 46.5v3l98 47q-45 14 -71.5 45t-26.5 73q0 62 43.5 105t138.5 67q42 0 78 -11t59 -31l52 54h57v-73h-53l-33 -18q12 -29 12 -53q0 -126 -182 -170q-23 0 -33 1l-61 -47q0 -17 10.5 -29.5t26.5 -12.5h175
q123 0 123 -96q0 -34 -29.5 -68.5t-83 -64t-123.5 -48.5q-110 0 -162 35zM313 251q24 25 24 69q0 40 -22.5 78.5t-75.5 38.5q-42 0 -66 -26.5t-24 -70.5q0 -39 22 -76.5t75 -37.5q43 0 67 25zM316.5 -116q34.5 14 55.5 38.5t21 52.5t-19.5 37.5t-70.5 9.5h-134
q-41 -35 -52 -47.5t-11 -21.5q0 -36 40 -59.5t99 -23.5q37 0 71.5 14zM177 591.5q-45 36.5 -61 88.5l28 19q26 -40 52 -57.5t60 -17.5q25 0 43.5 10.5t30 24.5t29.5 40l32 -19q-22 -40 -51 -70.5t-70 -54.5q-48 0 -93 36.5z" />
    <glyph glyph-name="gcircumflex.ss01" horiz-adv-x="503" 
d="M80 -150q-52 35 -52 105v17l106 60q-32 13 -47 29.5t-18.5 34t-3.5 46.5v3l98 47q-45 14 -71.5 45t-26.5 73q0 62 43.5 105t138.5 67q42 0 78 -11t59 -31l52 54h57v-73h-53l-33 -18q12 -29 12 -53q0 -126 -182 -170q-23 0 -33 1l-61 -47q0 -17 10.5 -29.5t26.5 -12.5h175
q123 0 123 -96q0 -34 -29.5 -68.5t-83 -64t-123.5 -48.5q-110 0 -162 35zM313 251q24 25 24 69q0 40 -22.5 78.5t-75.5 38.5q-42 0 -66 -26.5t-24 -70.5q0 -39 22 -76.5t75 -37.5q43 0 67 25zM316.5 -116q34.5 14 55.5 38.5t21 52.5t-19.5 37.5t-70.5 9.5h-134
q-41 -35 -52 -47.5t-11 -21.5q0 -36 40 -59.5t99 -23.5q37 0 71.5 14zM218 710h68l105 -161h-38l-82 77l-19 26l-19 -26l-82 -77h-38z" />
    <glyph glyph-name="gcommaaccent.ss01" horiz-adv-x="503" 
d="M80 -150q-52 35 -52 105v17l106 60q-32 13 -47 29.5t-18.5 34t-3.5 46.5v3l98 47q-45 14 -71.5 45t-26.5 73q0 62 43.5 105t138.5 67q42 0 78 -11t59 -31l52 54h57v-73h-53l-33 -18q12 -29 12 -53q0 -126 -182 -170q-23 0 -33 1l-61 -47q0 -17 10.5 -29.5t26.5 -12.5h175
q123 0 123 -96q0 -34 -29.5 -68.5t-83 -64t-123.5 -48.5q-110 0 -162 35zM313 251q24 25 24 69q0 40 -22.5 78.5t-75.5 38.5q-42 0 -66 -26.5t-24 -70.5q0 -39 22 -76.5t75 -37.5q43 0 67 25zM316.5 -116q34.5 14 55.5 38.5t21 52.5t-19.5 37.5t-70.5 9.5h-134
q-41 -35 -52 -47.5t-11 -21.5q0 -36 40 -59.5t99 -23.5q37 0 71.5 14zM206 619l59 96l33 -10l-23 -81l23 -35v-40h-92v70z" />
    <glyph glyph-name="gdotaccent.ss01" horiz-adv-x="503" 
d="M80 -150q-52 35 -52 105v17l106 60q-32 13 -47 29.5t-18.5 34t-3.5 46.5v3l98 47q-45 14 -71.5 45t-26.5 73q0 62 43.5 105t138.5 67q42 0 78 -11t59 -31l52 54h57v-73h-53l-33 -18q12 -29 12 -53q0 -126 -182 -170q-23 0 -33 1l-61 -47q0 -17 10.5 -29.5t26.5 -12.5h175
q123 0 123 -96q0 -34 -29.5 -68.5t-83 -64t-123.5 -48.5q-110 0 -162 35zM313 251q24 25 24 69q0 40 -22.5 78.5t-75.5 38.5q-42 0 -66 -26.5t-24 -70.5q0 -39 22 -76.5t75 -37.5q43 0 67 25zM316.5 -116q34.5 14 55.5 38.5t21 52.5t-19.5 37.5t-70.5 9.5h-134
q-41 -35 -52 -47.5t-11 -21.5q0 -36 40 -59.5t99 -23.5q37 0 71.5 14zM201 586l-6 56l9 46l76 6l23 -6l5 -55l-11 -47l-75 -6z" />
    <glyph glyph-name="ij.ss01" horiz-adv-x="550" 
d="M35 30l74 9v370l-74 -6l-5 31l113 32l46 4v-431l80 -9l-5 -31l-112 3l-112 -3zM98 591l-6 52l9 45l65 5l26 -5l5 -52l-10 -45l-64 -6zM272 -96h93l11 22q10 19 15.5 41t5.5 64v378l-74 -6l-5 31l113 32l46 4v-425q0 -37 -9 -64.5t-33 -57.5l-84 -98h-79v79zM390 591
l-6 52l9 45l65 5l26 -5l5 -52l-10 -45l-64 -6z" />
    <glyph glyph-name="iogonek.ss01" horiz-adv-x="289" 
d="M98 591l-6 52l9 45l65 5l26 -5l5 -52l-10 -45l-64 -6zM125 -75v-12q0 -36 25.5 -52.5t64.5 -16.5v-24q-91 0 -129 24.5t-38 76.5v11l91 70l-99 -3l-5 31l74 9v370l-74 -6l-5 31l113 32l46 4v-431l80 -9l-5 -31l-93 2z" />
    <glyph glyph-name="j.ss01" horiz-adv-x="261" 
d="M-17 -96h93l11 22q10 19 15.5 41t5.5 64v378l-74 -6l-5 31l113 32l46 4v-425q0 -37 -9 -64.5t-33 -57.5l-84 -98h-79v79zM101 591l-6 52l9 45l65 5l26 -5l5 -52l-10 -45l-64 -6z" />
    <glyph glyph-name="uni0237.ss01" horiz-adv-x="261" 
d="M-17 -96h93l11 22q10 19 15.5 41t5.5 64v378l-74 -6l-5 31l113 32l46 4v-425q0 -37 -9 -64.5t-33 -57.5l-84 -98h-79v79z" />
    <glyph glyph-name="kcommaaccent.ss01" horiz-adv-x="531" 
d="M34 30l74 9v610l-73 -2l-5 31l112 32l46 4v-443l27 11l163 146l-21 9v31l76 -3l70 3l5 -31l-52 -9l-193 -159l18 -11l199 -219l46 -9l-4 -31l-75 3l-57 -3l-192 234l-10 20v-214l60 -9l-5 -31l-88 3l-116 -3zM254 -166l36 50l-40 23v47h92v-72l-60 -61z" />
    <glyph glyph-name="lcommaaccent.ss01" horiz-adv-x="284" 
d="M35 30l74 9v610l-73 -2l-5 31l112 32l46 4v-675l80 -9l-5 -31l-112 3l-112 -3zM100 -166l36 50l-40 23v47h92v-72l-60 -61z" />
    <glyph glyph-name="ncommaaccent.ss01" horiz-adv-x="578" 
d="M34 30l74 9v371l-73 -7l-5 31l112 32l38 3l6 -85l147 98q65 0 96 -16t41 -50t10 -100v-277l81 -9l-5 -31l-112 3l-92 -3l-5 31l53 9v290q0 81 -70 81q-25 0 -49 -12t-60 -36l-33 -21v-302l59 -9l-5 -31l-91 3l-112 -3zM247 -166l36 50l-40 23v47h92v-72l-60 -61z" />
    <glyph glyph-name="eng.ss01" horiz-adv-x="497" 
d="M276 -96h93l11 22q10 21 15.5 42.5t5.5 62.5v298q0 81 -71 81q-25 0 -50.5 -12.5t-58.5 -34.5l-33 -22v-302l59 -9l-5 -31l-91 3l-112 -3l-5 31l74 9v371l-73 -7l-5 31l112 32l38 3l6 -85l147 98q65 0 96 -16t41 -50t10 -100v-271q0 -37 -9 -64.5t-34 -57.5l-83 -98h-78
v79z" />
    <glyph glyph-name="p.ss01" horiz-adv-x="543" 
d="M20 -140l74 10v541l-74 -7l-5 30l114 32l38 3l5 -83l126 96q102 0 154.5 -62t52.5 -174q0 -120 -66 -183t-180 -78q-47 0 -85 24v-139l109 -10l-5 -31l-140 3l-113 -3zM386 83q35 51 35 136q0 87 -30 142t-79 55q-39 0 -105 -50l-33 -25v-249q18 -28 50 -44t69 -16
q58 0 93 51z" />
    <glyph glyph-name="thorn.ss01" horiz-adv-x="549" 
d="M20 -140l74 10v784l-74 -6l-5 30l113 32l46 4v-327l124 95q102 0 154.5 -62t52.5 -174q0 -120 -66 -183t-180 -78q-47 0 -85 24v-139l109 -10l-5 -31l-140 3l-113 -3zM386 83q35 51 35 136q0 87 -30 142t-79 55q-39 0 -105 -50l-33 -25v-249q18 -28 50 -44t69 -16
q58 0 93 51z" />
    <glyph glyph-name="q.ss01" horiz-adv-x="527" 
d="M259 -141l109 10v197l-119 -81q-97 0 -155 64t-58 174q0 114 66.5 179.5t187.5 79.5q22 0 53 -13t59 -30l34 38h12v-608l74 -10l-5 -31l-113 3l-140 -3zM304 70l64 45v249q-23 73 -102 73q-68 0 -107 -51t-39 -139q0 -59 17 -104t45.5 -68.5t61.5 -23.5q30 0 60 19z" />
    <glyph glyph-name="rcommaaccent.ss01" horiz-adv-x="389" 
d="M35 30l74 9v371l-74 -7l-5 31l116 32l36 3l-1 -125l116 133h76v-88h-65q-17 -2 -46.5 -24t-50.5 -48l-22 -27v-247l100 -9l-5 -35l-136 3l-108 -3zM113 -166l36 50l-40 23v47h92v-72l-60 -61z" />
    <glyph glyph-name="scedilla.ss01" horiz-adv-x="419" 
d="M338.5 40.5q-40.5 -31.5 -121.5 -50.5l-24 -21q61 -15 61 -53q0 -47 -75 -74l-48 -17h-59l25 37h81q12 6 19 16t7 20q0 18 -25.5 27t-59.5 9l58 52q-39 4 -75 18.5t-54 27.5l-19 103h63l37 -85q35 -19 79 -19q41 0 62.5 23.5t21.5 58.5q0 30 -16.5 47.5t-59.5 40.5
l-81 42q-33 16 -56 45t-23 67q0 49 45.5 79.5t128.5 47.5q32 0 72.5 -15t65.5 -33v-91h-52l-23 75q-2 1 -23.5 10t-52.5 9t-54.5 -16.5t-23.5 -46.5q0 -23 17 -40.5t52 -35.5l78 -40q51 -26 72 -55.5t21 -72.5q0 -58 -40.5 -89.5z" />
    <glyph glyph-name="scommaaccent.ss01" horiz-adv-x="419" 
d="M112 1q-42 16 -64 31l-19 103h63l37 -85q35 -19 79 -19q41 0 62.5 23.5t21.5 58.5q0 30 -16.5 47.5t-59.5 40.5l-81 42q-33 16 -56 45t-23 67q0 49 45.5 79.5t128.5 47.5q32 0 72.5 -15t65.5 -33v-91h-52l-23 75q-2 1 -23.5 10t-52.5 9t-54.5 -16.5t-23.5 -46.5
q0 -23 17 -40.5t52 -35.5l78 -40q51 -26 72 -55.5t21 -72.5q0 -62 -45.5 -93.5t-136.5 -51.5q-43 0 -85 16zM168 -166l36 50l-40 23v47h92v-72l-60 -61z" />
    <glyph glyph-name="uni0163.ss01" horiz-adv-x="341" 
d="M184 415v-301q0 -27 16.5 -43t37.5 -16q18 0 35 5t44 18l15 -30l-111 -63h-11l-19 -16q61 -15 61 -53q0 -47 -75 -74l-48 -17h-59l25 37h81q12 6 19 16t7 20q0 18 -25.5 27t-59.5 9l63 56q-76 21 -76 122v303h-99v17l34 33h69v64l56 62h19v-134h156v-42h-155z" />
    <glyph glyph-name="uni021B.ss01" horiz-adv-x="341" 
d="M133.5 17q-29.5 32 -29.5 95v303h-99v17l34 33h69v64l56 62h19v-134h156v-42h-155v-301q0 -27 16.5 -43t37.5 -16q18 0 35 5t44 18l15 -30l-111 -63q-58 0 -87.5 32zM166 -166l36 50l-40 23v47h92v-72l-60 -61z" />
    <glyph glyph-name="uogonek.ss01" horiz-adv-x="558" 
d="M424.5 -139.5q25.5 -16.5 64.5 -16.5v-24q-91 0 -129 24.5t-38 76.5v11l91 70l-26 74l-147 -91q-66 0 -98.5 17t-42.5 51t-10 98v259l-75 -5l-5 36l116 25l44 4v-335q0 -41 17.5 -59.5t55.5 -18.5q24 0 52.5 14.5t68.5 41.5l21 13v284l-63 -5l-5 36l105 25l43 4v-341
q0 -30 2.5 -46t8.5 -31h53l4 -31l-86 -18l-47 -78v-12q0 -36 25.5 -52.5z" />
    <glyph glyph-name="y.ss01" horiz-adv-x="534" 
d="M84 -86h76l114 92l-38 -7l-165 428l-66 10l5 31l109 -3l102 3l5 -31l-70 -10l109 -310l7 -70l124 380l-46 10l5 31l86 -3l83 3l5 -31l-66 -10l-161 -417l-110 -185h-108v89z" />
    <glyph glyph-name="yacute.ss01" horiz-adv-x="534" 
d="M84 -86h76l114 92l-38 -7l-165 428l-66 10l5 31l109 -3l102 3l5 -31l-70 -10l109 -310l7 -70l124 380l-46 10l5 31l86 -3l83 3l5 -31l-66 -10l-161 -417l-110 -185h-108v89zM329 710h102l-120 -161h-30z" />
    <glyph glyph-name="ycircumflex.ss01" horiz-adv-x="534" 
d="M84 -86h76l114 92l-38 -7l-165 428l-66 10l5 31l109 -3l102 3l5 -31l-70 -10l109 -310l7 -70l124 380l-46 10l5 31l86 -3l83 3l5 -31l-66 -10l-161 -417l-110 -185h-108v89zM254 710h68l105 -161h-38l-82 77l-19 26l-19 -26l-82 -77h-38z" />
    <glyph glyph-name="ydieresis.ss01" horiz-adv-x="534" 
d="M84 -86h76l114 92l-38 -7l-165 428l-66 10l5 31l109 -3l102 3l5 -31l-70 -10l109 -310l7 -70l124 380l-46 10l5 31l86 -3l83 3l5 -31l-66 -10l-161 -417l-110 -185h-108v89zM158 585l-4 45l8 38l56 4l23 -4l5 -45l-9 -38l-55 -5zM334 585l-4 45l8 38l56 4l23 -4l5 -45
l-10 -38l-54 -5z" />
    <glyph glyph-name="ygrave.ss01" horiz-adv-x="534" 
d="M84 -86h76l114 92l-38 -7l-165 428l-66 10l5 31l109 -3l102 3l5 -31l-70 -10l109 -310l7 -70l124 380l-46 10l5 31l86 -3l83 3l5 -31l-66 -10l-161 -417l-110 -185h-108v89zM168 710h102l48 -161h-30z" />
    <glyph glyph-name="hcircumflex.ss02" horiz-adv-x="578" 
d="M104 850h78l105 -98h-50l-83 55l-12 10l-10 -10l-83 -55h-50zM35 30l74 9v612l-73 -2l-5 29l112 32l46 4v-327l145 95q64 0 95.5 -18t41.5 -55t10 -107v-263l80 -9l-5 -31l-112 3l-90 -3l-5 31l52 9v290q0 81 -67 81q-21 0 -48 -12.5t-64 -35.5l-33 -20v-303l59 -9
l-5 -31l-91 3l-112 -3z" />
    <glyph glyph-name="lacute.ss02" horiz-adv-x="284" 
d="M200 850h100l-121 -98h-52zM35 30l74 9v610l-73 -2l-5 31l112 32l46 4v-675l80 -9l-5 -31l-112 3l-112 -3z" />
    <glyph glyph-name="f_f_j.ss01.liga" horiz-adv-x="833" 
d="M566 -96h95l10 22q9 19 14.5 42t5.5 63v353l5 39l-34 -7h-171v-378l89 -6l-5 -33l-114 3l-94 -3l-5 30l50 9v378h-216v-378l87 -6l-5 -33l-112 3l-119 -3l-5 30l74 9v378h-90v16l28 33h62q0 46 16.5 79t47.5 70l67 81h168l-54 -74h-122l-19 -25q-12 -15 -18 -38t-6 -69
v-29h216v14q0 45 12.5 77.5t40.5 65.5l78 93h229v-86h-24l-64 12h-148l-21 -25q-12 -15 -18 -39.5t-6 -73.5v-38h174l60 5l46 5v-425q0 -38 -9 -65.5t-34 -57.5l-84 -97h-78v79z" />
    <glyph glyph-name="f_j.ss01.liga" horiz-adv-x="538" 
d="M271 -96h95l10 22q9 19 14.5 42t5.5 63v353l5 39l-34 -7h-171v-378l89 -6l-5 -33l-114 3l-119 -3l-5 30l74 9v378h-90v16l28 33h62v9q0 44 13 77t41 66l77 93h230v-86h-24l-64 12h-148l-21 -25q-12 -15 -18 -39.5t-6 -73.5v-38h174l106 11v-426q0 -38 -8.5 -65t-33.5 -57
l-85 -98h-78v79z" />
    <glyph glyph-name="f_y.ss01.liga" horiz-adv-x="810" 
d="M360 -86h76l111 92l-39 -7l-171 426h-140v-386l119 -5l-5 -35l-144 3l-119 -3l-5 31l74 9v377h-90v16l28 33h62v9q0 44 13 77t41 66l77 93h122v-74h-130l-20 -28q-11 -15 -17 -41.5t-6 -75.5v-24h290l5 -30l-70 -10l116 -310l6 -70l128 380l-46 10l5 31l86 -3l83 3l5 -31
l-66 -10l-161 -417l-110 -185h-108v89z" />
    <glyph glyph-name="g_g.ss01.liga" horiz-adv-x="972" 
d="M68 -138.5q-47 34.5 -47 105.5v15l106 58q-33 13 -48 27.5t-18 30t-3 43.5v2l98 50q-48 16 -76 46.5t-28 71.5q0 125 188 171q43 0 82 -14t62 -40l57 54h53v-73h-49l-38 -18q11 -19 11 -40q0 -59 -45 -101.5t-143 -67.5q-23 0 -33 1l-61 -49q0 -15 9.5 -25t25.5 -10h153
q66 0 97.5 -23.5t31.5 -65.5q0 -34 -30 -69.5t-84 -65t-124 -48.5q-100 0 -147 34.5zM559 -138.5q-50 34.5 -50 105.5v15l102 58q-43 13 -62 27.5t-23 30t-4 43.5v2l98 50q-48 16 -76 46.5t-28 71.5q0 125 188 171q43 0 82 -14t62 -40l57 54h57v-73h-53l-38 -18
q11 -19 11 -40q0 -59 -45 -101.5t-143 -67.5q-23 0 -33 1l-61 -49q0 -15 9.5 -25t25.5 -10h183q66 0 97.5 -23.5t31.5 -65.5q0 -34 -28.5 -69.5t-80.5 -65t-119 -48.5q-110 0 -160 34.5zM311 249q24 22 24 61q0 47 -24.5 88t-84.5 41q-43 0 -67 -26t-24 -71q0 -23 9.5 -49.5
t34.5 -46t66 -19.5q42 0 66 22zM775 249q24 22 24 61q0 47 -24.5 88t-84.5 41q-43 0 -67 -26t-24 -71q0 -23 9.5 -49.5t34.5 -46t66 -19.5q42 0 66 22zM290.5 -105q34.5 14 56 39t21.5 55q0 23 -23 32t-79 9h-106q-39 -23 -50 -38t-11 -29q0 -36 34 -59t85 -23q38 0 72.5 14
zM789.5 -105q32.5 14 52.5 39t20 55q0 23 -23 32t-79 9h-116q-37 -29 -47 -42t-10 -25q0 -36 38 -59t97 -23q35 0 67.5 14z" />
    <glyph glyph-name="k_y.ss01.liga" horiz-adv-x="974" 
d="M518 -86h81l111 92l-39 -7l-170 424h-43l-195 -154l19 -11l198 -218l50 -10l-4 -31l-78 3l-57 -3l-193 234l-9 22v-215l60 -10l-5 -31l-89 3l-115 -3l-5 31l74 10v610l-74 -2l-5 30l113 32l46 4v-444l26 11l164 146l-21 10v30h293l5 -30l-70 -10l115 -310l7 -70l127 380
l-46 10l5 31l87 -3l82 3l5 -31l-66 -10l-161 -417l-110 -185h-113v89z" />
    <glyph glyph-name="t_y.ss01.liga" horiz-adv-x="820" 
d="M369 -86h75l111 92l-38 -7l-171 427h-160v-314q0 -57 53 -57q19 0 41 7.5t50 21.5l15 -31l-122 -68q-58 0 -82.5 13.5t-29.5 37t-5 76.5v300h-98v16l33 34h69v72l56 56h19v-123h311l5 -30l-70 -10l115 -310l7 -70l127 380l-45 10l5 31l86 -3l82 3l5 -31l-65 -10
l-162 -417l-110 -185h-107v89z" />
    <glyph glyph-name="A.sc" horiz-adv-x="626" 
d="M23 25l64 9l200 471l41 14l212 -486l63 -8l-4 -26l-106 2l-107 -2l-4 26l69 10l-56 136h-198l-53 -136l71 -10l-4 -26l-98 2l-86 -2zM381 205l-77 193l-6 39l-89 -232h172z" />
    <glyph glyph-name="Aacute.sc" horiz-adv-x="626" 
d="M346 710h100l-117 -152h-32zM23 25l64 9l200 471l41 14l212 -486l63 -8l-4 -26l-106 2l-107 -2l-4 26l69 10l-56 136h-198l-53 -136l71 -10l-4 -26l-98 2l-86 -2zM381 205l-77 193l-6 39l-89 -232h172z" />
    <glyph glyph-name="Abreve.sc" horiz-adv-x="626" 
d="M250 577q-32 20 -52.5 48.5t-27.5 54.5l27 18q24 -35 47 -54t63 -19q25 0 43 10.5t29 23.5t29 39l31 -18q-18 -35 -45 -65t-73 -58q-39 0 -71 20zM23 25l64 9l200 471l41 14l212 -486l63 -8l-4 -26l-106 2l-107 -2l-4 26l69 10l-56 136h-198l-53 -136l71 -10l-4 -26
l-98 2l-86 -2zM381 205l-77 193l-6 39l-89 -232h172z" />
    <glyph glyph-name="Acircumflex.sc" horiz-adv-x="626" 
d="M279 710h68l105 -152h-40l-80 73l-19 20l-19 -20l-80 -73h-40zM23 25l64 9l200 471l41 14l212 -486l63 -8l-4 -26l-106 2l-107 -2l-4 26l69 10l-56 136h-198l-53 -136l71 -10l-4 -26l-98 2l-86 -2zM381 205l-77 193l-6 39l-89 -232h172z" />
    <glyph glyph-name="Adieresis.sc" horiz-adv-x="626" 
d="M184 585l-4 45l8 38l56 4l23 -4l5 -45l-9 -38l-55 -5zM360 585l-4 45l8 38l56 4l23 -4l5 -45l-10 -38l-54 -5zM23 25l64 9l200 471l41 14l212 -486l63 -8l-4 -26l-106 2l-107 -2l-4 26l69 10l-56 136h-198l-53 -136l71 -10l-4 -26l-98 2l-86 -2zM381 205l-77 193l-6 39
l-89 -232h172z" />
    <glyph glyph-name="Agrave.sc" horiz-adv-x="626" 
d="M180 710h100l50 -152h-33zM23 25l64 9l200 471l41 14l212 -486l63 -8l-4 -26l-106 2l-107 -2l-4 26l69 10l-56 136h-198l-53 -136l71 -10l-4 -26l-98 2l-86 -2zM381 205l-77 193l-6 39l-89 -232h172z" />
    <glyph glyph-name="Amacron.sc" horiz-adv-x="626" 
d="M175 656h276v-55h-276v55zM23 25l64 9l200 471l41 14l212 -486l63 -8l-4 -26l-106 2l-107 -2l-4 26l69 10l-56 136h-198l-53 -136l71 -10l-4 -26l-98 2l-86 -2zM381 205l-77 193l-6 39l-89 -232h172z" />
    <glyph glyph-name="Aogonek.sc" horiz-adv-x="626" 
d="M419 -103v-45q0 -36 28 -49.5t75 -13.5v-30q-98 0 -141.5 25t-43.5 76v38l122 117l-64 156h-198l-53 -136l71 -10l-4 -26l-98 2l-86 -2l-4 26l64 9l200 471l41 14l212 -486l63 -8l-4 -25l-112 1zM381 205l-77 193l-6 39l-89 -232h172z" />
    <glyph glyph-name="Aring.sc" horiz-adv-x="626" 
d="M237.5 570q-27.5 19 -27.5 63q0 27 12.5 42t30 22t54.5 18q45 0 72.5 -19t27.5 -63q0 -27 -12.5 -42t-30 -22t-54.5 -18q-45 0 -72.5 19zM348 600q16 13 16 33t-16 33t-39 13q-24 0 -40 -13t-16 -33t16 -33t39 -13q24 0 40 13zM23 25l64 9l200 471l41 14l212 -486l63 -8
l-4 -26l-106 2l-107 -2l-4 26l69 10l-56 136h-198l-53 -136l71 -10l-4 -26l-98 2l-86 -2zM381 205l-77 193l-6 39l-89 -232h172z" />
    <glyph glyph-name="Atilde.sc" horiz-adv-x="626" 
d="M218 630l-28 -55h-28l22 90l75 22l151 -57l29 55h28l-23 -95l-74 -17zM23 25l64 9l200 471l41 14l212 -486l63 -8l-4 -26l-106 2l-107 -2l-4 26l69 10l-56 136h-198l-53 -136l71 -10l-4 -26l-98 2l-86 -2zM381 205l-77 193l-6 39l-89 -232h172z" />
    <glyph glyph-name="AE.sc" horiz-adv-x="836" 
d="M19 25l64 8l339 479l51 -2l300 2l8 -132h-27l-44 95l-198 2v-216l97 3l32 77h27l-8 -91l8 -99h-27l-32 76l-97 3v-196l206 2l54 98h29l-28 -135l-300 2l-110 -2l-4 26l73 10v194h-159l-132 -194l62 -10l-4 -26l-90 3l-86 -3zM432 260v215l-141 -215h141z" />
    <glyph glyph-name="AEacute.sc" horiz-adv-x="836" 
d="M589 710h100l-117 -152h-32zM19 25l64 8l339 479l51 -2l300 2l8 -132h-27l-44 95l-198 2v-216l97 3l32 77h27l-8 -91l8 -99h-27l-32 76l-97 3v-196l206 2l54 98h29l-28 -135l-300 2l-110 -2l-4 26l73 10v194h-159l-132 -194l62 -10l-4 -26l-90 3l-86 -3zM432 260v215
l-141 -215h141z" />
    <glyph glyph-name="B.sc" horiz-adv-x="545" 
d="M39 25l73 10v441l-73 10l4 26l111 -2l153 2q50 0 85 -15.5t52.5 -41t17.5 -54.5q0 -43 -35 -78t-89 -48q75 -3 116.5 -38.5t41.5 -87.5q0 -69 -55.5 -102.5t-160.5 -47.5l-125 2l-112 -2zM260 285q53 0 87 31.5t34 77.5q0 39 -26.5 62t-75.5 24l-88 -4v-191h69zM378 65.5
q35 34.5 35 81.5q0 46 -35 75.5t-94 29.5h-93v-217l75 -4q77 0 112 34.5z" />
    <glyph glyph-name="C.sc" horiz-adv-x="593" 
d="M193.5 17.5q-65.5 30.5 -105.5 89.5t-40 141q0 123 80 191t220 85q57 0 109 -17.5t83 -39.5v-100h-43l-26 69q-20 20 -54.5 35t-79.5 15q-93 0 -147.5 -57.5t-54.5 -162.5q0 -61 26.5 -115.5t77.5 -88.5t120 -34q55 0 103 41l44 81h43l-21 -106q-35 -16 -91 -33.5
t-102 -23.5q-76 0 -141.5 30.5z" />
    <glyph glyph-name="Cacute.sc" horiz-adv-x="593" 
d="M373 710h100l-117 -152h-32zM193.5 17.5q-65.5 30.5 -105.5 89.5t-40 141q0 123 80 191t220 85q57 0 109 -17.5t83 -39.5v-100h-43l-26 69q-20 20 -54.5 35t-79.5 15q-93 0 -147.5 -57.5t-54.5 -162.5q0 -61 26.5 -115.5t77.5 -88.5t120 -34q55 0 103 41l44 81h43
l-21 -106q-35 -16 -91 -33.5t-102 -23.5q-76 0 -141.5 30.5z" />
    <glyph glyph-name="Ccaron.sc" horiz-adv-x="593" 
d="M241 710l80 -73l19 -20l18 20l80 73h40l-105 -152h-67l-105 152h40zM193.5 17.5q-65.5 30.5 -105.5 89.5t-40 141q0 123 80 191t220 85q57 0 109 -17.5t83 -39.5v-100h-43l-26 69q-20 20 -54.5 35t-79.5 15q-93 0 -147.5 -57.5t-54.5 -162.5q0 -61 26.5 -115.5
t77.5 -88.5t120 -34q55 0 103 41l44 81h43l-21 -106q-35 -16 -91 -33.5t-102 -23.5q-76 0 -141.5 30.5z" />
    <glyph glyph-name="Ccedilla.sc" horiz-adv-x="593" 
d="M439.5 11.5q-53.5 -16.5 -98.5 -23.5l-24 -35q33 -2 57 -23.5t24 -56.5q0 -39 -27 -65.5t-60 -36.5l-51 -16h-57l29 38h76q15 9 23 26.5t8 35.5q0 32 -25.5 47.5t-58.5 15.5l52 70q-70 6 -129 38t-94.5 89t-35.5 133q0 123 80 191t220 85q57 0 109 -17.5t83 -39.5v-100
h-43l-26 69q-20 20 -54.5 35t-79.5 15q-93 0 -147.5 -57.5t-54.5 -162.5q0 -61 26.5 -115.5t77.5 -88.5t120 -34q55 0 103 41l44 81h43l-21 -106q-35 -16 -88.5 -32.5z" />
    <glyph glyph-name="Ccircumflex.sc" horiz-adv-x="593" 
d="M306 710h68l105 -152h-40l-80 73l-19 20l-19 -20l-80 -73h-40zM193.5 17.5q-65.5 30.5 -105.5 89.5t-40 141q0 123 80 191t220 85q57 0 109 -17.5t83 -39.5v-100h-43l-26 69q-20 20 -54.5 35t-79.5 15q-93 0 -147.5 -57.5t-54.5 -162.5q0 -61 26.5 -115.5t77.5 -88.5
t120 -34q55 0 103 41l44 81h43l-21 -106q-35 -16 -91 -33.5t-102 -23.5q-76 0 -141.5 30.5z" />
    <glyph glyph-name="Cdotaccent.sc" horiz-adv-x="579" 
d="M289 565l-4 45l7 41l58 3l20 -4l4 -47l-9 -38l-56 -5zM186.5 17q-64.5 30 -104 87.5t-39.5 137.5q0 233 303 279q54 0 104.5 -15.5t77.5 -34.5v-124h-43l-24 74q-19 22 -53.5 38t-78.5 16q-91 0 -145.5 -56t-54.5 -155q0 -62 26.5 -115t76.5 -84t118 -31q32 0 58 14
t44 35l43 88h43l-22 -132q-24 -13 -78.5 -27t-111.5 -25q-75 0 -139.5 30z" />
    <glyph glyph-name="D.sc" horiz-adv-x="619" 
d="M39 25l73 10v441l-73 10l4 26l109 -2l157 1q123 1 192.5 -62t69.5 -179q0 -118 -68.5 -187.5t-202.5 -83.5l-148 2l-109 -2zM392.5 61q43.5 28 67.5 80t24 120q0 96 -55.5 157.5t-157.5 61.5l-80 -4v-437l103 -6q55 0 98.5 28z" />
    <glyph glyph-name="Eth.sc" horiz-adv-x="604" 
d="M501.5 449q69.5 -63 69.5 -179q0 -118 -68.5 -187.5t-202.5 -83.5l-148 2l-109 -2l-4 26l73 10v208h-69v40h69v193l-73 10l4 26l109 -2l157 1q123 1 192.5 -62zM392.5 61q43.5 28 67.5 80t24 120q0 96 -55.5 157.5t-157.5 61.5l-80 -4v-193h95v-40h-95v-204l103 -6
q55 0 98.5 28z" />
    <glyph glyph-name="Dcaron.sc" horiz-adv-x="619" 
d="M178 710l80 -73l19 -20l18 20l80 73h40l-105 -152h-67l-105 152h40zM39 25l73 10v441l-73 10l4 26l109 -2l157 1q123 1 192.5 -62t69.5 -179q0 -118 -68.5 -187.5t-202.5 -83.5l-148 2l-109 -2zM392.5 61q43.5 28 67.5 80t24 120q0 96 -55.5 157.5t-157.5 61.5l-80 -4
v-437l103 -6q55 0 98.5 28z" />
    <glyph glyph-name="Dcroat.sc" horiz-adv-x="604" 
d="M501.5 449q69.5 -63 69.5 -179q0 -118 -68.5 -187.5t-202.5 -83.5l-148 2l-109 -2l-4 26l73 10v208h-69v40h69v193l-73 10l4 26l109 -2l157 1q123 1 192.5 -62zM392.5 61q43.5 28 67.5 80t24 120q0 96 -55.5 157.5t-157.5 61.5l-80 -4v-193h95v-40h-95v-204l103 -6
q55 0 98.5 28z" />
    <glyph glyph-name="E.sc" horiz-adv-x="533" 
d="M39 25l73 10v441l-73 10l4 26l110 -2l316 2l7 -132h-25l-45 95l-215 2v-194l115 3l32 77h26l-8 -91l8 -99h-26l-32 76l-115 3v-218l223 2l54 99h29l-28 -136l-316 2l-110 -2z" />
    <glyph glyph-name="Eacute.sc" horiz-adv-x="533" 
d="M321 710h100l-117 -152h-32zM39 25l73 10v441l-73 10l4 26l110 -2l316 2l7 -132h-25l-45 95l-215 2v-194l115 3l32 77h26l-8 -91l8 -99h-26l-32 76l-115 3v-218l223 2l54 99h29l-28 -136l-316 2l-110 -2z" />
    <glyph glyph-name="Ebreve.sc" horiz-adv-x="533" 
d="M225 577q-32 20 -52.5 48.5t-27.5 54.5l27 18q24 -35 47 -54t63 -19q25 0 43 10.5t29 23.5t29 39l31 -18q-18 -35 -45 -65t-73 -58q-39 0 -71 20zM39 25l73 10v441l-73 10l4 26l110 -2l316 2l7 -132h-25l-45 95l-215 2v-194l115 3l32 77h26l-8 -91l8 -99h-26l-32 76
l-115 3v-218l223 2l54 99h29l-28 -136l-316 2l-110 -2z" />
    <glyph glyph-name="Ecaron.sc" horiz-adv-x="533" 
d="M189 710l80 -73l19 -20l18 20l80 73h40l-105 -152h-67l-105 152h40zM39 25l73 10v441l-73 10l4 26l110 -2l316 2l7 -132h-25l-45 95l-215 2v-194l115 3l32 77h26l-8 -91l8 -99h-26l-32 76l-115 3v-218l223 2l54 99h29l-28 -136l-316 2l-110 -2z" />
    <glyph glyph-name="Ecircumflex.sc" horiz-adv-x="533" 
d="M254 710h68l105 -152h-40l-80 73l-19 20l-19 -20l-80 -73h-40zM39 25l73 10v441l-73 10l4 26l110 -2l316 2l7 -132h-25l-45 95l-215 2v-194l115 3l32 77h26l-8 -91l8 -99h-26l-32 76l-115 3v-218l223 2l54 99h29l-28 -136l-316 2l-110 -2z" />
    <glyph glyph-name="Edieresis.sc" horiz-adv-x="533" 
d="M159 585l-4 45l8 38l56 4l23 -4l5 -45l-9 -38l-55 -5zM335 585l-4 45l8 38l56 4l23 -4l5 -45l-10 -38l-54 -5zM39 25l73 10v441l-73 10l4 26l110 -2l316 2l7 -132h-25l-45 95l-215 2v-194l115 3l32 77h26l-8 -91l8 -99h-26l-32 76l-115 3v-218l223 2l54 99h29l-28 -136
l-316 2l-110 -2z" />
    <glyph glyph-name="Edotaccent.sc" horiz-adv-x="533" 
d="M235 603l-6 53l9 45l73 5l22 -5l5 -53l-11 -45l-72 -6zM39 25l73 10v441l-73 10l4 26l110 -2l316 2l7 -132h-25l-45 95l-215 2v-194l115 3l32 77h26l-8 -91l8 -99h-26l-32 76l-115 3v-218l223 2l54 99h29l-28 -136l-316 2l-110 -2z" />
    <glyph glyph-name="Egrave.sc" horiz-adv-x="533" 
d="M155 710h100l50 -152h-33zM39 25l73 10v441l-73 10l4 26l110 -2l316 2l7 -132h-25l-45 95l-215 2v-194l115 3l32 77h26l-8 -91l8 -99h-26l-32 76l-115 3v-218l223 2l54 99h29l-28 -136l-316 2l-110 -2z" />
    <glyph glyph-name="Emacron.sc" horiz-adv-x="533" 
d="M150 656h276v-55h-276v55zM39 25l73 10v441l-73 10l4 26l110 -2l316 2l7 -132h-25l-45 95l-215 2v-194l115 3l32 77h26l-8 -91l8 -99h-26l-32 76l-115 3v-218l223 2l54 99h29l-28 -136l-316 2l-110 -2z" />
    <glyph glyph-name="Eogonek.sc" horiz-adv-x="533" 
d="M357 -100v-45q0 -40 28 -55t75 -15v-30q-98 0 -141.5 26.5t-43.5 81.5v38l103 99l-225 1l-110 -2l-4 26l73 10v441l-73 10l4 26l110 -2l316 2l7 -132h-25l-45 95l-215 2v-194l115 3l32 77h26l-8 -91l8 -99h-26l-32 76l-115 3v-218l223 2l54 99h29l-28 -136h-47z" />
    <glyph glyph-name="F.sc" horiz-adv-x="503" 
d="M39 25l73 10v441l-73 10l4 26l110 -2l316 2l7 -133h-25l-45 96l-215 2v-204l115 3l32 77h26l-8 -92l8 -99h-26l-32 77l-115 3v-207l96 -10l-4 -26l-130 2l-110 -2z" />
    <glyph glyph-name="G.sc" horiz-adv-x="626" 
d="M188 17.5q-64 30.5 -102 89.5t-38 141q0 234 293 276q58 0 113 -18t84 -39v-100h-39l-25 66q-20 21 -57.5 37t-86.5 16q-89 0 -142 -58.5t-53 -161.5q0 -62 27 -117t76.5 -88t112.5 -33q34 0 62 11.5t45 25.5v139l-72 9l4 27l108 -3l88 3l4 -27l-53 -9v-160
q-37 -14 -100 -32t-110 -25q-75 0 -139 30.5z" />
    <glyph glyph-name="Gbreve.sc" horiz-adv-x="626" 
d="M283 577q-32 20 -52.5 48.5t-27.5 54.5l27 18q24 -35 47 -54t63 -19q25 0 43 10.5t29 23.5t29 39l31 -18q-18 -35 -45 -65t-73 -58q-39 0 -71 20zM188 17.5q-64 30.5 -102 89.5t-38 141q0 234 293 276q58 0 113 -18t84 -39v-100h-39l-25 66q-20 21 -57.5 37t-86.5 16
q-89 0 -142 -58.5t-53 -161.5q0 -62 27 -117t76.5 -88t112.5 -33q34 0 62 11.5t45 25.5v139l-72 9l4 27l108 -3l88 3l4 -27l-53 -9v-160q-37 -14 -100 -32t-110 -25q-75 0 -139 30.5z" />
    <glyph glyph-name="Gcircumflex.sc" horiz-adv-x="626" 
d="M312 710h68l105 -152h-40l-80 73l-19 20l-19 -20l-80 -73h-40zM188 17.5q-64 30.5 -102 89.5t-38 141q0 234 293 276q58 0 113 -18t84 -39v-100h-39l-25 66q-20 21 -57.5 37t-86.5 16q-89 0 -142 -58.5t-53 -161.5q0 -62 27 -117t76.5 -88t112.5 -33q34 0 62 11.5
t45 25.5v139l-72 9l4 27l108 -3l88 3l4 -27l-53 -9v-160q-37 -14 -100 -32t-110 -25q-75 0 -139 30.5z" />
    </font>
</defs>
</svg>
